M48
; DRILL file {KiCad (5.1.8)-1} date 03/30/23 10:41:43
; FORMAT={-:-/ absolute / metric / decimal}
; #@! TF.CreationDate,2023-03-30T10:41:43+02:00
; #@! TF.GenerationSoftware,Kicad,Pcbnew,(5.1.8)-1
FMAT,2
METRIC
T1C0.500
T2C0.700
T3C0.762
T4C0.800
T5C0.900
T6C1.000
T7C1.100
T8C3.000
%
G90
G05
T1
X55.3Y53.2
X57.57Y55.2
X59.8Y53.2
T2
X42.8Y33.98
X42.8Y31.44
X42.8Y28.9
X42.8Y26.36
T3
X22.75Y60.2
X22.75Y47.0
X41.25Y60.2
X41.25Y47.0
T4
X65.89Y53.8
X73.51Y53.8
X74.16Y7.7
X79.24Y7.7
T5
X53.87Y27.13
X53.87Y19.51
X53.87Y16.97
X53.87Y14.43
X53.87Y11.89
X56.41Y27.13
X56.41Y11.89
X58.95Y27.13
X58.95Y11.89
X61.49Y27.13
X61.49Y11.89
X64.03Y27.13
X64.03Y11.89
X66.57Y27.13
X66.57Y11.89
X69.11Y27.13
X69.11Y11.89
X70.38Y14.43
X71.65Y27.13
X71.65Y11.89
X72.92Y14.43
X74.19Y27.13
X74.19Y11.89
X76.73Y27.13
X76.73Y11.89
X79.27Y27.13
X79.27Y11.89
X81.81Y27.13
X81.81Y11.89
X84.38Y25.96
X84.38Y23.42
X84.38Y20.88
X84.38Y18.34
X84.38Y15.8
X84.38Y13.26
T6
X25.5Y13.3
X28.0Y13.3
X30.5Y13.3
X33.0Y13.3
T7
X12.7Y56.5
X12.7Y51.42
X82.0Y58.28
X82.0Y53.2
X71.5Y41.0
X73.5Y47.0
X73.5Y35.0
X85.7Y47.0
X85.7Y35.0
T8
X95.0Y5.0
X5.0Y65.0
X95.0Y65.0
X5.0Y5.0
T0
M30
