%TF.GenerationSoftware,KiCad,Pcbnew,(5.1.8)-1*%
%TF.CreationDate,2023-04-05T10:10:54+02:00*%
%TF.ProjectId,CommandeJF,436f6d6d-616e-4646-954a-462e6b696361,rev?*%
%TF.SameCoordinates,PX6422c40PY68e7780*%
%TF.FileFunction,Copper,L2,Bot*%
%TF.FilePolarity,Positive*%
%FSLAX46Y46*%
G04 Gerber Fmt 4.6, Leading zero omitted, Abs format (unit mm)*
G04 Created by KiCad (PCBNEW (5.1.8)-1) date 2023-04-05 10:10:54*
%MOMM*%
%LPD*%
G01*
G04 APERTURE LIST*
%TA.AperFunction,ComponentPad*%
%ADD10O,1.800000X2.500000*%
%TD*%
%TA.AperFunction,ComponentPad*%
%ADD11R,1.800000X2.500000*%
%TD*%
%TA.AperFunction,ComponentPad*%
%ADD12R,1.700000X2.800000*%
%TD*%
%TA.AperFunction,ComponentPad*%
%ADD13O,1.700000X2.800000*%
%TD*%
%TA.AperFunction,ComponentPad*%
%ADD14C,3.000000*%
%TD*%
%TA.AperFunction,ComponentPad*%
%ADD15R,3.000000X3.000000*%
%TD*%
%TA.AperFunction,ComponentPad*%
%ADD16C,2.500000*%
%TD*%
%TA.AperFunction,ComponentPad*%
%ADD17O,3.000000X2.000000*%
%TD*%
%TA.AperFunction,ComponentPad*%
%ADD18O,2.000000X3.000000*%
%TD*%
%TA.AperFunction,ComponentPad*%
%ADD19R,2.000000X3.000000*%
%TD*%
%TA.AperFunction,Conductor*%
%ADD20C,2.000000*%
%TD*%
%TA.AperFunction,Conductor*%
%ADD21C,1.000000*%
%TD*%
%TA.AperFunction,Conductor*%
%ADD22C,1.500000*%
%TD*%
%TA.AperFunction,Conductor*%
%ADD23C,0.254000*%
%TD*%
%TA.AperFunction,Conductor*%
%ADD24C,0.200000*%
%TD*%
G04 APERTURE END LIST*
D10*
%TO.P,TR1,1*%
%TO.N,GND*%
X51700000Y56700000D03*
%TO.P,TR1,3*%
%TO.N,Net-(D2-Pad2)*%
X56200000Y56700000D03*
D11*
%TO.P,TR1,2*%
%TO.N,Net-(R101-Pad1)*%
X53970000Y58700000D03*
%TD*%
D12*
%TO.P,XA1,D1*%
%TO.N,N/C*%
X87570000Y27020000D03*
D13*
%TO.P,XA1,D0*%
X85030000Y27020000D03*
%TO.P,XA1,RST1*%
X82490000Y27020000D03*
%TO.P,XA1,GND1*%
%TO.N,GND*%
X79950000Y27020000D03*
%TO.P,XA1,D2*%
%TO.N,N/C*%
X77410000Y27020000D03*
%TO.P,XA1,D3*%
X74870000Y27020000D03*
%TO.P,XA1,D4*%
X72330000Y27020000D03*
%TO.P,XA1,D5*%
X69790000Y27020000D03*
%TO.P,XA1,D6*%
X67250000Y27020000D03*
%TO.P,XA1,D7*%
X64710000Y27020000D03*
%TO.P,XA1,D8*%
X62170000Y27020000D03*
%TO.P,XA1,D9*%
%TO.N,SIG*%
X59630000Y27020000D03*
%TO.P,XA1,D10*%
%TO.N,N/C*%
X57090000Y27020000D03*
%TO.P,XA1,D11*%
X54550000Y27020000D03*
%TO.P,XA1,D12*%
X52010000Y27020000D03*
%TO.P,XA1,D13*%
X52010000Y11780000D03*
%TO.P,XA1,3V3*%
X54550000Y11780000D03*
%TO.P,XA1,AREF*%
X57090000Y11780000D03*
%TO.P,XA1,A0*%
X59630000Y11780000D03*
%TO.P,XA1,A1*%
X62170000Y11780000D03*
%TO.P,XA1,A2*%
X64710000Y11780000D03*
%TO.P,XA1,A3*%
X67250000Y11780000D03*
%TO.P,XA1,A4*%
%TO.N,SDA*%
X69790000Y11780000D03*
%TO.P,XA1,A5*%
%TO.N,SCL*%
X72330000Y11780000D03*
%TO.P,XA1,A6*%
%TO.N,N/C*%
X74870000Y11780000D03*
%TO.P,XA1,A7*%
X77410000Y11780000D03*
%TO.P,XA1,5V*%
%TO.N,+5V*%
X79950000Y11780000D03*
%TO.P,XA1,RST2*%
%TO.N,N/C*%
X82490000Y11780000D03*
%TO.P,XA1,GND2*%
X85030000Y11780000D03*
%TO.P,XA1,VIN*%
%TO.N,+12V*%
X87570000Y11780000D03*
%TD*%
D14*
%TO.P,J1,4*%
%TO.N,+24V*%
X13400000Y47260000D03*
%TO.P,J1,3*%
%TO.N,Net-(J1-Pad2)*%
X13400000Y52340000D03*
%TO.P,J1,2*%
X13400000Y57420000D03*
D15*
%TO.P,J1,1*%
%TO.N,GND1*%
X13400000Y62500000D03*
%TD*%
D16*
%TO.P,R101,1*%
%TO.N,Net-(R101-Pad1)*%
X53900000Y45900000D03*
%TO.P,R101,2*%
%TO.N,SIG*%
X53900000Y35900000D03*
%TD*%
D17*
%TO.P,U1,1*%
%TO.N,SCL*%
X38500000Y28560000D03*
%TO.P,U1,2*%
%TO.N,SDA*%
X38500000Y31100000D03*
%TO.P,U1,3*%
%TO.N,+5V*%
X38500000Y33640000D03*
%TO.P,U1,4*%
%TO.N,GND*%
X38500000Y36180000D03*
%TD*%
D16*
%TO.P,D2,1*%
%TO.N,+12V*%
X65700000Y40890000D03*
%TO.P,D2,2*%
%TO.N,Net-(D2-Pad2)*%
X65700000Y48510000D03*
%TD*%
D14*
%TO.P,U101,4*%
%TO.N,+12V*%
X41950000Y48300000D03*
%TO.P,U101,3*%
%TO.N,GND*%
X41950000Y61500000D03*
%TO.P,U101,2*%
%TO.N,+24V*%
X23450000Y48300000D03*
%TO.P,U101,1*%
%TO.N,GND1*%
X23450000Y61500000D03*
%TD*%
%TO.P,K1,11*%
%TO.N,Net-(J2-Pad2)*%
X72200000Y42300000D03*
%TO.P,K1,A2*%
%TO.N,Net-(D2-Pad2)*%
X74200000Y48300000D03*
%TO.P,K1,12*%
%TO.N,N/C*%
X86400000Y48300000D03*
%TO.P,K1,14*%
%TO.N,Net-(J2-Pad1)*%
X86400000Y36300000D03*
%TO.P,K1,A1*%
%TO.N,+12V*%
X74200000Y36300000D03*
%TD*%
D18*
%TO.P,J3,4*%
%TO.N,SDA*%
X33700000Y14600000D03*
%TO.P,J3,3*%
%TO.N,SCL*%
X31200000Y14600000D03*
%TO.P,J3,2*%
%TO.N,+5V*%
X28700000Y14600000D03*
D19*
%TO.P,J3,1*%
%TO.N,GND*%
X26200000Y14600000D03*
%TD*%
D14*
%TO.P,J2,2*%
%TO.N,Net-(J2-Pad2)*%
X82700000Y59580000D03*
D15*
%TO.P,J2,1*%
%TO.N,Net-(J2-Pad1)*%
X82700000Y54500000D03*
%TD*%
D20*
%TO.N,+24V*%
X22410000Y47260000D02*
X23450000Y48300000D01*
X13400000Y47260000D02*
X22410000Y47260000D01*
D21*
%TO.N,+5V*%
X28800000Y14500000D02*
X28700000Y14600000D01*
X28700000Y14600000D02*
X28700000Y33000000D01*
X29340000Y33640000D02*
X38500000Y33640000D01*
X28700000Y33000000D02*
X29340000Y33640000D01*
X79950000Y11780000D02*
X79950000Y6950000D01*
X79950000Y6950000D02*
X79800000Y6800000D01*
X79800000Y6800000D02*
X28700000Y6800000D01*
X28700000Y6800000D02*
X28700000Y14600000D01*
D22*
%TO.N,Net-(J2-Pad2)*%
X72200000Y42300000D02*
X78200000Y42300000D01*
X78200000Y42300000D02*
X78200000Y59100000D01*
X78680000Y59580000D02*
X82700000Y59580000D01*
X78200000Y59100000D02*
X78680000Y59580000D01*
%TO.N,Net-(J2-Pad1)*%
X82700000Y54500000D02*
X82700000Y36300000D01*
X82700000Y36300000D02*
X86400000Y36300000D01*
D21*
%TO.N,SDA*%
X69890000Y19010000D02*
X69800000Y19100000D01*
X33900000Y14800000D02*
X33700000Y14600000D01*
X33700000Y18900000D02*
X33900000Y19100000D01*
X33700000Y14600000D02*
X33700000Y18900000D01*
X38500000Y31100000D02*
X43100000Y31100000D01*
X43100000Y19200000D02*
X43200000Y19100000D01*
X43100000Y31100000D02*
X43100000Y19200000D01*
X43200000Y19100000D02*
X33900000Y19100000D01*
X69800000Y19100000D02*
X43200000Y19100000D01*
X69890000Y11880000D02*
X69790000Y11780000D01*
X69890000Y19010000D02*
X69890000Y11880000D01*
%TO.N,SCL*%
X30900000Y14300000D02*
X31200000Y14600000D01*
X31200000Y14600000D02*
X31200000Y28000000D01*
X31760000Y28560000D02*
X38500000Y28560000D01*
X31200000Y28000000D02*
X31760000Y28560000D01*
X72300000Y11750000D02*
X72330000Y11780000D01*
X72330000Y11780000D02*
X72330000Y8830000D01*
X72330000Y8830000D02*
X72200000Y8700000D01*
X72200000Y8700000D02*
X31000000Y8700000D01*
X31000000Y14400000D02*
X31200000Y14600000D01*
X31000000Y8700000D02*
X31000000Y14400000D01*
%TO.N,SIG*%
X53900000Y35900000D02*
X59000000Y35900000D01*
X59630000Y35270000D02*
X59630000Y27020000D01*
X59000000Y35900000D02*
X59630000Y35270000D01*
%TO.N,Net-(D2-Pad2)*%
X74210000Y48310000D02*
X74200000Y48300000D01*
X74100000Y48400000D02*
X74200000Y48300000D01*
X74100000Y52400000D02*
X74100000Y48400000D01*
X65700000Y52100000D02*
X66000000Y52400000D01*
X65700000Y48510000D02*
X65700000Y52100000D01*
X66000000Y52400000D02*
X74100000Y52400000D01*
X56200000Y56700000D02*
X65700000Y56700000D01*
X65700000Y56700000D02*
X65700000Y52100000D01*
D20*
%TO.N,GND1*%
X22450000Y62500000D02*
X23450000Y61500000D01*
X13400000Y62500000D02*
X22450000Y62500000D01*
D22*
%TO.N,+12V*%
X74190000Y36290000D02*
X74200000Y36300000D01*
X65600000Y40790000D02*
X65700000Y40890000D01*
X74200000Y32700000D02*
X74600000Y32300000D01*
X74200000Y36300000D02*
X74200000Y32700000D01*
X41950000Y41050000D02*
X41950000Y48300000D01*
X42100000Y40900000D02*
X41950000Y41050000D01*
X65690000Y40900000D02*
X42100000Y40900000D01*
X65700000Y40890000D02*
X65690000Y40900000D01*
X87570000Y11780000D02*
X92920000Y11780000D01*
X92920000Y11780000D02*
X93300000Y12160000D01*
X93300000Y12160000D02*
X93300000Y32200000D01*
X74700000Y32200000D02*
X74600000Y32300000D01*
X93300000Y32200000D02*
X74700000Y32200000D01*
X74700000Y32200000D02*
X65800000Y32200000D01*
X65700000Y32300000D02*
X65700000Y40890000D01*
X65800000Y32200000D02*
X65700000Y32300000D01*
D21*
%TO.N,Net-(R101-Pad1)*%
X53900000Y58630000D02*
X53970000Y58700000D01*
X53900000Y45900000D02*
X53900000Y58630000D01*
D20*
%TO.N,Net-(J1-Pad2)*%
X13400000Y57420000D02*
X13400000Y52340000D01*
%TD*%
D23*
%TO.N,GND*%
X99048001Y952000D02*
X952000Y952000D01*
X952000Y5239039D01*
X2573000Y5239039D01*
X2573000Y4760961D01*
X2666268Y4292070D01*
X2849221Y3850385D01*
X3114826Y3452878D01*
X3452878Y3114826D01*
X3850385Y2849221D01*
X4292070Y2666268D01*
X4760961Y2573000D01*
X5239039Y2573000D01*
X5707930Y2666268D01*
X6149615Y2849221D01*
X6547122Y3114826D01*
X6885174Y3452878D01*
X7150779Y3850385D01*
X7333732Y4292070D01*
X7427000Y4760961D01*
X7427000Y5239039D01*
X93273000Y5239039D01*
X93273000Y4760961D01*
X93366268Y4292070D01*
X93549221Y3850385D01*
X93814826Y3452878D01*
X94152878Y3114826D01*
X94550385Y2849221D01*
X94992070Y2666268D01*
X95460961Y2573000D01*
X95939039Y2573000D01*
X96407930Y2666268D01*
X96849615Y2849221D01*
X97247122Y3114826D01*
X97585174Y3452878D01*
X97850779Y3850385D01*
X98033732Y4292070D01*
X98127000Y4760961D01*
X98127000Y5239039D01*
X98033732Y5707930D01*
X97850779Y6149615D01*
X97585174Y6547122D01*
X97247122Y6885174D01*
X96849615Y7150779D01*
X96407930Y7333732D01*
X95939039Y7427000D01*
X95460961Y7427000D01*
X94992070Y7333732D01*
X94550385Y7150779D01*
X94152878Y6885174D01*
X93814826Y6547122D01*
X93549221Y6149615D01*
X93366268Y5707930D01*
X93273000Y5239039D01*
X7427000Y5239039D01*
X7333732Y5707930D01*
X7150779Y6149615D01*
X6885174Y6547122D01*
X6547122Y6885174D01*
X6149615Y7150779D01*
X5707930Y7333732D01*
X5239039Y7427000D01*
X4760961Y7427000D01*
X4292070Y7333732D01*
X3850385Y7150779D01*
X3452878Y6885174D01*
X3114826Y6547122D01*
X2849221Y6149615D01*
X2666268Y5707930D01*
X2573000Y5239039D01*
X952000Y5239039D01*
X952000Y13100000D01*
X24561928Y13100000D01*
X24574188Y12975518D01*
X24610498Y12855820D01*
X24669463Y12745506D01*
X24748815Y12648815D01*
X24845506Y12569463D01*
X24955820Y12510498D01*
X25075518Y12474188D01*
X25200000Y12461928D01*
X25768250Y12465000D01*
X25927000Y12623750D01*
X25927000Y14327000D01*
X24723750Y14327000D01*
X24565000Y14168250D01*
X24561928Y13100000D01*
X952000Y13100000D01*
X952000Y16100000D01*
X24561928Y16100000D01*
X24565000Y15031750D01*
X24723750Y14873000D01*
X25927000Y14873000D01*
X25927000Y16576250D01*
X26473000Y16576250D01*
X26473000Y14873000D01*
X26493000Y14873000D01*
X26493000Y14327000D01*
X26473000Y14327000D01*
X26473000Y12623750D01*
X26631750Y12465000D01*
X27200000Y12461928D01*
X27273001Y12469118D01*
X27273000Y6870098D01*
X27266096Y6800000D01*
X27293648Y6520259D01*
X27375245Y6251269D01*
X27507752Y6003366D01*
X27686077Y5786077D01*
X27882051Y5625245D01*
X27903366Y5607752D01*
X28151269Y5475245D01*
X28420259Y5393648D01*
X28700000Y5366096D01*
X28770097Y5373000D01*
X79729912Y5373000D01*
X79800000Y5366097D01*
X79870088Y5373000D01*
X79870098Y5373000D01*
X80079741Y5393648D01*
X80348731Y5475245D01*
X80596634Y5607752D01*
X80813923Y5786077D01*
X80858610Y5840528D01*
X80909472Y5891390D01*
X80963923Y5936077D01*
X81142248Y6153366D01*
X81274755Y6401269D01*
X81356352Y6670259D01*
X81377000Y6879902D01*
X81377000Y6879912D01*
X81383903Y6949999D01*
X81377000Y7020087D01*
X81377000Y9844612D01*
X81497975Y9745330D01*
X81806681Y9580323D01*
X82141647Y9478712D01*
X82490000Y9444402D01*
X82838352Y9478712D01*
X83173318Y9580323D01*
X83482024Y9745330D01*
X83752608Y9967392D01*
X83760000Y9976399D01*
X83767392Y9967392D01*
X84037975Y9745330D01*
X84346681Y9580323D01*
X84681647Y9478712D01*
X85030000Y9444402D01*
X85378352Y9478712D01*
X85713318Y9580323D01*
X86022024Y9745330D01*
X86292608Y9967392D01*
X86300000Y9976399D01*
X86307392Y9967392D01*
X86577975Y9745330D01*
X86886681Y9580323D01*
X87221647Y9478712D01*
X87570000Y9444402D01*
X87918352Y9478712D01*
X88253318Y9580323D01*
X88562024Y9745330D01*
X88832608Y9967392D01*
X88943899Y10103000D01*
X92837620Y10103000D01*
X92920000Y10094886D01*
X93002380Y10103000D01*
X93002383Y10103000D01*
X93248749Y10127265D01*
X93564865Y10223158D01*
X93856199Y10378879D01*
X94111556Y10588444D01*
X94164080Y10652445D01*
X94427556Y10915921D01*
X94491556Y10968444D01*
X94701121Y11223801D01*
X94856842Y11515135D01*
X94952735Y11831251D01*
X94977000Y12077617D01*
X94977000Y12077619D01*
X94985114Y12159999D01*
X94977000Y12242379D01*
X94977000Y32117617D01*
X94985114Y32200000D01*
X94952735Y32528749D01*
X94856842Y32844865D01*
X94701121Y33136199D01*
X94491556Y33391556D01*
X94236199Y33601121D01*
X93944865Y33756842D01*
X93628749Y33852735D01*
X93382383Y33877000D01*
X93300000Y33885114D01*
X93217618Y33877000D01*
X86659148Y33877000D01*
X87107930Y33966268D01*
X87549615Y34149221D01*
X87947122Y34414826D01*
X88285174Y34752878D01*
X88550779Y35150385D01*
X88733732Y35592070D01*
X88827000Y36060961D01*
X88827000Y36539039D01*
X88733732Y37007930D01*
X88550779Y37449615D01*
X88285174Y37847122D01*
X87947122Y38185174D01*
X87549615Y38450779D01*
X87107930Y38633732D01*
X86639039Y38727000D01*
X86160961Y38727000D01*
X85692070Y38633732D01*
X85250385Y38450779D01*
X84852878Y38185174D01*
X84644704Y37977000D01*
X84377000Y37977000D01*
X84377000Y46959150D01*
X84514826Y46752878D01*
X84852878Y46414826D01*
X85250385Y46149221D01*
X85692070Y45966268D01*
X86160961Y45873000D01*
X86639039Y45873000D01*
X87107930Y45966268D01*
X87549615Y46149221D01*
X87947122Y46414826D01*
X88285174Y46752878D01*
X88550779Y47150385D01*
X88733732Y47592070D01*
X88827000Y48060961D01*
X88827000Y48539039D01*
X88733732Y49007930D01*
X88550779Y49449615D01*
X88285174Y49847122D01*
X87947122Y50185174D01*
X87549615Y50450779D01*
X87107930Y50633732D01*
X86639039Y50727000D01*
X86160961Y50727000D01*
X85692070Y50633732D01*
X85250385Y50450779D01*
X84852878Y50185174D01*
X84514826Y49847122D01*
X84377000Y49640850D01*
X84377000Y52085948D01*
X84381724Y52086413D01*
X84556464Y52139420D01*
X84717505Y52225499D01*
X84858659Y52341341D01*
X84974501Y52482495D01*
X85060580Y52643536D01*
X85113587Y52818276D01*
X85131485Y53000000D01*
X85131485Y56000000D01*
X85113587Y56181724D01*
X85060580Y56356464D01*
X84974501Y56517505D01*
X84858659Y56658659D01*
X84717505Y56774501D01*
X84556464Y56860580D01*
X84381724Y56913587D01*
X84200000Y56931485D01*
X81200000Y56931485D01*
X81018276Y56913587D01*
X80843536Y56860580D01*
X80682495Y56774501D01*
X80541341Y56658659D01*
X80425499Y56517505D01*
X80339420Y56356464D01*
X80286413Y56181724D01*
X80268515Y56000000D01*
X80268515Y53000000D01*
X80286413Y52818276D01*
X80339420Y52643536D01*
X80425499Y52482495D01*
X80541341Y52341341D01*
X80682495Y52225499D01*
X80843536Y52139420D01*
X81018276Y52086413D01*
X81023000Y52085948D01*
X81023001Y36382393D01*
X81014886Y36300000D01*
X81047265Y35971251D01*
X81143158Y35655135D01*
X81298879Y35363801D01*
X81508444Y35108444D01*
X81763801Y34898879D01*
X82055135Y34743158D01*
X82371251Y34647265D01*
X82617617Y34623000D01*
X82617618Y34623000D01*
X82700000Y34614886D01*
X82782383Y34623000D01*
X84644704Y34623000D01*
X84852878Y34414826D01*
X85250385Y34149221D01*
X85692070Y33966268D01*
X86140852Y33877000D01*
X75877000Y33877000D01*
X75877000Y34544704D01*
X76085174Y34752878D01*
X76350779Y35150385D01*
X76533732Y35592070D01*
X76627000Y36060961D01*
X76627000Y36539039D01*
X76533732Y37007930D01*
X76350779Y37449615D01*
X76085174Y37847122D01*
X75747122Y38185174D01*
X75349615Y38450779D01*
X74907930Y38633732D01*
X74439039Y38727000D01*
X73960961Y38727000D01*
X73492070Y38633732D01*
X73050385Y38450779D01*
X72652878Y38185174D01*
X72314826Y37847122D01*
X72049221Y37449615D01*
X71866268Y37007930D01*
X71773000Y36539039D01*
X71773000Y36060961D01*
X71866268Y35592070D01*
X72049221Y35150385D01*
X72314826Y34752878D01*
X72523000Y34544704D01*
X72523001Y33877000D01*
X67377000Y33877000D01*
X67377000Y39488256D01*
X67390987Y39502243D01*
X67629233Y39858804D01*
X67793340Y40254992D01*
X67877000Y40675584D01*
X67877000Y41104416D01*
X67793340Y41525008D01*
X67629233Y41921196D01*
X67390987Y42277757D01*
X67087757Y42580987D01*
X66731196Y42819233D01*
X66335008Y42983340D01*
X65914416Y43067000D01*
X65485584Y43067000D01*
X65064992Y42983340D01*
X64668804Y42819233D01*
X64312243Y42580987D01*
X64308256Y42577000D01*
X43627000Y42577000D01*
X43627000Y46114416D01*
X51723000Y46114416D01*
X51723000Y45685584D01*
X51806660Y45264992D01*
X51970767Y44868804D01*
X52209013Y44512243D01*
X52512243Y44209013D01*
X52868804Y43970767D01*
X53264992Y43806660D01*
X53685584Y43723000D01*
X54114416Y43723000D01*
X54535008Y43806660D01*
X54931196Y43970767D01*
X55287757Y44209013D01*
X55590987Y44512243D01*
X55829233Y44868804D01*
X55993340Y45264992D01*
X56077000Y45685584D01*
X56077000Y46114416D01*
X55993340Y46535008D01*
X55829233Y46931196D01*
X55590987Y47287757D01*
X55327000Y47551744D01*
X55327000Y54745015D01*
X55497455Y54653905D01*
X55841846Y54549435D01*
X56200000Y54514160D01*
X56558155Y54549435D01*
X56902546Y54653905D01*
X57219938Y54823555D01*
X57498135Y55051865D01*
X57679616Y55273000D01*
X64273000Y55273000D01*
X64273001Y52170098D01*
X64266097Y52100000D01*
X64273001Y52029903D01*
X64273000Y50161744D01*
X64009013Y49897757D01*
X63770767Y49541196D01*
X63606660Y49145008D01*
X63523000Y48724416D01*
X63523000Y48295584D01*
X63606660Y47874992D01*
X63770767Y47478804D01*
X64009013Y47122243D01*
X64312243Y46819013D01*
X64668804Y46580767D01*
X65064992Y46416660D01*
X65485584Y46333000D01*
X65914416Y46333000D01*
X66335008Y46416660D01*
X66731196Y46580767D01*
X67087757Y46819013D01*
X67390987Y47122243D01*
X67629233Y47478804D01*
X67793340Y47874992D01*
X67877000Y48295584D01*
X67877000Y48724416D01*
X67793340Y49145008D01*
X67629233Y49541196D01*
X67390987Y49897757D01*
X67127000Y50161744D01*
X67127000Y50973000D01*
X72673000Y50973000D01*
X72673001Y50198619D01*
X72652878Y50185174D01*
X72314826Y49847122D01*
X72049221Y49449615D01*
X71866268Y49007930D01*
X71773000Y48539039D01*
X71773000Y48060961D01*
X71866268Y47592070D01*
X72049221Y47150385D01*
X72314826Y46752878D01*
X72652878Y46414826D01*
X73050385Y46149221D01*
X73492070Y45966268D01*
X73960961Y45873000D01*
X74439039Y45873000D01*
X74907930Y45966268D01*
X75349615Y46149221D01*
X75747122Y46414826D01*
X76085174Y46752878D01*
X76350779Y47150385D01*
X76523000Y47566162D01*
X76523000Y43977000D01*
X73955296Y43977000D01*
X73747122Y44185174D01*
X73349615Y44450779D01*
X72907930Y44633732D01*
X72439039Y44727000D01*
X71960961Y44727000D01*
X71492070Y44633732D01*
X71050385Y44450779D01*
X70652878Y44185174D01*
X70314826Y43847122D01*
X70049221Y43449615D01*
X69866268Y43007930D01*
X69773000Y42539039D01*
X69773000Y42060961D01*
X69866268Y41592070D01*
X70049221Y41150385D01*
X70314826Y40752878D01*
X70652878Y40414826D01*
X71050385Y40149221D01*
X71492070Y39966268D01*
X71960961Y39873000D01*
X72439039Y39873000D01*
X72907930Y39966268D01*
X73349615Y40149221D01*
X73747122Y40414826D01*
X73955296Y40623000D01*
X78117617Y40623000D01*
X78200000Y40614886D01*
X78282382Y40623000D01*
X78282383Y40623000D01*
X78528749Y40647265D01*
X78844865Y40743158D01*
X79136199Y40898879D01*
X79391556Y41108444D01*
X79601121Y41363801D01*
X79756842Y41655135D01*
X79852735Y41971251D01*
X79885114Y42300000D01*
X79877000Y42382383D01*
X79877000Y57903000D01*
X80944704Y57903000D01*
X81152878Y57694826D01*
X81550385Y57429221D01*
X81992070Y57246268D01*
X82460961Y57153000D01*
X82939039Y57153000D01*
X83407930Y57246268D01*
X83849615Y57429221D01*
X84247122Y57694826D01*
X84585174Y58032878D01*
X84850779Y58430385D01*
X85033732Y58872070D01*
X85127000Y59340961D01*
X85127000Y59819039D01*
X85033732Y60287930D01*
X84850779Y60729615D01*
X84585174Y61127122D01*
X84247122Y61465174D01*
X83849615Y61730779D01*
X83407930Y61913732D01*
X82939039Y62007000D01*
X82460961Y62007000D01*
X81992070Y61913732D01*
X81550385Y61730779D01*
X81152878Y61465174D01*
X80944704Y61257000D01*
X78762390Y61257000D01*
X78680000Y61265115D01*
X78351250Y61232735D01*
X78257642Y61204339D01*
X78035135Y61136842D01*
X77743801Y60981121D01*
X77488444Y60771556D01*
X77435920Y60707555D01*
X77072440Y60344075D01*
X77008445Y60291556D01*
X76827007Y60070472D01*
X76798880Y60036199D01*
X76643159Y59744865D01*
X76547266Y59428749D01*
X76514886Y59100000D01*
X76523001Y59017610D01*
X76523000Y49033838D01*
X76350779Y49449615D01*
X76085174Y49847122D01*
X75747122Y50185174D01*
X75527000Y50332254D01*
X75527000Y52329902D01*
X75533904Y52400000D01*
X75506352Y52679741D01*
X75424755Y52948731D01*
X75292248Y53196634D01*
X75113923Y53413923D01*
X74896634Y53592248D01*
X74648731Y53724755D01*
X74379741Y53806352D01*
X74170098Y53827000D01*
X74170097Y53827000D01*
X74100000Y53833904D01*
X74029902Y53827000D01*
X67127000Y53827000D01*
X67127000Y56629902D01*
X67133904Y56700000D01*
X67106352Y56979741D01*
X67024755Y57248731D01*
X66892248Y57496634D01*
X66713923Y57713923D01*
X66496634Y57892248D01*
X66248731Y58024755D01*
X65979741Y58106352D01*
X65770098Y58127000D01*
X65770097Y58127000D01*
X65700000Y58133904D01*
X65629902Y58127000D01*
X57679616Y58127000D01*
X57498135Y58348135D01*
X57219937Y58576445D01*
X56902545Y58746095D01*
X56558154Y58850565D01*
X56200000Y58885840D01*
X55841845Y58850565D01*
X55801485Y58838322D01*
X55801485Y59950000D01*
X55783587Y60131724D01*
X55730580Y60306464D01*
X55644501Y60467505D01*
X55528659Y60608659D01*
X55387505Y60724501D01*
X55226464Y60810580D01*
X55051724Y60863587D01*
X54870000Y60881485D01*
X53070000Y60881485D01*
X52888276Y60863587D01*
X52713536Y60810580D01*
X52552495Y60724501D01*
X52411341Y60608659D01*
X52295499Y60467505D01*
X52209420Y60306464D01*
X52156413Y60131724D01*
X52138515Y59950000D01*
X52138515Y58470186D01*
X51973000Y58398901D01*
X51973000Y56973000D01*
X51993000Y56973000D01*
X51993000Y56427000D01*
X51973000Y56427000D01*
X51973000Y55001099D01*
X52205938Y54900776D01*
X52415429Y54982035D01*
X52473001Y55019758D01*
X52473000Y47551744D01*
X52209013Y47287757D01*
X51970767Y46931196D01*
X51806660Y46535008D01*
X51723000Y46114416D01*
X43627000Y46114416D01*
X43627000Y46544704D01*
X43835174Y46752878D01*
X44100779Y47150385D01*
X44283732Y47592070D01*
X44377000Y48060961D01*
X44377000Y48539039D01*
X44283732Y49007930D01*
X44100779Y49449615D01*
X43835174Y49847122D01*
X43497122Y50185174D01*
X43099615Y50450779D01*
X42657930Y50633732D01*
X42189039Y50727000D01*
X41710961Y50727000D01*
X41242070Y50633732D01*
X40800385Y50450779D01*
X40402878Y50185174D01*
X40064826Y49847122D01*
X39799221Y49449615D01*
X39616268Y49007930D01*
X39523000Y48539039D01*
X39523000Y48060961D01*
X39616268Y47592070D01*
X39799221Y47150385D01*
X40064826Y46752878D01*
X40273001Y46544703D01*
X40273000Y41132380D01*
X40264886Y41050000D01*
X40273000Y40967620D01*
X40273000Y40967618D01*
X40297265Y40721252D01*
X40393158Y40405136D01*
X40548879Y40113802D01*
X40758444Y39858444D01*
X40822445Y39805920D01*
X40855920Y39772445D01*
X40908444Y39708444D01*
X41163801Y39498879D01*
X41455135Y39343158D01*
X41771251Y39247265D01*
X42017617Y39223000D01*
X42017619Y39223000D01*
X42099999Y39214886D01*
X42182379Y39223000D01*
X64023001Y39223000D01*
X64023000Y32382380D01*
X64014886Y32300000D01*
X64023000Y32217620D01*
X64023000Y32217618D01*
X64047265Y31971252D01*
X64143158Y31655136D01*
X64298879Y31363802D01*
X64508444Y31108444D01*
X64563369Y31063369D01*
X64608444Y31008444D01*
X64863801Y30798879D01*
X65155135Y30643158D01*
X65471251Y30547265D01*
X65717617Y30523000D01*
X65717619Y30523000D01*
X65799999Y30514886D01*
X65882379Y30523000D01*
X74617619Y30523000D01*
X74699999Y30514886D01*
X74782379Y30523000D01*
X91623001Y30523000D01*
X91623000Y13457000D01*
X88943899Y13457000D01*
X88832608Y13592608D01*
X88562025Y13814670D01*
X88253319Y13979677D01*
X87918353Y14081288D01*
X87570000Y14115598D01*
X87221648Y14081288D01*
X86886682Y13979677D01*
X86577976Y13814670D01*
X86307393Y13592608D01*
X86300001Y13583600D01*
X86292608Y13592608D01*
X86022025Y13814670D01*
X85713319Y13979677D01*
X85378353Y14081288D01*
X85030000Y14115598D01*
X84681648Y14081288D01*
X84346682Y13979677D01*
X84037976Y13814670D01*
X83767393Y13592608D01*
X83760001Y13583600D01*
X83752608Y13592608D01*
X83482025Y13814670D01*
X83173319Y13979677D01*
X82838353Y14081288D01*
X82490000Y14115598D01*
X82141648Y14081288D01*
X81806682Y13979677D01*
X81497976Y13814670D01*
X81227393Y13592608D01*
X81220001Y13583600D01*
X81212608Y13592608D01*
X80942025Y13814670D01*
X80633319Y13979677D01*
X80298353Y14081288D01*
X79950000Y14115598D01*
X79601648Y14081288D01*
X79266682Y13979677D01*
X78957976Y13814670D01*
X78687393Y13592608D01*
X78680001Y13583600D01*
X78672608Y13592608D01*
X78402025Y13814670D01*
X78093319Y13979677D01*
X77758353Y14081288D01*
X77410000Y14115598D01*
X77061648Y14081288D01*
X76726682Y13979677D01*
X76417976Y13814670D01*
X76147393Y13592608D01*
X76140001Y13583600D01*
X76132608Y13592608D01*
X75862025Y13814670D01*
X75553319Y13979677D01*
X75218353Y14081288D01*
X74870000Y14115598D01*
X74521648Y14081288D01*
X74186682Y13979677D01*
X73877976Y13814670D01*
X73607393Y13592608D01*
X73600001Y13583600D01*
X73592608Y13592608D01*
X73322025Y13814670D01*
X73013319Y13979677D01*
X72678353Y14081288D01*
X72330000Y14115598D01*
X71981648Y14081288D01*
X71646682Y13979677D01*
X71337976Y13814670D01*
X71317000Y13797455D01*
X71317000Y18939913D01*
X71323903Y19010001D01*
X71317000Y19080088D01*
X71317000Y19080098D01*
X71296352Y19289741D01*
X71214755Y19558731D01*
X71082248Y19806634D01*
X70903922Y20023923D01*
X70854493Y20064488D01*
X70813923Y20113923D01*
X70596634Y20292248D01*
X70348731Y20424755D01*
X70079741Y20506352D01*
X69870098Y20527000D01*
X69870088Y20527000D01*
X69800000Y20533903D01*
X69729912Y20527000D01*
X44527000Y20527000D01*
X44527000Y27657296D01*
X50233000Y27657296D01*
X50233000Y26382705D01*
X50258712Y26121648D01*
X50360323Y25786682D01*
X50525330Y25477976D01*
X50747392Y25207392D01*
X51017975Y24985330D01*
X51326681Y24820323D01*
X51661647Y24718712D01*
X52010000Y24684402D01*
X52358352Y24718712D01*
X52693318Y24820323D01*
X53002024Y24985330D01*
X53272608Y25207392D01*
X53280000Y25216399D01*
X53287392Y25207392D01*
X53557975Y24985330D01*
X53866681Y24820323D01*
X54201647Y24718712D01*
X54550000Y24684402D01*
X54898352Y24718712D01*
X55233318Y24820323D01*
X55542024Y24985330D01*
X55812608Y25207392D01*
X55820000Y25216399D01*
X55827392Y25207392D01*
X56097975Y24985330D01*
X56406681Y24820323D01*
X56741647Y24718712D01*
X57090000Y24684402D01*
X57438352Y24718712D01*
X57773318Y24820323D01*
X58082024Y24985330D01*
X58352608Y25207392D01*
X58360000Y25216399D01*
X58367392Y25207392D01*
X58637975Y24985330D01*
X58946681Y24820323D01*
X59281647Y24718712D01*
X59630000Y24684402D01*
X59978352Y24718712D01*
X60313318Y24820323D01*
X60622024Y24985330D01*
X60892608Y25207392D01*
X60900000Y25216399D01*
X60907392Y25207392D01*
X61177975Y24985330D01*
X61486681Y24820323D01*
X61821647Y24718712D01*
X62170000Y24684402D01*
X62518352Y24718712D01*
X62853318Y24820323D01*
X63162024Y24985330D01*
X63432608Y25207392D01*
X63440000Y25216399D01*
X63447392Y25207392D01*
X63717975Y24985330D01*
X64026681Y24820323D01*
X64361647Y24718712D01*
X64710000Y24684402D01*
X65058352Y24718712D01*
X65393318Y24820323D01*
X65702024Y24985330D01*
X65972608Y25207392D01*
X65980000Y25216399D01*
X65987392Y25207392D01*
X66257975Y24985330D01*
X66566681Y24820323D01*
X66901647Y24718712D01*
X67250000Y24684402D01*
X67598352Y24718712D01*
X67933318Y24820323D01*
X68242024Y24985330D01*
X68512608Y25207392D01*
X68520000Y25216399D01*
X68527392Y25207392D01*
X68797975Y24985330D01*
X69106681Y24820323D01*
X69441647Y24718712D01*
X69790000Y24684402D01*
X70138352Y24718712D01*
X70473318Y24820323D01*
X70782024Y24985330D01*
X71052608Y25207392D01*
X71060000Y25216399D01*
X71067392Y25207392D01*
X71337975Y24985330D01*
X71646681Y24820323D01*
X71981647Y24718712D01*
X72330000Y24684402D01*
X72678352Y24718712D01*
X73013318Y24820323D01*
X73322024Y24985330D01*
X73592608Y25207392D01*
X73600000Y25216399D01*
X73607392Y25207392D01*
X73877975Y24985330D01*
X74186681Y24820323D01*
X74521647Y24718712D01*
X74870000Y24684402D01*
X75218352Y24718712D01*
X75553318Y24820323D01*
X75862024Y24985330D01*
X76132608Y25207392D01*
X76140000Y25216399D01*
X76147392Y25207392D01*
X76417975Y24985330D01*
X76726681Y24820323D01*
X77061647Y24718712D01*
X77410000Y24684402D01*
X77758352Y24718712D01*
X78093318Y24820323D01*
X78402024Y24985330D01*
X78672608Y25207392D01*
X78856349Y25431281D01*
X78866939Y25417987D01*
X79092987Y25226906D01*
X79351970Y25083597D01*
X79452015Y25070988D01*
X79677000Y25172152D01*
X79677000Y26747000D01*
X79657000Y26747000D01*
X79657000Y27293000D01*
X79677000Y27293000D01*
X79677000Y28867848D01*
X80223000Y28867848D01*
X80223000Y27293000D01*
X80243000Y27293000D01*
X80243000Y26747000D01*
X80223000Y26747000D01*
X80223000Y25172152D01*
X80447985Y25070988D01*
X80548030Y25083597D01*
X80807013Y25226906D01*
X81033061Y25417987D01*
X81043651Y25431281D01*
X81227392Y25207392D01*
X81497975Y24985330D01*
X81806681Y24820323D01*
X82141647Y24718712D01*
X82490000Y24684402D01*
X82838352Y24718712D01*
X83173318Y24820323D01*
X83482024Y24985330D01*
X83752608Y25207392D01*
X83760000Y25216399D01*
X83767392Y25207392D01*
X84037975Y24985330D01*
X84346681Y24820323D01*
X84681647Y24718712D01*
X85030000Y24684402D01*
X85378352Y24718712D01*
X85713318Y24820323D01*
X86022024Y24985330D01*
X86033754Y24994956D01*
X86061341Y24961341D01*
X86202495Y24845499D01*
X86363536Y24759420D01*
X86538276Y24706413D01*
X86720000Y24688515D01*
X88420000Y24688515D01*
X88601724Y24706413D01*
X88776464Y24759420D01*
X88937505Y24845499D01*
X89078659Y24961341D01*
X89194501Y25102495D01*
X89280580Y25263536D01*
X89333587Y25438276D01*
X89351485Y25620000D01*
X89351485Y28420000D01*
X89333587Y28601724D01*
X89280580Y28776464D01*
X89194501Y28937505D01*
X89078659Y29078659D01*
X88937505Y29194501D01*
X88776464Y29280580D01*
X88601724Y29333587D01*
X88420000Y29351485D01*
X86720000Y29351485D01*
X86538276Y29333587D01*
X86363536Y29280580D01*
X86202495Y29194501D01*
X86061341Y29078659D01*
X86033754Y29045044D01*
X86022025Y29054670D01*
X85713319Y29219677D01*
X85378353Y29321288D01*
X85030000Y29355598D01*
X84681648Y29321288D01*
X84346682Y29219677D01*
X84037976Y29054670D01*
X83767393Y28832608D01*
X83760001Y28823600D01*
X83752608Y28832608D01*
X83482025Y29054670D01*
X83173319Y29219677D01*
X82838353Y29321288D01*
X82490000Y29355598D01*
X82141648Y29321288D01*
X81806682Y29219677D01*
X81497976Y29054670D01*
X81227393Y28832608D01*
X81043652Y28608719D01*
X81033061Y28622013D01*
X80807013Y28813094D01*
X80548030Y28956403D01*
X80447985Y28969012D01*
X80223000Y28867848D01*
X79677000Y28867848D01*
X79452015Y28969012D01*
X79351970Y28956403D01*
X79092987Y28813094D01*
X78866939Y28622013D01*
X78856349Y28608719D01*
X78672608Y28832608D01*
X78402025Y29054670D01*
X78093319Y29219677D01*
X77758353Y29321288D01*
X77410000Y29355598D01*
X77061648Y29321288D01*
X76726682Y29219677D01*
X76417976Y29054670D01*
X76147393Y28832608D01*
X76140001Y28823600D01*
X76132608Y28832608D01*
X75862025Y29054670D01*
X75553319Y29219677D01*
X75218353Y29321288D01*
X74870000Y29355598D01*
X74521648Y29321288D01*
X74186682Y29219677D01*
X73877976Y29054670D01*
X73607393Y28832608D01*
X73600001Y28823600D01*
X73592608Y28832608D01*
X73322025Y29054670D01*
X73013319Y29219677D01*
X72678353Y29321288D01*
X72330000Y29355598D01*
X71981648Y29321288D01*
X71646682Y29219677D01*
X71337976Y29054670D01*
X71067393Y28832608D01*
X71060001Y28823600D01*
X71052608Y28832608D01*
X70782025Y29054670D01*
X70473319Y29219677D01*
X70138353Y29321288D01*
X69790000Y29355598D01*
X69441648Y29321288D01*
X69106682Y29219677D01*
X68797976Y29054670D01*
X68527393Y28832608D01*
X68520001Y28823600D01*
X68512608Y28832608D01*
X68242025Y29054670D01*
X67933319Y29219677D01*
X67598353Y29321288D01*
X67250000Y29355598D01*
X66901648Y29321288D01*
X66566682Y29219677D01*
X66257976Y29054670D01*
X65987393Y28832608D01*
X65980001Y28823600D01*
X65972608Y28832608D01*
X65702025Y29054670D01*
X65393319Y29219677D01*
X65058353Y29321288D01*
X64710000Y29355598D01*
X64361648Y29321288D01*
X64026682Y29219677D01*
X63717976Y29054670D01*
X63447393Y28832608D01*
X63440001Y28823600D01*
X63432608Y28832608D01*
X63162025Y29054670D01*
X62853319Y29219677D01*
X62518353Y29321288D01*
X62170000Y29355598D01*
X61821648Y29321288D01*
X61486682Y29219677D01*
X61177976Y29054670D01*
X61057000Y28955387D01*
X61057000Y35199910D01*
X61063903Y35270000D01*
X61057000Y35340090D01*
X61057000Y35340098D01*
X61036352Y35549741D01*
X60954755Y35818731D01*
X60822248Y36066634D01*
X60729423Y36179741D01*
X60688608Y36229474D01*
X60688605Y36229477D01*
X60643922Y36283923D01*
X60589477Y36328605D01*
X60058610Y36859472D01*
X60013923Y36913923D01*
X59796634Y37092248D01*
X59548731Y37224755D01*
X59279741Y37306352D01*
X59070098Y37327000D01*
X59070088Y37327000D01*
X59000000Y37333903D01*
X58929912Y37327000D01*
X55551744Y37327000D01*
X55287757Y37590987D01*
X54931196Y37829233D01*
X54535008Y37993340D01*
X54114416Y38077000D01*
X53685584Y38077000D01*
X53264992Y37993340D01*
X52868804Y37829233D01*
X52512243Y37590987D01*
X52209013Y37287757D01*
X51970767Y36931196D01*
X51806660Y36535008D01*
X51723000Y36114416D01*
X51723000Y35685584D01*
X51806660Y35264992D01*
X51970767Y34868804D01*
X52209013Y34512243D01*
X52512243Y34209013D01*
X52868804Y33970767D01*
X53264992Y33806660D01*
X53685584Y33723000D01*
X54114416Y33723000D01*
X54535008Y33806660D01*
X54931196Y33970767D01*
X55287757Y34209013D01*
X55551744Y34473000D01*
X58203000Y34473000D01*
X58203001Y28955388D01*
X58082025Y29054670D01*
X57773319Y29219677D01*
X57438353Y29321288D01*
X57090000Y29355598D01*
X56741648Y29321288D01*
X56406682Y29219677D01*
X56097976Y29054670D01*
X55827393Y28832608D01*
X55820001Y28823600D01*
X55812608Y28832608D01*
X55542025Y29054670D01*
X55233319Y29219677D01*
X54898353Y29321288D01*
X54550000Y29355598D01*
X54201648Y29321288D01*
X53866682Y29219677D01*
X53557976Y29054670D01*
X53287393Y28832608D01*
X53280001Y28823600D01*
X53272608Y28832608D01*
X53002025Y29054670D01*
X52693319Y29219677D01*
X52358353Y29321288D01*
X52010000Y29355598D01*
X51661648Y29321288D01*
X51326682Y29219677D01*
X51017976Y29054670D01*
X50747393Y28832608D01*
X50525331Y28562025D01*
X50360323Y28253319D01*
X50258712Y27918353D01*
X50233000Y27657296D01*
X44527000Y27657296D01*
X44527000Y31029902D01*
X44533904Y31100000D01*
X44506352Y31379741D01*
X44424755Y31648731D01*
X44292248Y31896634D01*
X44113923Y32113923D01*
X43896634Y32292248D01*
X43648731Y32424755D01*
X43379741Y32506352D01*
X43170098Y32527000D01*
X43170097Y32527000D01*
X43100000Y32533904D01*
X43029902Y32527000D01*
X40579434Y32527000D01*
X40609994Y32564237D01*
X40788929Y32899001D01*
X40899117Y33262242D01*
X40936323Y33640000D01*
X40899117Y34017758D01*
X40788929Y34380999D01*
X40609994Y34715763D01*
X40369187Y35009187D01*
X40261939Y35097203D01*
X40406883Y35281457D01*
X40549493Y35658181D01*
X40450788Y35907000D01*
X38773000Y35907000D01*
X38773000Y35887000D01*
X38227000Y35887000D01*
X38227000Y35907000D01*
X36549212Y35907000D01*
X36450507Y35658181D01*
X36593117Y35281457D01*
X36738061Y35097203D01*
X36701258Y35067000D01*
X29410090Y35067000D01*
X29340000Y35073903D01*
X29269910Y35067000D01*
X29269902Y35067000D01*
X29084474Y35048737D01*
X29060258Y35046352D01*
X28987408Y35024253D01*
X28791269Y34964755D01*
X28543366Y34832248D01*
X28326077Y34653923D01*
X28281390Y34599472D01*
X27740523Y34058605D01*
X27686078Y34013923D01*
X27641396Y33959478D01*
X27641392Y33959474D01*
X27515981Y33806660D01*
X27507753Y33796634D01*
X27375246Y33548731D01*
X27293649Y33279741D01*
X27289361Y33236199D01*
X27266097Y33000000D01*
X27273001Y32929902D01*
X27273000Y16730882D01*
X27200000Y16738072D01*
X26631750Y16735000D01*
X26473000Y16576250D01*
X25927000Y16576250D01*
X25768250Y16735000D01*
X25200000Y16738072D01*
X25075518Y16725812D01*
X24955820Y16689502D01*
X24845506Y16630537D01*
X24748815Y16551185D01*
X24669463Y16454494D01*
X24610498Y16344180D01*
X24574188Y16224482D01*
X24561928Y16100000D01*
X952000Y16100000D01*
X952000Y36701819D01*
X36450507Y36701819D01*
X36549212Y36453000D01*
X38227000Y36453000D01*
X38227000Y37675085D01*
X38773000Y37675085D01*
X38773000Y36453000D01*
X40450788Y36453000D01*
X40549493Y36701819D01*
X40406883Y37078543D01*
X40204553Y37335747D01*
X39955933Y37548536D01*
X39670577Y37708733D01*
X39359451Y37810182D01*
X39034512Y37848984D01*
X38773000Y37675085D01*
X38227000Y37675085D01*
X37965488Y37848984D01*
X37640549Y37810182D01*
X37329423Y37708733D01*
X37044067Y37548536D01*
X36795447Y37335747D01*
X36593117Y37078543D01*
X36450507Y36701819D01*
X952000Y36701819D01*
X952000Y47499039D01*
X10973000Y47499039D01*
X10973000Y47020961D01*
X11066268Y46552070D01*
X11249221Y46110385D01*
X11514826Y45712878D01*
X11852878Y45374826D01*
X12250385Y45109221D01*
X12692070Y44926268D01*
X13160961Y44833000D01*
X13639039Y44833000D01*
X14107930Y44926268D01*
X14549615Y45109221D01*
X14884525Y45333000D01*
X22315352Y45333000D01*
X22410000Y45323678D01*
X22504648Y45333000D01*
X22504658Y45333000D01*
X22787758Y45360883D01*
X23150999Y45471071D01*
X23485763Y45650006D01*
X23779187Y45890813D01*
X23779303Y45890955D01*
X24157930Y45966268D01*
X24599615Y46149221D01*
X24997122Y46414826D01*
X25335174Y46752878D01*
X25600779Y47150385D01*
X25783732Y47592070D01*
X25877000Y48060961D01*
X25877000Y48539039D01*
X25783732Y49007930D01*
X25600779Y49449615D01*
X25335174Y49847122D01*
X24997122Y50185174D01*
X24599615Y50450779D01*
X24157930Y50633732D01*
X23689039Y50727000D01*
X23210961Y50727000D01*
X22742070Y50633732D01*
X22300385Y50450779D01*
X21902878Y50185174D01*
X21564826Y49847122D01*
X21299221Y49449615D01*
X21190442Y49187000D01*
X14884525Y49187000D01*
X14549615Y49410779D01*
X14107930Y49593732D01*
X13639039Y49687000D01*
X13160961Y49687000D01*
X12692070Y49593732D01*
X12250385Y49410779D01*
X11852878Y49145174D01*
X11514826Y48807122D01*
X11249221Y48409615D01*
X11066268Y47967930D01*
X10973000Y47499039D01*
X952000Y47499039D01*
X952000Y57659039D01*
X10973000Y57659039D01*
X10973000Y57180961D01*
X11066268Y56712070D01*
X11249221Y56270385D01*
X11473000Y55935475D01*
X11473001Y53824526D01*
X11249221Y53489615D01*
X11066268Y53047930D01*
X10973000Y52579039D01*
X10973000Y52100961D01*
X11066268Y51632070D01*
X11249221Y51190385D01*
X11514826Y50792878D01*
X11852878Y50454826D01*
X12250385Y50189221D01*
X12692070Y50006268D01*
X13160961Y49913000D01*
X13639039Y49913000D01*
X14107930Y50006268D01*
X14549615Y50189221D01*
X14947122Y50454826D01*
X15285174Y50792878D01*
X15550779Y51190385D01*
X15733732Y51632070D01*
X15827000Y52100961D01*
X15827000Y52579039D01*
X15733732Y53047930D01*
X15550779Y53489615D01*
X15327000Y53824525D01*
X15327000Y55935475D01*
X15493631Y56184857D01*
X50165108Y56184857D01*
X50226818Y55888588D01*
X50345142Y55610050D01*
X50515532Y55359948D01*
X50731441Y55147893D01*
X50984571Y54982035D01*
X51194062Y54900776D01*
X51427000Y55001099D01*
X51427000Y56427000D01*
X50316921Y56427000D01*
X50165108Y56184857D01*
X15493631Y56184857D01*
X15550779Y56270385D01*
X15733732Y56712070D01*
X15827000Y57180961D01*
X15827000Y57215143D01*
X50165108Y57215143D01*
X50316921Y56973000D01*
X51427000Y56973000D01*
X51427000Y58398901D01*
X51194062Y58499224D01*
X50984571Y58417965D01*
X50731441Y58252107D01*
X50515532Y58040052D01*
X50345142Y57789950D01*
X50226818Y57511412D01*
X50165108Y57215143D01*
X15827000Y57215143D01*
X15827000Y57659039D01*
X15733732Y58127930D01*
X15550779Y58569615D01*
X15285174Y58967122D01*
X14947122Y59305174D01*
X14549615Y59570779D01*
X14107930Y59753732D01*
X13639039Y59847000D01*
X13160961Y59847000D01*
X12692070Y59753732D01*
X12250385Y59570779D01*
X11852878Y59305174D01*
X11514826Y58967122D01*
X11249221Y58569615D01*
X11066268Y58127930D01*
X10973000Y57659039D01*
X952000Y57659039D01*
X952000Y64000000D01*
X10968515Y64000000D01*
X10968515Y61000000D01*
X10986413Y60818276D01*
X11039420Y60643536D01*
X11125499Y60482495D01*
X11241341Y60341341D01*
X11382495Y60225499D01*
X11543536Y60139420D01*
X11718276Y60086413D01*
X11900000Y60068515D01*
X14900000Y60068515D01*
X15081724Y60086413D01*
X15256464Y60139420D01*
X15417505Y60225499D01*
X15558659Y60341341D01*
X15674501Y60482495D01*
X15722877Y60573000D01*
X21207010Y60573000D01*
X21299221Y60350385D01*
X21564826Y59952878D01*
X21902878Y59614826D01*
X22300385Y59349221D01*
X22742070Y59166268D01*
X23210961Y59073000D01*
X23689039Y59073000D01*
X24157930Y59166268D01*
X24599615Y59349221D01*
X24997122Y59614826D01*
X25297859Y59915563D01*
X40751644Y59915563D01*
X40920119Y59618036D01*
X41307061Y59453277D01*
X41718711Y59367174D01*
X42139249Y59363033D01*
X42552514Y59441015D01*
X42942624Y59598122D01*
X42979881Y59618036D01*
X43148356Y59915563D01*
X41950000Y61113920D01*
X40751644Y59915563D01*
X25297859Y59915563D01*
X25335174Y59952878D01*
X25600779Y60350385D01*
X25783732Y60792070D01*
X25877000Y61260961D01*
X25877000Y61310751D01*
X39813033Y61310751D01*
X39891015Y60897486D01*
X40048122Y60507376D01*
X40068036Y60470119D01*
X40365563Y60301644D01*
X41563920Y61500000D01*
X42336080Y61500000D01*
X43534437Y60301644D01*
X43831964Y60470119D01*
X43996723Y60857061D01*
X44082826Y61268711D01*
X44086967Y61689249D01*
X44008985Y62102514D01*
X43851878Y62492624D01*
X43831964Y62529881D01*
X43534437Y62698356D01*
X42336080Y61500000D01*
X41563920Y61500000D01*
X40365563Y62698356D01*
X40068036Y62529881D01*
X39903277Y62142939D01*
X39817174Y61731289D01*
X39813033Y61310751D01*
X25877000Y61310751D01*
X25877000Y61739039D01*
X25783732Y62207930D01*
X25600779Y62649615D01*
X25335174Y63047122D01*
X25297859Y63084437D01*
X40751644Y63084437D01*
X41950000Y61886080D01*
X43148356Y63084437D01*
X42979881Y63381964D01*
X42592939Y63546723D01*
X42181289Y63632826D01*
X41760751Y63636967D01*
X41347486Y63558985D01*
X40957376Y63401878D01*
X40920119Y63381964D01*
X40751644Y63084437D01*
X25297859Y63084437D01*
X24997122Y63385174D01*
X24599615Y63650779D01*
X24157930Y63833732D01*
X23767841Y63911325D01*
X23525763Y64109994D01*
X23190999Y64288929D01*
X22827758Y64399117D01*
X22544658Y64427000D01*
X22544648Y64427000D01*
X22450000Y64436322D01*
X22355352Y64427000D01*
X15722877Y64427000D01*
X15674501Y64517505D01*
X15558659Y64658659D01*
X15417505Y64774501D01*
X15256464Y64860580D01*
X15081724Y64913587D01*
X14900000Y64931485D01*
X11900000Y64931485D01*
X11718276Y64913587D01*
X11543536Y64860580D01*
X11382495Y64774501D01*
X11241341Y64658659D01*
X11125499Y64517505D01*
X11039420Y64356464D01*
X10986413Y64181724D01*
X10968515Y64000000D01*
X952000Y64000000D01*
X952000Y70239039D01*
X2573000Y70239039D01*
X2573000Y69760961D01*
X2666268Y69292070D01*
X2849221Y68850385D01*
X3114826Y68452878D01*
X3452878Y68114826D01*
X3850385Y67849221D01*
X4292070Y67666268D01*
X4760961Y67573000D01*
X5239039Y67573000D01*
X5707930Y67666268D01*
X6149615Y67849221D01*
X6547122Y68114826D01*
X6885174Y68452878D01*
X7150779Y68850385D01*
X7333732Y69292070D01*
X7427000Y69760961D01*
X7427000Y70239039D01*
X92573000Y70239039D01*
X92573000Y69760961D01*
X92666268Y69292070D01*
X92849221Y68850385D01*
X93114826Y68452878D01*
X93452878Y68114826D01*
X93850385Y67849221D01*
X94292070Y67666268D01*
X94760961Y67573000D01*
X95239039Y67573000D01*
X95707930Y67666268D01*
X96149615Y67849221D01*
X96547122Y68114826D01*
X96885174Y68452878D01*
X97150779Y68850385D01*
X97333732Y69292070D01*
X97427000Y69760961D01*
X97427000Y70239039D01*
X97333732Y70707930D01*
X97150779Y71149615D01*
X96885174Y71547122D01*
X96547122Y71885174D01*
X96149615Y72150779D01*
X95707930Y72333732D01*
X95239039Y72427000D01*
X94760961Y72427000D01*
X94292070Y72333732D01*
X93850385Y72150779D01*
X93452878Y71885174D01*
X93114826Y71547122D01*
X92849221Y71149615D01*
X92666268Y70707930D01*
X92573000Y70239039D01*
X7427000Y70239039D01*
X7333732Y70707930D01*
X7150779Y71149615D01*
X6885174Y71547122D01*
X6547122Y71885174D01*
X6149615Y72150779D01*
X5707930Y72333732D01*
X5239039Y72427000D01*
X4760961Y72427000D01*
X4292070Y72333732D01*
X3850385Y72150779D01*
X3452878Y71885174D01*
X3114826Y71547122D01*
X2849221Y71149615D01*
X2666268Y70707930D01*
X2573000Y70239039D01*
X952000Y70239039D01*
X952000Y74048000D01*
X99048000Y74048000D01*
X99048001Y952000D01*
%TA.AperFunction,Conductor*%
D24*
G36*
X99048001Y952000D02*
G01*
X952000Y952000D01*
X952000Y5239039D01*
X2573000Y5239039D01*
X2573000Y4760961D01*
X2666268Y4292070D01*
X2849221Y3850385D01*
X3114826Y3452878D01*
X3452878Y3114826D01*
X3850385Y2849221D01*
X4292070Y2666268D01*
X4760961Y2573000D01*
X5239039Y2573000D01*
X5707930Y2666268D01*
X6149615Y2849221D01*
X6547122Y3114826D01*
X6885174Y3452878D01*
X7150779Y3850385D01*
X7333732Y4292070D01*
X7427000Y4760961D01*
X7427000Y5239039D01*
X93273000Y5239039D01*
X93273000Y4760961D01*
X93366268Y4292070D01*
X93549221Y3850385D01*
X93814826Y3452878D01*
X94152878Y3114826D01*
X94550385Y2849221D01*
X94992070Y2666268D01*
X95460961Y2573000D01*
X95939039Y2573000D01*
X96407930Y2666268D01*
X96849615Y2849221D01*
X97247122Y3114826D01*
X97585174Y3452878D01*
X97850779Y3850385D01*
X98033732Y4292070D01*
X98127000Y4760961D01*
X98127000Y5239039D01*
X98033732Y5707930D01*
X97850779Y6149615D01*
X97585174Y6547122D01*
X97247122Y6885174D01*
X96849615Y7150779D01*
X96407930Y7333732D01*
X95939039Y7427000D01*
X95460961Y7427000D01*
X94992070Y7333732D01*
X94550385Y7150779D01*
X94152878Y6885174D01*
X93814826Y6547122D01*
X93549221Y6149615D01*
X93366268Y5707930D01*
X93273000Y5239039D01*
X7427000Y5239039D01*
X7333732Y5707930D01*
X7150779Y6149615D01*
X6885174Y6547122D01*
X6547122Y6885174D01*
X6149615Y7150779D01*
X5707930Y7333732D01*
X5239039Y7427000D01*
X4760961Y7427000D01*
X4292070Y7333732D01*
X3850385Y7150779D01*
X3452878Y6885174D01*
X3114826Y6547122D01*
X2849221Y6149615D01*
X2666268Y5707930D01*
X2573000Y5239039D01*
X952000Y5239039D01*
X952000Y13100000D01*
X24561928Y13100000D01*
X24574188Y12975518D01*
X24610498Y12855820D01*
X24669463Y12745506D01*
X24748815Y12648815D01*
X24845506Y12569463D01*
X24955820Y12510498D01*
X25075518Y12474188D01*
X25200000Y12461928D01*
X25768250Y12465000D01*
X25927000Y12623750D01*
X25927000Y14327000D01*
X24723750Y14327000D01*
X24565000Y14168250D01*
X24561928Y13100000D01*
X952000Y13100000D01*
X952000Y16100000D01*
X24561928Y16100000D01*
X24565000Y15031750D01*
X24723750Y14873000D01*
X25927000Y14873000D01*
X25927000Y16576250D01*
X26473000Y16576250D01*
X26473000Y14873000D01*
X26493000Y14873000D01*
X26493000Y14327000D01*
X26473000Y14327000D01*
X26473000Y12623750D01*
X26631750Y12465000D01*
X27200000Y12461928D01*
X27273001Y12469118D01*
X27273000Y6870098D01*
X27266096Y6800000D01*
X27293648Y6520259D01*
X27375245Y6251269D01*
X27507752Y6003366D01*
X27686077Y5786077D01*
X27882051Y5625245D01*
X27903366Y5607752D01*
X28151269Y5475245D01*
X28420259Y5393648D01*
X28700000Y5366096D01*
X28770097Y5373000D01*
X79729912Y5373000D01*
X79800000Y5366097D01*
X79870088Y5373000D01*
X79870098Y5373000D01*
X80079741Y5393648D01*
X80348731Y5475245D01*
X80596634Y5607752D01*
X80813923Y5786077D01*
X80858610Y5840528D01*
X80909472Y5891390D01*
X80963923Y5936077D01*
X81142248Y6153366D01*
X81274755Y6401269D01*
X81356352Y6670259D01*
X81377000Y6879902D01*
X81377000Y6879912D01*
X81383903Y6949999D01*
X81377000Y7020087D01*
X81377000Y9844612D01*
X81497975Y9745330D01*
X81806681Y9580323D01*
X82141647Y9478712D01*
X82490000Y9444402D01*
X82838352Y9478712D01*
X83173318Y9580323D01*
X83482024Y9745330D01*
X83752608Y9967392D01*
X83760000Y9976399D01*
X83767392Y9967392D01*
X84037975Y9745330D01*
X84346681Y9580323D01*
X84681647Y9478712D01*
X85030000Y9444402D01*
X85378352Y9478712D01*
X85713318Y9580323D01*
X86022024Y9745330D01*
X86292608Y9967392D01*
X86300000Y9976399D01*
X86307392Y9967392D01*
X86577975Y9745330D01*
X86886681Y9580323D01*
X87221647Y9478712D01*
X87570000Y9444402D01*
X87918352Y9478712D01*
X88253318Y9580323D01*
X88562024Y9745330D01*
X88832608Y9967392D01*
X88943899Y10103000D01*
X92837620Y10103000D01*
X92920000Y10094886D01*
X93002380Y10103000D01*
X93002383Y10103000D01*
X93248749Y10127265D01*
X93564865Y10223158D01*
X93856199Y10378879D01*
X94111556Y10588444D01*
X94164080Y10652445D01*
X94427556Y10915921D01*
X94491556Y10968444D01*
X94701121Y11223801D01*
X94856842Y11515135D01*
X94952735Y11831251D01*
X94977000Y12077617D01*
X94977000Y12077619D01*
X94985114Y12159999D01*
X94977000Y12242379D01*
X94977000Y32117617D01*
X94985114Y32200000D01*
X94952735Y32528749D01*
X94856842Y32844865D01*
X94701121Y33136199D01*
X94491556Y33391556D01*
X94236199Y33601121D01*
X93944865Y33756842D01*
X93628749Y33852735D01*
X93382383Y33877000D01*
X93300000Y33885114D01*
X93217618Y33877000D01*
X86659148Y33877000D01*
X87107930Y33966268D01*
X87549615Y34149221D01*
X87947122Y34414826D01*
X88285174Y34752878D01*
X88550779Y35150385D01*
X88733732Y35592070D01*
X88827000Y36060961D01*
X88827000Y36539039D01*
X88733732Y37007930D01*
X88550779Y37449615D01*
X88285174Y37847122D01*
X87947122Y38185174D01*
X87549615Y38450779D01*
X87107930Y38633732D01*
X86639039Y38727000D01*
X86160961Y38727000D01*
X85692070Y38633732D01*
X85250385Y38450779D01*
X84852878Y38185174D01*
X84644704Y37977000D01*
X84377000Y37977000D01*
X84377000Y46959150D01*
X84514826Y46752878D01*
X84852878Y46414826D01*
X85250385Y46149221D01*
X85692070Y45966268D01*
X86160961Y45873000D01*
X86639039Y45873000D01*
X87107930Y45966268D01*
X87549615Y46149221D01*
X87947122Y46414826D01*
X88285174Y46752878D01*
X88550779Y47150385D01*
X88733732Y47592070D01*
X88827000Y48060961D01*
X88827000Y48539039D01*
X88733732Y49007930D01*
X88550779Y49449615D01*
X88285174Y49847122D01*
X87947122Y50185174D01*
X87549615Y50450779D01*
X87107930Y50633732D01*
X86639039Y50727000D01*
X86160961Y50727000D01*
X85692070Y50633732D01*
X85250385Y50450779D01*
X84852878Y50185174D01*
X84514826Y49847122D01*
X84377000Y49640850D01*
X84377000Y52085948D01*
X84381724Y52086413D01*
X84556464Y52139420D01*
X84717505Y52225499D01*
X84858659Y52341341D01*
X84974501Y52482495D01*
X85060580Y52643536D01*
X85113587Y52818276D01*
X85131485Y53000000D01*
X85131485Y56000000D01*
X85113587Y56181724D01*
X85060580Y56356464D01*
X84974501Y56517505D01*
X84858659Y56658659D01*
X84717505Y56774501D01*
X84556464Y56860580D01*
X84381724Y56913587D01*
X84200000Y56931485D01*
X81200000Y56931485D01*
X81018276Y56913587D01*
X80843536Y56860580D01*
X80682495Y56774501D01*
X80541341Y56658659D01*
X80425499Y56517505D01*
X80339420Y56356464D01*
X80286413Y56181724D01*
X80268515Y56000000D01*
X80268515Y53000000D01*
X80286413Y52818276D01*
X80339420Y52643536D01*
X80425499Y52482495D01*
X80541341Y52341341D01*
X80682495Y52225499D01*
X80843536Y52139420D01*
X81018276Y52086413D01*
X81023000Y52085948D01*
X81023001Y36382393D01*
X81014886Y36300000D01*
X81047265Y35971251D01*
X81143158Y35655135D01*
X81298879Y35363801D01*
X81508444Y35108444D01*
X81763801Y34898879D01*
X82055135Y34743158D01*
X82371251Y34647265D01*
X82617617Y34623000D01*
X82617618Y34623000D01*
X82700000Y34614886D01*
X82782383Y34623000D01*
X84644704Y34623000D01*
X84852878Y34414826D01*
X85250385Y34149221D01*
X85692070Y33966268D01*
X86140852Y33877000D01*
X75877000Y33877000D01*
X75877000Y34544704D01*
X76085174Y34752878D01*
X76350779Y35150385D01*
X76533732Y35592070D01*
X76627000Y36060961D01*
X76627000Y36539039D01*
X76533732Y37007930D01*
X76350779Y37449615D01*
X76085174Y37847122D01*
X75747122Y38185174D01*
X75349615Y38450779D01*
X74907930Y38633732D01*
X74439039Y38727000D01*
X73960961Y38727000D01*
X73492070Y38633732D01*
X73050385Y38450779D01*
X72652878Y38185174D01*
X72314826Y37847122D01*
X72049221Y37449615D01*
X71866268Y37007930D01*
X71773000Y36539039D01*
X71773000Y36060961D01*
X71866268Y35592070D01*
X72049221Y35150385D01*
X72314826Y34752878D01*
X72523000Y34544704D01*
X72523001Y33877000D01*
X67377000Y33877000D01*
X67377000Y39488256D01*
X67390987Y39502243D01*
X67629233Y39858804D01*
X67793340Y40254992D01*
X67877000Y40675584D01*
X67877000Y41104416D01*
X67793340Y41525008D01*
X67629233Y41921196D01*
X67390987Y42277757D01*
X67087757Y42580987D01*
X66731196Y42819233D01*
X66335008Y42983340D01*
X65914416Y43067000D01*
X65485584Y43067000D01*
X65064992Y42983340D01*
X64668804Y42819233D01*
X64312243Y42580987D01*
X64308256Y42577000D01*
X43627000Y42577000D01*
X43627000Y46114416D01*
X51723000Y46114416D01*
X51723000Y45685584D01*
X51806660Y45264992D01*
X51970767Y44868804D01*
X52209013Y44512243D01*
X52512243Y44209013D01*
X52868804Y43970767D01*
X53264992Y43806660D01*
X53685584Y43723000D01*
X54114416Y43723000D01*
X54535008Y43806660D01*
X54931196Y43970767D01*
X55287757Y44209013D01*
X55590987Y44512243D01*
X55829233Y44868804D01*
X55993340Y45264992D01*
X56077000Y45685584D01*
X56077000Y46114416D01*
X55993340Y46535008D01*
X55829233Y46931196D01*
X55590987Y47287757D01*
X55327000Y47551744D01*
X55327000Y54745015D01*
X55497455Y54653905D01*
X55841846Y54549435D01*
X56200000Y54514160D01*
X56558155Y54549435D01*
X56902546Y54653905D01*
X57219938Y54823555D01*
X57498135Y55051865D01*
X57679616Y55273000D01*
X64273000Y55273000D01*
X64273001Y52170098D01*
X64266097Y52100000D01*
X64273001Y52029903D01*
X64273000Y50161744D01*
X64009013Y49897757D01*
X63770767Y49541196D01*
X63606660Y49145008D01*
X63523000Y48724416D01*
X63523000Y48295584D01*
X63606660Y47874992D01*
X63770767Y47478804D01*
X64009013Y47122243D01*
X64312243Y46819013D01*
X64668804Y46580767D01*
X65064992Y46416660D01*
X65485584Y46333000D01*
X65914416Y46333000D01*
X66335008Y46416660D01*
X66731196Y46580767D01*
X67087757Y46819013D01*
X67390987Y47122243D01*
X67629233Y47478804D01*
X67793340Y47874992D01*
X67877000Y48295584D01*
X67877000Y48724416D01*
X67793340Y49145008D01*
X67629233Y49541196D01*
X67390987Y49897757D01*
X67127000Y50161744D01*
X67127000Y50973000D01*
X72673000Y50973000D01*
X72673001Y50198619D01*
X72652878Y50185174D01*
X72314826Y49847122D01*
X72049221Y49449615D01*
X71866268Y49007930D01*
X71773000Y48539039D01*
X71773000Y48060961D01*
X71866268Y47592070D01*
X72049221Y47150385D01*
X72314826Y46752878D01*
X72652878Y46414826D01*
X73050385Y46149221D01*
X73492070Y45966268D01*
X73960961Y45873000D01*
X74439039Y45873000D01*
X74907930Y45966268D01*
X75349615Y46149221D01*
X75747122Y46414826D01*
X76085174Y46752878D01*
X76350779Y47150385D01*
X76523000Y47566162D01*
X76523000Y43977000D01*
X73955296Y43977000D01*
X73747122Y44185174D01*
X73349615Y44450779D01*
X72907930Y44633732D01*
X72439039Y44727000D01*
X71960961Y44727000D01*
X71492070Y44633732D01*
X71050385Y44450779D01*
X70652878Y44185174D01*
X70314826Y43847122D01*
X70049221Y43449615D01*
X69866268Y43007930D01*
X69773000Y42539039D01*
X69773000Y42060961D01*
X69866268Y41592070D01*
X70049221Y41150385D01*
X70314826Y40752878D01*
X70652878Y40414826D01*
X71050385Y40149221D01*
X71492070Y39966268D01*
X71960961Y39873000D01*
X72439039Y39873000D01*
X72907930Y39966268D01*
X73349615Y40149221D01*
X73747122Y40414826D01*
X73955296Y40623000D01*
X78117617Y40623000D01*
X78200000Y40614886D01*
X78282382Y40623000D01*
X78282383Y40623000D01*
X78528749Y40647265D01*
X78844865Y40743158D01*
X79136199Y40898879D01*
X79391556Y41108444D01*
X79601121Y41363801D01*
X79756842Y41655135D01*
X79852735Y41971251D01*
X79885114Y42300000D01*
X79877000Y42382383D01*
X79877000Y57903000D01*
X80944704Y57903000D01*
X81152878Y57694826D01*
X81550385Y57429221D01*
X81992070Y57246268D01*
X82460961Y57153000D01*
X82939039Y57153000D01*
X83407930Y57246268D01*
X83849615Y57429221D01*
X84247122Y57694826D01*
X84585174Y58032878D01*
X84850779Y58430385D01*
X85033732Y58872070D01*
X85127000Y59340961D01*
X85127000Y59819039D01*
X85033732Y60287930D01*
X84850779Y60729615D01*
X84585174Y61127122D01*
X84247122Y61465174D01*
X83849615Y61730779D01*
X83407930Y61913732D01*
X82939039Y62007000D01*
X82460961Y62007000D01*
X81992070Y61913732D01*
X81550385Y61730779D01*
X81152878Y61465174D01*
X80944704Y61257000D01*
X78762390Y61257000D01*
X78680000Y61265115D01*
X78351250Y61232735D01*
X78257642Y61204339D01*
X78035135Y61136842D01*
X77743801Y60981121D01*
X77488444Y60771556D01*
X77435920Y60707555D01*
X77072440Y60344075D01*
X77008445Y60291556D01*
X76827007Y60070472D01*
X76798880Y60036199D01*
X76643159Y59744865D01*
X76547266Y59428749D01*
X76514886Y59100000D01*
X76523001Y59017610D01*
X76523000Y49033838D01*
X76350779Y49449615D01*
X76085174Y49847122D01*
X75747122Y50185174D01*
X75527000Y50332254D01*
X75527000Y52329902D01*
X75533904Y52400000D01*
X75506352Y52679741D01*
X75424755Y52948731D01*
X75292248Y53196634D01*
X75113923Y53413923D01*
X74896634Y53592248D01*
X74648731Y53724755D01*
X74379741Y53806352D01*
X74170098Y53827000D01*
X74170097Y53827000D01*
X74100000Y53833904D01*
X74029902Y53827000D01*
X67127000Y53827000D01*
X67127000Y56629902D01*
X67133904Y56700000D01*
X67106352Y56979741D01*
X67024755Y57248731D01*
X66892248Y57496634D01*
X66713923Y57713923D01*
X66496634Y57892248D01*
X66248731Y58024755D01*
X65979741Y58106352D01*
X65770098Y58127000D01*
X65770097Y58127000D01*
X65700000Y58133904D01*
X65629902Y58127000D01*
X57679616Y58127000D01*
X57498135Y58348135D01*
X57219937Y58576445D01*
X56902545Y58746095D01*
X56558154Y58850565D01*
X56200000Y58885840D01*
X55841845Y58850565D01*
X55801485Y58838322D01*
X55801485Y59950000D01*
X55783587Y60131724D01*
X55730580Y60306464D01*
X55644501Y60467505D01*
X55528659Y60608659D01*
X55387505Y60724501D01*
X55226464Y60810580D01*
X55051724Y60863587D01*
X54870000Y60881485D01*
X53070000Y60881485D01*
X52888276Y60863587D01*
X52713536Y60810580D01*
X52552495Y60724501D01*
X52411341Y60608659D01*
X52295499Y60467505D01*
X52209420Y60306464D01*
X52156413Y60131724D01*
X52138515Y59950000D01*
X52138515Y58470186D01*
X51973000Y58398901D01*
X51973000Y56973000D01*
X51993000Y56973000D01*
X51993000Y56427000D01*
X51973000Y56427000D01*
X51973000Y55001099D01*
X52205938Y54900776D01*
X52415429Y54982035D01*
X52473001Y55019758D01*
X52473000Y47551744D01*
X52209013Y47287757D01*
X51970767Y46931196D01*
X51806660Y46535008D01*
X51723000Y46114416D01*
X43627000Y46114416D01*
X43627000Y46544704D01*
X43835174Y46752878D01*
X44100779Y47150385D01*
X44283732Y47592070D01*
X44377000Y48060961D01*
X44377000Y48539039D01*
X44283732Y49007930D01*
X44100779Y49449615D01*
X43835174Y49847122D01*
X43497122Y50185174D01*
X43099615Y50450779D01*
X42657930Y50633732D01*
X42189039Y50727000D01*
X41710961Y50727000D01*
X41242070Y50633732D01*
X40800385Y50450779D01*
X40402878Y50185174D01*
X40064826Y49847122D01*
X39799221Y49449615D01*
X39616268Y49007930D01*
X39523000Y48539039D01*
X39523000Y48060961D01*
X39616268Y47592070D01*
X39799221Y47150385D01*
X40064826Y46752878D01*
X40273001Y46544703D01*
X40273000Y41132380D01*
X40264886Y41050000D01*
X40273000Y40967620D01*
X40273000Y40967618D01*
X40297265Y40721252D01*
X40393158Y40405136D01*
X40548879Y40113802D01*
X40758444Y39858444D01*
X40822445Y39805920D01*
X40855920Y39772445D01*
X40908444Y39708444D01*
X41163801Y39498879D01*
X41455135Y39343158D01*
X41771251Y39247265D01*
X42017617Y39223000D01*
X42017619Y39223000D01*
X42099999Y39214886D01*
X42182379Y39223000D01*
X64023001Y39223000D01*
X64023000Y32382380D01*
X64014886Y32300000D01*
X64023000Y32217620D01*
X64023000Y32217618D01*
X64047265Y31971252D01*
X64143158Y31655136D01*
X64298879Y31363802D01*
X64508444Y31108444D01*
X64563369Y31063369D01*
X64608444Y31008444D01*
X64863801Y30798879D01*
X65155135Y30643158D01*
X65471251Y30547265D01*
X65717617Y30523000D01*
X65717619Y30523000D01*
X65799999Y30514886D01*
X65882379Y30523000D01*
X74617619Y30523000D01*
X74699999Y30514886D01*
X74782379Y30523000D01*
X91623001Y30523000D01*
X91623000Y13457000D01*
X88943899Y13457000D01*
X88832608Y13592608D01*
X88562025Y13814670D01*
X88253319Y13979677D01*
X87918353Y14081288D01*
X87570000Y14115598D01*
X87221648Y14081288D01*
X86886682Y13979677D01*
X86577976Y13814670D01*
X86307393Y13592608D01*
X86300001Y13583600D01*
X86292608Y13592608D01*
X86022025Y13814670D01*
X85713319Y13979677D01*
X85378353Y14081288D01*
X85030000Y14115598D01*
X84681648Y14081288D01*
X84346682Y13979677D01*
X84037976Y13814670D01*
X83767393Y13592608D01*
X83760001Y13583600D01*
X83752608Y13592608D01*
X83482025Y13814670D01*
X83173319Y13979677D01*
X82838353Y14081288D01*
X82490000Y14115598D01*
X82141648Y14081288D01*
X81806682Y13979677D01*
X81497976Y13814670D01*
X81227393Y13592608D01*
X81220001Y13583600D01*
X81212608Y13592608D01*
X80942025Y13814670D01*
X80633319Y13979677D01*
X80298353Y14081288D01*
X79950000Y14115598D01*
X79601648Y14081288D01*
X79266682Y13979677D01*
X78957976Y13814670D01*
X78687393Y13592608D01*
X78680001Y13583600D01*
X78672608Y13592608D01*
X78402025Y13814670D01*
X78093319Y13979677D01*
X77758353Y14081288D01*
X77410000Y14115598D01*
X77061648Y14081288D01*
X76726682Y13979677D01*
X76417976Y13814670D01*
X76147393Y13592608D01*
X76140001Y13583600D01*
X76132608Y13592608D01*
X75862025Y13814670D01*
X75553319Y13979677D01*
X75218353Y14081288D01*
X74870000Y14115598D01*
X74521648Y14081288D01*
X74186682Y13979677D01*
X73877976Y13814670D01*
X73607393Y13592608D01*
X73600001Y13583600D01*
X73592608Y13592608D01*
X73322025Y13814670D01*
X73013319Y13979677D01*
X72678353Y14081288D01*
X72330000Y14115598D01*
X71981648Y14081288D01*
X71646682Y13979677D01*
X71337976Y13814670D01*
X71317000Y13797455D01*
X71317000Y18939913D01*
X71323903Y19010001D01*
X71317000Y19080088D01*
X71317000Y19080098D01*
X71296352Y19289741D01*
X71214755Y19558731D01*
X71082248Y19806634D01*
X70903922Y20023923D01*
X70854493Y20064488D01*
X70813923Y20113923D01*
X70596634Y20292248D01*
X70348731Y20424755D01*
X70079741Y20506352D01*
X69870098Y20527000D01*
X69870088Y20527000D01*
X69800000Y20533903D01*
X69729912Y20527000D01*
X44527000Y20527000D01*
X44527000Y27657296D01*
X50233000Y27657296D01*
X50233000Y26382705D01*
X50258712Y26121648D01*
X50360323Y25786682D01*
X50525330Y25477976D01*
X50747392Y25207392D01*
X51017975Y24985330D01*
X51326681Y24820323D01*
X51661647Y24718712D01*
X52010000Y24684402D01*
X52358352Y24718712D01*
X52693318Y24820323D01*
X53002024Y24985330D01*
X53272608Y25207392D01*
X53280000Y25216399D01*
X53287392Y25207392D01*
X53557975Y24985330D01*
X53866681Y24820323D01*
X54201647Y24718712D01*
X54550000Y24684402D01*
X54898352Y24718712D01*
X55233318Y24820323D01*
X55542024Y24985330D01*
X55812608Y25207392D01*
X55820000Y25216399D01*
X55827392Y25207392D01*
X56097975Y24985330D01*
X56406681Y24820323D01*
X56741647Y24718712D01*
X57090000Y24684402D01*
X57438352Y24718712D01*
X57773318Y24820323D01*
X58082024Y24985330D01*
X58352608Y25207392D01*
X58360000Y25216399D01*
X58367392Y25207392D01*
X58637975Y24985330D01*
X58946681Y24820323D01*
X59281647Y24718712D01*
X59630000Y24684402D01*
X59978352Y24718712D01*
X60313318Y24820323D01*
X60622024Y24985330D01*
X60892608Y25207392D01*
X60900000Y25216399D01*
X60907392Y25207392D01*
X61177975Y24985330D01*
X61486681Y24820323D01*
X61821647Y24718712D01*
X62170000Y24684402D01*
X62518352Y24718712D01*
X62853318Y24820323D01*
X63162024Y24985330D01*
X63432608Y25207392D01*
X63440000Y25216399D01*
X63447392Y25207392D01*
X63717975Y24985330D01*
X64026681Y24820323D01*
X64361647Y24718712D01*
X64710000Y24684402D01*
X65058352Y24718712D01*
X65393318Y24820323D01*
X65702024Y24985330D01*
X65972608Y25207392D01*
X65980000Y25216399D01*
X65987392Y25207392D01*
X66257975Y24985330D01*
X66566681Y24820323D01*
X66901647Y24718712D01*
X67250000Y24684402D01*
X67598352Y24718712D01*
X67933318Y24820323D01*
X68242024Y24985330D01*
X68512608Y25207392D01*
X68520000Y25216399D01*
X68527392Y25207392D01*
X68797975Y24985330D01*
X69106681Y24820323D01*
X69441647Y24718712D01*
X69790000Y24684402D01*
X70138352Y24718712D01*
X70473318Y24820323D01*
X70782024Y24985330D01*
X71052608Y25207392D01*
X71060000Y25216399D01*
X71067392Y25207392D01*
X71337975Y24985330D01*
X71646681Y24820323D01*
X71981647Y24718712D01*
X72330000Y24684402D01*
X72678352Y24718712D01*
X73013318Y24820323D01*
X73322024Y24985330D01*
X73592608Y25207392D01*
X73600000Y25216399D01*
X73607392Y25207392D01*
X73877975Y24985330D01*
X74186681Y24820323D01*
X74521647Y24718712D01*
X74870000Y24684402D01*
X75218352Y24718712D01*
X75553318Y24820323D01*
X75862024Y24985330D01*
X76132608Y25207392D01*
X76140000Y25216399D01*
X76147392Y25207392D01*
X76417975Y24985330D01*
X76726681Y24820323D01*
X77061647Y24718712D01*
X77410000Y24684402D01*
X77758352Y24718712D01*
X78093318Y24820323D01*
X78402024Y24985330D01*
X78672608Y25207392D01*
X78856349Y25431281D01*
X78866939Y25417987D01*
X79092987Y25226906D01*
X79351970Y25083597D01*
X79452015Y25070988D01*
X79677000Y25172152D01*
X79677000Y26747000D01*
X79657000Y26747000D01*
X79657000Y27293000D01*
X79677000Y27293000D01*
X79677000Y28867848D01*
X80223000Y28867848D01*
X80223000Y27293000D01*
X80243000Y27293000D01*
X80243000Y26747000D01*
X80223000Y26747000D01*
X80223000Y25172152D01*
X80447985Y25070988D01*
X80548030Y25083597D01*
X80807013Y25226906D01*
X81033061Y25417987D01*
X81043651Y25431281D01*
X81227392Y25207392D01*
X81497975Y24985330D01*
X81806681Y24820323D01*
X82141647Y24718712D01*
X82490000Y24684402D01*
X82838352Y24718712D01*
X83173318Y24820323D01*
X83482024Y24985330D01*
X83752608Y25207392D01*
X83760000Y25216399D01*
X83767392Y25207392D01*
X84037975Y24985330D01*
X84346681Y24820323D01*
X84681647Y24718712D01*
X85030000Y24684402D01*
X85378352Y24718712D01*
X85713318Y24820323D01*
X86022024Y24985330D01*
X86033754Y24994956D01*
X86061341Y24961341D01*
X86202495Y24845499D01*
X86363536Y24759420D01*
X86538276Y24706413D01*
X86720000Y24688515D01*
X88420000Y24688515D01*
X88601724Y24706413D01*
X88776464Y24759420D01*
X88937505Y24845499D01*
X89078659Y24961341D01*
X89194501Y25102495D01*
X89280580Y25263536D01*
X89333587Y25438276D01*
X89351485Y25620000D01*
X89351485Y28420000D01*
X89333587Y28601724D01*
X89280580Y28776464D01*
X89194501Y28937505D01*
X89078659Y29078659D01*
X88937505Y29194501D01*
X88776464Y29280580D01*
X88601724Y29333587D01*
X88420000Y29351485D01*
X86720000Y29351485D01*
X86538276Y29333587D01*
X86363536Y29280580D01*
X86202495Y29194501D01*
X86061341Y29078659D01*
X86033754Y29045044D01*
X86022025Y29054670D01*
X85713319Y29219677D01*
X85378353Y29321288D01*
X85030000Y29355598D01*
X84681648Y29321288D01*
X84346682Y29219677D01*
X84037976Y29054670D01*
X83767393Y28832608D01*
X83760001Y28823600D01*
X83752608Y28832608D01*
X83482025Y29054670D01*
X83173319Y29219677D01*
X82838353Y29321288D01*
X82490000Y29355598D01*
X82141648Y29321288D01*
X81806682Y29219677D01*
X81497976Y29054670D01*
X81227393Y28832608D01*
X81043652Y28608719D01*
X81033061Y28622013D01*
X80807013Y28813094D01*
X80548030Y28956403D01*
X80447985Y28969012D01*
X80223000Y28867848D01*
X79677000Y28867848D01*
X79452015Y28969012D01*
X79351970Y28956403D01*
X79092987Y28813094D01*
X78866939Y28622013D01*
X78856349Y28608719D01*
X78672608Y28832608D01*
X78402025Y29054670D01*
X78093319Y29219677D01*
X77758353Y29321288D01*
X77410000Y29355598D01*
X77061648Y29321288D01*
X76726682Y29219677D01*
X76417976Y29054670D01*
X76147393Y28832608D01*
X76140001Y28823600D01*
X76132608Y28832608D01*
X75862025Y29054670D01*
X75553319Y29219677D01*
X75218353Y29321288D01*
X74870000Y29355598D01*
X74521648Y29321288D01*
X74186682Y29219677D01*
X73877976Y29054670D01*
X73607393Y28832608D01*
X73600001Y28823600D01*
X73592608Y28832608D01*
X73322025Y29054670D01*
X73013319Y29219677D01*
X72678353Y29321288D01*
X72330000Y29355598D01*
X71981648Y29321288D01*
X71646682Y29219677D01*
X71337976Y29054670D01*
X71067393Y28832608D01*
X71060001Y28823600D01*
X71052608Y28832608D01*
X70782025Y29054670D01*
X70473319Y29219677D01*
X70138353Y29321288D01*
X69790000Y29355598D01*
X69441648Y29321288D01*
X69106682Y29219677D01*
X68797976Y29054670D01*
X68527393Y28832608D01*
X68520001Y28823600D01*
X68512608Y28832608D01*
X68242025Y29054670D01*
X67933319Y29219677D01*
X67598353Y29321288D01*
X67250000Y29355598D01*
X66901648Y29321288D01*
X66566682Y29219677D01*
X66257976Y29054670D01*
X65987393Y28832608D01*
X65980001Y28823600D01*
X65972608Y28832608D01*
X65702025Y29054670D01*
X65393319Y29219677D01*
X65058353Y29321288D01*
X64710000Y29355598D01*
X64361648Y29321288D01*
X64026682Y29219677D01*
X63717976Y29054670D01*
X63447393Y28832608D01*
X63440001Y28823600D01*
X63432608Y28832608D01*
X63162025Y29054670D01*
X62853319Y29219677D01*
X62518353Y29321288D01*
X62170000Y29355598D01*
X61821648Y29321288D01*
X61486682Y29219677D01*
X61177976Y29054670D01*
X61057000Y28955387D01*
X61057000Y35199910D01*
X61063903Y35270000D01*
X61057000Y35340090D01*
X61057000Y35340098D01*
X61036352Y35549741D01*
X60954755Y35818731D01*
X60822248Y36066634D01*
X60729423Y36179741D01*
X60688608Y36229474D01*
X60688605Y36229477D01*
X60643922Y36283923D01*
X60589477Y36328605D01*
X60058610Y36859472D01*
X60013923Y36913923D01*
X59796634Y37092248D01*
X59548731Y37224755D01*
X59279741Y37306352D01*
X59070098Y37327000D01*
X59070088Y37327000D01*
X59000000Y37333903D01*
X58929912Y37327000D01*
X55551744Y37327000D01*
X55287757Y37590987D01*
X54931196Y37829233D01*
X54535008Y37993340D01*
X54114416Y38077000D01*
X53685584Y38077000D01*
X53264992Y37993340D01*
X52868804Y37829233D01*
X52512243Y37590987D01*
X52209013Y37287757D01*
X51970767Y36931196D01*
X51806660Y36535008D01*
X51723000Y36114416D01*
X51723000Y35685584D01*
X51806660Y35264992D01*
X51970767Y34868804D01*
X52209013Y34512243D01*
X52512243Y34209013D01*
X52868804Y33970767D01*
X53264992Y33806660D01*
X53685584Y33723000D01*
X54114416Y33723000D01*
X54535008Y33806660D01*
X54931196Y33970767D01*
X55287757Y34209013D01*
X55551744Y34473000D01*
X58203000Y34473000D01*
X58203001Y28955388D01*
X58082025Y29054670D01*
X57773319Y29219677D01*
X57438353Y29321288D01*
X57090000Y29355598D01*
X56741648Y29321288D01*
X56406682Y29219677D01*
X56097976Y29054670D01*
X55827393Y28832608D01*
X55820001Y28823600D01*
X55812608Y28832608D01*
X55542025Y29054670D01*
X55233319Y29219677D01*
X54898353Y29321288D01*
X54550000Y29355598D01*
X54201648Y29321288D01*
X53866682Y29219677D01*
X53557976Y29054670D01*
X53287393Y28832608D01*
X53280001Y28823600D01*
X53272608Y28832608D01*
X53002025Y29054670D01*
X52693319Y29219677D01*
X52358353Y29321288D01*
X52010000Y29355598D01*
X51661648Y29321288D01*
X51326682Y29219677D01*
X51017976Y29054670D01*
X50747393Y28832608D01*
X50525331Y28562025D01*
X50360323Y28253319D01*
X50258712Y27918353D01*
X50233000Y27657296D01*
X44527000Y27657296D01*
X44527000Y31029902D01*
X44533904Y31100000D01*
X44506352Y31379741D01*
X44424755Y31648731D01*
X44292248Y31896634D01*
X44113923Y32113923D01*
X43896634Y32292248D01*
X43648731Y32424755D01*
X43379741Y32506352D01*
X43170098Y32527000D01*
X43170097Y32527000D01*
X43100000Y32533904D01*
X43029902Y32527000D01*
X40579434Y32527000D01*
X40609994Y32564237D01*
X40788929Y32899001D01*
X40899117Y33262242D01*
X40936323Y33640000D01*
X40899117Y34017758D01*
X40788929Y34380999D01*
X40609994Y34715763D01*
X40369187Y35009187D01*
X40261939Y35097203D01*
X40406883Y35281457D01*
X40549493Y35658181D01*
X40450788Y35907000D01*
X38773000Y35907000D01*
X38773000Y35887000D01*
X38227000Y35887000D01*
X38227000Y35907000D01*
X36549212Y35907000D01*
X36450507Y35658181D01*
X36593117Y35281457D01*
X36738061Y35097203D01*
X36701258Y35067000D01*
X29410090Y35067000D01*
X29340000Y35073903D01*
X29269910Y35067000D01*
X29269902Y35067000D01*
X29084474Y35048737D01*
X29060258Y35046352D01*
X28987408Y35024253D01*
X28791269Y34964755D01*
X28543366Y34832248D01*
X28326077Y34653923D01*
X28281390Y34599472D01*
X27740523Y34058605D01*
X27686078Y34013923D01*
X27641396Y33959478D01*
X27641392Y33959474D01*
X27515981Y33806660D01*
X27507753Y33796634D01*
X27375246Y33548731D01*
X27293649Y33279741D01*
X27289361Y33236199D01*
X27266097Y33000000D01*
X27273001Y32929902D01*
X27273000Y16730882D01*
X27200000Y16738072D01*
X26631750Y16735000D01*
X26473000Y16576250D01*
X25927000Y16576250D01*
X25768250Y16735000D01*
X25200000Y16738072D01*
X25075518Y16725812D01*
X24955820Y16689502D01*
X24845506Y16630537D01*
X24748815Y16551185D01*
X24669463Y16454494D01*
X24610498Y16344180D01*
X24574188Y16224482D01*
X24561928Y16100000D01*
X952000Y16100000D01*
X952000Y36701819D01*
X36450507Y36701819D01*
X36549212Y36453000D01*
X38227000Y36453000D01*
X38227000Y37675085D01*
X38773000Y37675085D01*
X38773000Y36453000D01*
X40450788Y36453000D01*
X40549493Y36701819D01*
X40406883Y37078543D01*
X40204553Y37335747D01*
X39955933Y37548536D01*
X39670577Y37708733D01*
X39359451Y37810182D01*
X39034512Y37848984D01*
X38773000Y37675085D01*
X38227000Y37675085D01*
X37965488Y37848984D01*
X37640549Y37810182D01*
X37329423Y37708733D01*
X37044067Y37548536D01*
X36795447Y37335747D01*
X36593117Y37078543D01*
X36450507Y36701819D01*
X952000Y36701819D01*
X952000Y47499039D01*
X10973000Y47499039D01*
X10973000Y47020961D01*
X11066268Y46552070D01*
X11249221Y46110385D01*
X11514826Y45712878D01*
X11852878Y45374826D01*
X12250385Y45109221D01*
X12692070Y44926268D01*
X13160961Y44833000D01*
X13639039Y44833000D01*
X14107930Y44926268D01*
X14549615Y45109221D01*
X14884525Y45333000D01*
X22315352Y45333000D01*
X22410000Y45323678D01*
X22504648Y45333000D01*
X22504658Y45333000D01*
X22787758Y45360883D01*
X23150999Y45471071D01*
X23485763Y45650006D01*
X23779187Y45890813D01*
X23779303Y45890955D01*
X24157930Y45966268D01*
X24599615Y46149221D01*
X24997122Y46414826D01*
X25335174Y46752878D01*
X25600779Y47150385D01*
X25783732Y47592070D01*
X25877000Y48060961D01*
X25877000Y48539039D01*
X25783732Y49007930D01*
X25600779Y49449615D01*
X25335174Y49847122D01*
X24997122Y50185174D01*
X24599615Y50450779D01*
X24157930Y50633732D01*
X23689039Y50727000D01*
X23210961Y50727000D01*
X22742070Y50633732D01*
X22300385Y50450779D01*
X21902878Y50185174D01*
X21564826Y49847122D01*
X21299221Y49449615D01*
X21190442Y49187000D01*
X14884525Y49187000D01*
X14549615Y49410779D01*
X14107930Y49593732D01*
X13639039Y49687000D01*
X13160961Y49687000D01*
X12692070Y49593732D01*
X12250385Y49410779D01*
X11852878Y49145174D01*
X11514826Y48807122D01*
X11249221Y48409615D01*
X11066268Y47967930D01*
X10973000Y47499039D01*
X952000Y47499039D01*
X952000Y57659039D01*
X10973000Y57659039D01*
X10973000Y57180961D01*
X11066268Y56712070D01*
X11249221Y56270385D01*
X11473000Y55935475D01*
X11473001Y53824526D01*
X11249221Y53489615D01*
X11066268Y53047930D01*
X10973000Y52579039D01*
X10973000Y52100961D01*
X11066268Y51632070D01*
X11249221Y51190385D01*
X11514826Y50792878D01*
X11852878Y50454826D01*
X12250385Y50189221D01*
X12692070Y50006268D01*
X13160961Y49913000D01*
X13639039Y49913000D01*
X14107930Y50006268D01*
X14549615Y50189221D01*
X14947122Y50454826D01*
X15285174Y50792878D01*
X15550779Y51190385D01*
X15733732Y51632070D01*
X15827000Y52100961D01*
X15827000Y52579039D01*
X15733732Y53047930D01*
X15550779Y53489615D01*
X15327000Y53824525D01*
X15327000Y55935475D01*
X15493631Y56184857D01*
X50165108Y56184857D01*
X50226818Y55888588D01*
X50345142Y55610050D01*
X50515532Y55359948D01*
X50731441Y55147893D01*
X50984571Y54982035D01*
X51194062Y54900776D01*
X51427000Y55001099D01*
X51427000Y56427000D01*
X50316921Y56427000D01*
X50165108Y56184857D01*
X15493631Y56184857D01*
X15550779Y56270385D01*
X15733732Y56712070D01*
X15827000Y57180961D01*
X15827000Y57215143D01*
X50165108Y57215143D01*
X50316921Y56973000D01*
X51427000Y56973000D01*
X51427000Y58398901D01*
X51194062Y58499224D01*
X50984571Y58417965D01*
X50731441Y58252107D01*
X50515532Y58040052D01*
X50345142Y57789950D01*
X50226818Y57511412D01*
X50165108Y57215143D01*
X15827000Y57215143D01*
X15827000Y57659039D01*
X15733732Y58127930D01*
X15550779Y58569615D01*
X15285174Y58967122D01*
X14947122Y59305174D01*
X14549615Y59570779D01*
X14107930Y59753732D01*
X13639039Y59847000D01*
X13160961Y59847000D01*
X12692070Y59753732D01*
X12250385Y59570779D01*
X11852878Y59305174D01*
X11514826Y58967122D01*
X11249221Y58569615D01*
X11066268Y58127930D01*
X10973000Y57659039D01*
X952000Y57659039D01*
X952000Y64000000D01*
X10968515Y64000000D01*
X10968515Y61000000D01*
X10986413Y60818276D01*
X11039420Y60643536D01*
X11125499Y60482495D01*
X11241341Y60341341D01*
X11382495Y60225499D01*
X11543536Y60139420D01*
X11718276Y60086413D01*
X11900000Y60068515D01*
X14900000Y60068515D01*
X15081724Y60086413D01*
X15256464Y60139420D01*
X15417505Y60225499D01*
X15558659Y60341341D01*
X15674501Y60482495D01*
X15722877Y60573000D01*
X21207010Y60573000D01*
X21299221Y60350385D01*
X21564826Y59952878D01*
X21902878Y59614826D01*
X22300385Y59349221D01*
X22742070Y59166268D01*
X23210961Y59073000D01*
X23689039Y59073000D01*
X24157930Y59166268D01*
X24599615Y59349221D01*
X24997122Y59614826D01*
X25297859Y59915563D01*
X40751644Y59915563D01*
X40920119Y59618036D01*
X41307061Y59453277D01*
X41718711Y59367174D01*
X42139249Y59363033D01*
X42552514Y59441015D01*
X42942624Y59598122D01*
X42979881Y59618036D01*
X43148356Y59915563D01*
X41950000Y61113920D01*
X40751644Y59915563D01*
X25297859Y59915563D01*
X25335174Y59952878D01*
X25600779Y60350385D01*
X25783732Y60792070D01*
X25877000Y61260961D01*
X25877000Y61310751D01*
X39813033Y61310751D01*
X39891015Y60897486D01*
X40048122Y60507376D01*
X40068036Y60470119D01*
X40365563Y60301644D01*
X41563920Y61500000D01*
X42336080Y61500000D01*
X43534437Y60301644D01*
X43831964Y60470119D01*
X43996723Y60857061D01*
X44082826Y61268711D01*
X44086967Y61689249D01*
X44008985Y62102514D01*
X43851878Y62492624D01*
X43831964Y62529881D01*
X43534437Y62698356D01*
X42336080Y61500000D01*
X41563920Y61500000D01*
X40365563Y62698356D01*
X40068036Y62529881D01*
X39903277Y62142939D01*
X39817174Y61731289D01*
X39813033Y61310751D01*
X25877000Y61310751D01*
X25877000Y61739039D01*
X25783732Y62207930D01*
X25600779Y62649615D01*
X25335174Y63047122D01*
X25297859Y63084437D01*
X40751644Y63084437D01*
X41950000Y61886080D01*
X43148356Y63084437D01*
X42979881Y63381964D01*
X42592939Y63546723D01*
X42181289Y63632826D01*
X41760751Y63636967D01*
X41347486Y63558985D01*
X40957376Y63401878D01*
X40920119Y63381964D01*
X40751644Y63084437D01*
X25297859Y63084437D01*
X24997122Y63385174D01*
X24599615Y63650779D01*
X24157930Y63833732D01*
X23767841Y63911325D01*
X23525763Y64109994D01*
X23190999Y64288929D01*
X22827758Y64399117D01*
X22544658Y64427000D01*
X22544648Y64427000D01*
X22450000Y64436322D01*
X22355352Y64427000D01*
X15722877Y64427000D01*
X15674501Y64517505D01*
X15558659Y64658659D01*
X15417505Y64774501D01*
X15256464Y64860580D01*
X15081724Y64913587D01*
X14900000Y64931485D01*
X11900000Y64931485D01*
X11718276Y64913587D01*
X11543536Y64860580D01*
X11382495Y64774501D01*
X11241341Y64658659D01*
X11125499Y64517505D01*
X11039420Y64356464D01*
X10986413Y64181724D01*
X10968515Y64000000D01*
X952000Y64000000D01*
X952000Y70239039D01*
X2573000Y70239039D01*
X2573000Y69760961D01*
X2666268Y69292070D01*
X2849221Y68850385D01*
X3114826Y68452878D01*
X3452878Y68114826D01*
X3850385Y67849221D01*
X4292070Y67666268D01*
X4760961Y67573000D01*
X5239039Y67573000D01*
X5707930Y67666268D01*
X6149615Y67849221D01*
X6547122Y68114826D01*
X6885174Y68452878D01*
X7150779Y68850385D01*
X7333732Y69292070D01*
X7427000Y69760961D01*
X7427000Y70239039D01*
X92573000Y70239039D01*
X92573000Y69760961D01*
X92666268Y69292070D01*
X92849221Y68850385D01*
X93114826Y68452878D01*
X93452878Y68114826D01*
X93850385Y67849221D01*
X94292070Y67666268D01*
X94760961Y67573000D01*
X95239039Y67573000D01*
X95707930Y67666268D01*
X96149615Y67849221D01*
X96547122Y68114826D01*
X96885174Y68452878D01*
X97150779Y68850385D01*
X97333732Y69292070D01*
X97427000Y69760961D01*
X97427000Y70239039D01*
X97333732Y70707930D01*
X97150779Y71149615D01*
X96885174Y71547122D01*
X96547122Y71885174D01*
X96149615Y72150779D01*
X95707930Y72333732D01*
X95239039Y72427000D01*
X94760961Y72427000D01*
X94292070Y72333732D01*
X93850385Y72150779D01*
X93452878Y71885174D01*
X93114826Y71547122D01*
X92849221Y71149615D01*
X92666268Y70707930D01*
X92573000Y70239039D01*
X7427000Y70239039D01*
X7333732Y70707930D01*
X7150779Y71149615D01*
X6885174Y71547122D01*
X6547122Y71885174D01*
X6149615Y72150779D01*
X5707930Y72333732D01*
X5239039Y72427000D01*
X4760961Y72427000D01*
X4292070Y72333732D01*
X3850385Y72150779D01*
X3452878Y71885174D01*
X3114826Y71547122D01*
X2849221Y71149615D01*
X2666268Y70707930D01*
X2573000Y70239039D01*
X952000Y70239039D01*
X952000Y74048000D01*
X99048000Y74048000D01*
X99048001Y952000D01*
G37*
%TD.AperFunction*%
%TD*%
M02*
