M48
; DRILL file {KiCad (5.1.9)-1} date 04/08/23 12:24:40
; FORMAT={-:-/ absolute / metric / decimal}
; #@! TF.CreationDate,2023-04-08T12:24:40+02:00
; #@! TF.GenerationSoftware,Kicad,Pcbnew,(5.1.9)-1
FMAT,2
METRIC
T1C0.700
T2C0.800
T3C0.900
T4C1.000
T5C1.100
T6C1.300
T7C3.000
%
G90
G05
T1
X52.4Y56.4
X54.6Y46.1
X54.6Y36.1
X54.67Y58.4
X56.9Y56.4
X65.7Y48.51
X65.7Y40.89
T2
X52.01Y27.02
X52.01Y11.78
X54.55Y27.02
X54.55Y11.78
X57.09Y27.02
X57.09Y11.78
X59.63Y27.02
X59.63Y11.78
X62.17Y27.02
X62.17Y11.78
X64.71Y27.02
X64.71Y11.78
X67.25Y27.02
X67.25Y11.78
X69.79Y27.02
X69.79Y11.78
X72.33Y27.02
X72.33Y11.78
X74.87Y27.02
X74.87Y11.78
X77.41Y27.02
X77.41Y11.78
X79.95Y27.02
X79.95Y11.78
X82.49Y27.02
X82.49Y11.78
X85.03Y27.02
X85.03Y11.78
X87.57Y27.02
X87.57Y11.78
T3
X38.5Y36.18
X38.5Y33.64
X38.5Y31.1
X38.5Y28.56
T4
X23.45Y61.5
X23.45Y48.3
X26.2Y14.6
X28.7Y14.6
X31.2Y14.6
X33.7Y14.6
X41.95Y61.5
X41.95Y48.3
T5
X72.2Y42.3
X74.2Y48.3
X74.2Y36.3
X82.7Y59.58
X82.7Y54.5
X86.4Y48.3
X86.4Y36.3
T6
X13.4Y63.6
X13.4Y58.52
X13.4Y53.44
X13.4Y48.36
T7
X5.0Y70.0
X5.0Y5.0
X95.0Y70.0
X95.7Y5.0
T0
M30
