%TF.GenerationSoftware,KiCad,Pcbnew,(5.1.8)-1*%
%TF.CreationDate,2023-03-30T10:41:41+02:00*%
%TF.ProjectId,CommandeJF,436f6d6d-616e-4646-954a-462e6b696361,rev?*%
%TF.SameCoordinates,PX5a995c0PY7735940*%
%TF.FileFunction,Copper,L2,Bot*%
%TF.FilePolarity,Positive*%
%FSLAX46Y46*%
G04 Gerber Fmt 4.6, Leading zero omitted, Abs format (unit mm)*
G04 Created by KiCad (PCBNEW (5.1.8)-1) date 2023-03-30 10:41:41*
%MOMM*%
%LPD*%
G01*
G04 APERTURE LIST*
%TA.AperFunction,ComponentPad*%
%ADD10C,1.998980*%
%TD*%
%TA.AperFunction,ComponentPad*%
%ADD11C,2.000000*%
%TD*%
%TA.AperFunction,ComponentPad*%
%ADD12C,1.524000*%
%TD*%
%TA.AperFunction,ComponentPad*%
%ADD13C,1.501140*%
%TD*%
%TA.AperFunction,ComponentPad*%
%ADD14C,1.800000*%
%TD*%
%TA.AperFunction,ComponentPad*%
%ADD15C,1.500000*%
%TD*%
%TA.AperFunction,ComponentPad*%
%ADD16R,1.500000X1.500000*%
%TD*%
%TA.AperFunction,ComponentPad*%
%ADD17C,3.000000*%
%TD*%
%TA.AperFunction,ComponentPad*%
%ADD18O,2.000000X3.000000*%
%TD*%
%TA.AperFunction,ComponentPad*%
%ADD19R,2.000000X3.000000*%
%TD*%
%TA.AperFunction,ComponentPad*%
%ADD20R,3.000000X3.000000*%
%TD*%
%TA.AperFunction,Conductor*%
%ADD21C,1.000000*%
%TD*%
%TA.AperFunction,Conductor*%
%ADD22C,0.800000*%
%TD*%
G04 APERTURE END LIST*
D10*
%TO.P,D2,1*%
%TO.N,+5V*%
X65890000Y53800000D03*
%TO.P,D2,2*%
%TO.N,Net-(D2-Pad2)*%
X73510000Y53800000D03*
%TD*%
D11*
%TO.P,XA101,GND5*%
%TO.N,N/C*%
X84380000Y13260000D03*
%TO.P,XA101,GND4*%
X84380000Y15800000D03*
%TO.P,XA101,VCC1*%
X84380000Y18340000D03*
%TO.P,XA101,RXI*%
X84380000Y20880000D03*
%TO.P,XA101,TX0*%
X84380000Y23420000D03*
%TO.P,XA101,DTR*%
X84380000Y25960000D03*
%TO.P,XA101,GND2*%
X74190000Y27130000D03*
%TO.P,XA101,D9*%
X53870000Y27130000D03*
%TO.P,XA101,A4*%
%TO.N,SDA*%
X70380000Y14430000D03*
%TO.P,XA101,D8*%
%TO.N,N/C*%
X56410000Y27130000D03*
%TO.P,XA101,D7*%
X58950000Y27130000D03*
%TO.P,XA101,D6*%
X61490000Y27130000D03*
%TO.P,XA101,D5*%
X64030000Y27130000D03*
%TO.P,XA101,D4*%
X66570000Y27130000D03*
%TO.P,XA101,D3*%
%TO.N,SIG*%
X69110000Y27130000D03*
%TO.P,XA101,D2*%
%TO.N,N/C*%
X71650000Y27130000D03*
%TO.P,XA101,RST2*%
X76730000Y27130000D03*
%TO.P,XA101,D1*%
X79270000Y27130000D03*
%TO.P,XA101,D0*%
X81810000Y27130000D03*
%TO.P,XA101,A5*%
%TO.N,SCL*%
X72920000Y14430000D03*
%TO.P,XA101,A7*%
%TO.N,N/C*%
X53870000Y14430000D03*
%TO.P,XA101,A6*%
X53870000Y16970000D03*
%TO.P,XA101,GND3*%
X53870000Y19510000D03*
%TO.P,XA101,D10*%
X53870000Y11890000D03*
%TO.P,XA101,RAW*%
X81810000Y11890000D03*
%TO.P,XA101,GND*%
%TO.N,GND*%
X79270000Y11890000D03*
%TO.P,XA101,RST*%
%TO.N,N/C*%
X76730000Y11890000D03*
%TO.P,XA101,VCC*%
%TO.N,+5V*%
X74190000Y11890000D03*
%TO.P,XA101,A3*%
%TO.N,N/C*%
X71650000Y11890000D03*
%TO.P,XA101,A2*%
X69110000Y11890000D03*
%TO.P,XA101,A1*%
X66570000Y11890000D03*
%TO.P,XA101,A0*%
X64030000Y11890000D03*
%TO.P,XA101,D13*%
X61490000Y11890000D03*
%TO.P,XA101,D12*%
X58950000Y11890000D03*
%TO.P,XA101,D11*%
X56410000Y11890000D03*
%TD*%
D12*
%TO.P,U101,4*%
%TO.N,+5V*%
X41250000Y47000000D03*
%TO.P,U101,3*%
%TO.N,GND*%
X41250000Y60200000D03*
%TO.P,U101,2*%
%TO.N,Net-(J1-Pad2)*%
X22750000Y47000000D03*
%TO.P,U101,1*%
%TO.N,+24V*%
X22750000Y60200000D03*
%TD*%
D13*
%TO.P,C101,2*%
%TO.N,GND*%
X79240000Y7700000D03*
%TO.P,C101,1*%
%TO.N,+5V*%
X74160000Y7700000D03*
%TD*%
D14*
%TO.P,U2,1*%
%TO.N,GND*%
X42800000Y26360000D03*
%TO.P,U2,2*%
%TO.N,+5V*%
X42800000Y28900000D03*
%TO.P,U2,3*%
%TO.N,SDA*%
X42800000Y31440000D03*
%TO.P,U2,4*%
%TO.N,SCL*%
X42800000Y33980000D03*
%TD*%
D15*
%TO.P,TR1,1*%
%TO.N,GND*%
X55300000Y53200000D03*
%TO.P,TR1,3*%
%TO.N,Net-(D2-Pad2)*%
X59800000Y53200000D03*
D16*
%TO.P,TR1,2*%
%TO.N,SIG*%
X57570000Y55200000D03*
%TD*%
D17*
%TO.P,K1,11*%
%TO.N,Net-(J2-Pad2)*%
X71500000Y41000000D03*
%TO.P,K1,A2*%
%TO.N,Net-(D2-Pad2)*%
X73500000Y47000000D03*
%TO.P,K1,12*%
%TO.N,Net-(J2-Pad1)*%
X85700000Y47000000D03*
%TO.P,K1,14*%
%TO.N,N/C*%
X85700000Y35000000D03*
%TO.P,K1,A1*%
%TO.N,+5V*%
X73500000Y35000000D03*
%TD*%
D18*
%TO.P,J3,4*%
%TO.N,GND*%
X33000000Y13300000D03*
%TO.P,J3,3*%
%TO.N,+5V*%
X30500000Y13300000D03*
%TO.P,J3,2*%
%TO.N,SDA*%
X28000000Y13300000D03*
D19*
%TO.P,J3,1*%
%TO.N,SCL*%
X25500000Y13300000D03*
%TD*%
D17*
%TO.P,J2,2*%
%TO.N,Net-(J2-Pad2)*%
X82000000Y58280000D03*
D20*
%TO.P,J2,1*%
%TO.N,Net-(J2-Pad1)*%
X82000000Y53200000D03*
%TD*%
D17*
%TO.P,J1,2*%
%TO.N,Net-(J1-Pad2)*%
X12700000Y51420000D03*
D20*
%TO.P,J1,1*%
%TO.N,+24V*%
X12700000Y56500000D03*
%TD*%
D21*
%TO.N,+24V*%
X12700000Y56500000D02*
X22700000Y56500000D01*
X22750000Y56550000D02*
X22750000Y60200000D01*
X22700000Y56500000D02*
X22750000Y56550000D01*
%TO.N,GND*%
X33000000Y13300000D02*
X33000000Y26360000D01*
X33000000Y26360000D02*
X42800000Y26360000D01*
X79270000Y7730000D02*
X79240000Y7700000D01*
X79270000Y11890000D02*
X79270000Y7730000D01*
X42960000Y26200000D02*
X42800000Y26360000D01*
X50820400Y46979600D02*
X50800000Y47000000D01*
X50820400Y33979600D02*
X50820400Y34379600D01*
X55300000Y53200000D02*
X51000000Y53200000D01*
X50820400Y53020400D02*
X50820400Y46520400D01*
X51000000Y53200000D02*
X50820400Y53020400D01*
X50820400Y46520400D02*
X50820400Y46979600D01*
X50820400Y34379600D02*
X50820400Y46520400D01*
X50760000Y26360000D02*
X50820400Y26420400D01*
X42800000Y26360000D02*
X50760000Y26360000D01*
X50820400Y26420400D02*
X50820400Y33979600D01*
X50820400Y24600000D02*
X50820400Y26420400D01*
X79270000Y24600000D02*
X50820400Y24600000D01*
X79270000Y11890000D02*
X79270000Y24600000D01*
X41240800Y60190800D02*
X41250000Y60200000D01*
X51000000Y53200000D02*
X41300000Y53200000D01*
X41300000Y60150000D02*
X41250000Y60200000D01*
X41300000Y53200000D02*
X41300000Y60150000D01*
%TO.N,+5V*%
X30500000Y13300000D02*
X30500000Y28900000D01*
X30500000Y28900000D02*
X42800000Y28900000D01*
X74160000Y11860000D02*
X74190000Y11890000D01*
X74160000Y7700000D02*
X74160000Y11860000D01*
X73500000Y31100000D02*
X73500000Y35000000D01*
X89800000Y31100000D02*
X73500000Y31100000D01*
X74760000Y5400000D02*
X89800000Y5400000D01*
X74160000Y6000000D02*
X74760000Y5400000D01*
X74160000Y7700000D02*
X74160000Y6000000D01*
X89800000Y30500000D02*
X89800000Y31100000D01*
X89800000Y5400000D02*
X89800000Y30500000D01*
X65890000Y53200000D02*
X65890000Y57790000D01*
X65890000Y57790000D02*
X65890000Y62790000D01*
X48400000Y28900000D02*
X42800000Y28900000D01*
X48400000Y41059200D02*
X48400000Y28900000D01*
X34100000Y41059200D02*
X48400000Y41059200D01*
X34290000Y62790000D02*
X34100000Y62600000D01*
X65890000Y62790000D02*
X34290000Y62790000D01*
X34300000Y47000000D02*
X34100000Y47200000D01*
X41250000Y47000000D02*
X34300000Y47000000D01*
X34100000Y47200000D02*
X34100000Y41059200D01*
X34100000Y62600000D02*
X34100000Y47200000D01*
X89800000Y61800000D02*
X88810000Y62790000D01*
X89800000Y31100000D02*
X89800000Y61800000D01*
X65890000Y62790000D02*
X88810000Y62790000D01*
%TO.N,Net-(J2-Pad2)*%
X81820000Y58100000D02*
X82000000Y58280000D01*
X77700000Y58100000D02*
X81820000Y58100000D01*
X77700000Y41000000D02*
X77700000Y58100000D01*
X71500000Y41000000D02*
X77700000Y41000000D01*
%TO.N,Net-(J2-Pad1)*%
X82000000Y53200000D02*
X85500000Y53200000D01*
X85700000Y53000000D02*
X85700000Y47000000D01*
X85500000Y53200000D02*
X85700000Y53000000D01*
D22*
%TO.N,SDA*%
X28000000Y13300000D02*
X28000000Y31440000D01*
X28000000Y31440000D02*
X42800000Y31440000D01*
X70380000Y21320000D02*
X70380000Y14430000D01*
X45200000Y21400000D02*
X70300000Y21400000D01*
X19900000Y7400000D02*
X45200000Y7400000D01*
X70300000Y21400000D02*
X70380000Y21320000D01*
X45200000Y7400000D02*
X45200000Y21400000D01*
X19900000Y37800000D02*
X19900000Y7400000D01*
X46200000Y37800000D02*
X19900000Y37800000D01*
X46200000Y31440000D02*
X46200000Y37800000D01*
X42800000Y31440000D02*
X46200000Y31440000D01*
%TO.N,SCL*%
X42800000Y33980000D02*
X25500000Y33980000D01*
X25500000Y33980000D02*
X25500000Y13300000D01*
X72920000Y23000000D02*
X72920000Y14430000D01*
X41600000Y23000000D02*
X72920000Y23000000D01*
X41600000Y9300000D02*
X41600000Y23000000D01*
X25500000Y9300000D02*
X41600000Y9300000D01*
X25500000Y13300000D02*
X25500000Y9300000D01*
%TO.N,SIG*%
X57570000Y55200000D02*
X57570000Y32530000D01*
X57570000Y32530000D02*
X58500000Y31600000D01*
X58500000Y31600000D02*
X69000000Y31600000D01*
X69000000Y27240000D02*
X69110000Y27130000D01*
X69000000Y31600000D02*
X69000000Y27240000D01*
%TO.N,Net-(D2-Pad2)*%
X73510000Y47010000D02*
X73500000Y47000000D01*
X73510000Y53200000D02*
X73510000Y47010000D01*
X59800000Y53200000D02*
X59800000Y47100000D01*
X59900000Y47000000D02*
X73500000Y47000000D01*
X59800000Y47100000D02*
X59900000Y47000000D01*
D21*
%TO.N,Net-(J1-Pad2)*%
X12700000Y51420000D02*
X22480000Y51420000D01*
X22750000Y51150000D02*
X22750000Y47000000D01*
X22480000Y51420000D02*
X22750000Y51150000D01*
%TD*%
M02*
