%TF.GenerationSoftware,KiCad,Pcbnew,(5.1.8)-1*%
%TF.CreationDate,2023-04-03T09:29:08+02:00*%
%TF.ProjectId,CommandeJF,436f6d6d-616e-4646-954a-462e6b696361,rev?*%
%TF.SameCoordinates,PX5a995c0PY7735940*%
%TF.FileFunction,Legend,Top*%
%TF.FilePolarity,Positive*%
%FSLAX46Y46*%
G04 Gerber Fmt 4.6, Leading zero omitted, Abs format (unit mm)*
G04 Created by KiCad (PCBNEW (5.1.8)-1) date 2023-04-03 09:29:08*
%MOMM*%
%LPD*%
G01*
G04 APERTURE LIST*
%ADD10C,0.150000*%
%ADD11C,0.300000*%
%ADD12C,0.381000*%
%ADD13C,0.120000*%
%ADD14C,0.250000*%
%ADD15C,0.254000*%
%ADD16C,0.075000*%
%ADD17C,0.304800*%
G04 APERTURE END LIST*
D10*
X5500000Y47000000D02*
X4500000Y50000000D01*
X5500000Y51000000D02*
X5500000Y50000000D01*
X5500000Y45500000D02*
X5500000Y46000000D01*
X8000000Y45500000D02*
X5500000Y45500000D01*
X8000000Y51000000D02*
X5500000Y51000000D01*
X5500000Y47000000D02*
X5500000Y46000000D01*
X41309523Y33047620D02*
X40833333Y33047620D01*
X40785714Y32571429D01*
X40833333Y32619048D01*
X40928571Y32666667D01*
X41166666Y32666667D01*
X41261904Y32619048D01*
X41309523Y32571429D01*
X41357142Y32476191D01*
X41357142Y32238096D01*
X41309523Y32142858D01*
X41261904Y32095239D01*
X41166666Y32047620D01*
X40928571Y32047620D01*
X40833333Y32095239D01*
X40785714Y32142858D01*
X41642857Y33047620D02*
X41976190Y32047620D01*
X42309523Y33047620D01*
X41238095Y35500000D02*
X41142857Y35547620D01*
X41000000Y35547620D01*
X40857142Y35500000D01*
X40761904Y35404762D01*
X40714285Y35309524D01*
X40666666Y35119048D01*
X40666666Y34976191D01*
X40714285Y34785715D01*
X40761904Y34690477D01*
X40857142Y34595239D01*
X41000000Y34547620D01*
X41095238Y34547620D01*
X41238095Y34595239D01*
X41285714Y34642858D01*
X41285714Y34976191D01*
X41095238Y34976191D01*
X41714285Y34547620D02*
X41714285Y35547620D01*
X42285714Y34547620D01*
X42285714Y35547620D01*
X42761904Y34547620D02*
X42761904Y35547620D01*
X43000000Y35547620D01*
X43142857Y35500000D01*
X43238095Y35404762D01*
X43285714Y35309524D01*
X43333333Y35119048D01*
X43333333Y34976191D01*
X43285714Y34785715D01*
X43238095Y34690477D01*
X43142857Y34595239D01*
X43000000Y34547620D01*
X42761904Y34547620D01*
X40785714Y29595239D02*
X40928571Y29547620D01*
X41166666Y29547620D01*
X41261904Y29595239D01*
X41309523Y29642858D01*
X41357142Y29738096D01*
X41357142Y29833334D01*
X41309523Y29928572D01*
X41261904Y29976191D01*
X41166666Y30023810D01*
X40976190Y30071429D01*
X40880952Y30119048D01*
X40833333Y30166667D01*
X40785714Y30261905D01*
X40785714Y30357143D01*
X40833333Y30452381D01*
X40880952Y30500000D01*
X40976190Y30547620D01*
X41214285Y30547620D01*
X41357142Y30500000D01*
X41785714Y29547620D02*
X41785714Y30547620D01*
X42023809Y30547620D01*
X42166666Y30500000D01*
X42261904Y30404762D01*
X42309523Y30309524D01*
X42357142Y30119048D01*
X42357142Y29976191D01*
X42309523Y29785715D01*
X42261904Y29690477D01*
X42166666Y29595239D01*
X42023809Y29547620D01*
X41785714Y29547620D01*
X42738095Y29833334D02*
X43214285Y29833334D01*
X42642857Y29547620D02*
X42976190Y30547620D01*
X43309523Y29547620D01*
X40809523Y27095239D02*
X40952380Y27047620D01*
X41190476Y27047620D01*
X41285714Y27095239D01*
X41333333Y27142858D01*
X41380952Y27238096D01*
X41380952Y27333334D01*
X41333333Y27428572D01*
X41285714Y27476191D01*
X41190476Y27523810D01*
X41000000Y27571429D01*
X40904761Y27619048D01*
X40857142Y27666667D01*
X40809523Y27761905D01*
X40809523Y27857143D01*
X40857142Y27952381D01*
X40904761Y28000000D01*
X41000000Y28047620D01*
X41238095Y28047620D01*
X41380952Y28000000D01*
X42380952Y27142858D02*
X42333333Y27095239D01*
X42190476Y27047620D01*
X42095238Y27047620D01*
X41952380Y27095239D01*
X41857142Y27190477D01*
X41809523Y27285715D01*
X41761904Y27476191D01*
X41761904Y27619048D01*
X41809523Y27809524D01*
X41857142Y27904762D01*
X41952380Y28000000D01*
X42095238Y28047620D01*
X42190476Y28047620D01*
X42333333Y28000000D01*
X42380952Y27952381D01*
X43285714Y27047620D02*
X42809523Y27047620D01*
X42809523Y28047620D01*
X25000000Y7238096D02*
X24952380Y7142858D01*
X24952380Y7000000D01*
X25000000Y6857143D01*
X25095238Y6761905D01*
X25190476Y6714286D01*
X25380952Y6666667D01*
X25523809Y6666667D01*
X25714285Y6714286D01*
X25809523Y6761905D01*
X25904761Y6857143D01*
X25952380Y7000000D01*
X25952380Y7095239D01*
X25904761Y7238096D01*
X25857142Y7285715D01*
X25523809Y7285715D01*
X25523809Y7095239D01*
X25952380Y7714286D02*
X24952380Y7714286D01*
X25952380Y8285715D01*
X24952380Y8285715D01*
X25952380Y8761905D02*
X24952380Y8761905D01*
X24952380Y9000000D01*
X25000000Y9142858D01*
X25095238Y9238096D01*
X25190476Y9285715D01*
X25380952Y9333334D01*
X25523809Y9333334D01*
X25714285Y9285715D01*
X25809523Y9238096D01*
X25904761Y9142858D01*
X25952380Y9000000D01*
X25952380Y8761905D01*
X27452380Y7809524D02*
X27452380Y7333334D01*
X27928571Y7285715D01*
X27880952Y7333334D01*
X27833333Y7428572D01*
X27833333Y7666667D01*
X27880952Y7761905D01*
X27928571Y7809524D01*
X28023809Y7857143D01*
X28261904Y7857143D01*
X28357142Y7809524D01*
X28404761Y7761905D01*
X28452380Y7666667D01*
X28452380Y7428572D01*
X28404761Y7333334D01*
X28357142Y7285715D01*
X27452380Y8142858D02*
X28452380Y8476191D01*
X27452380Y8809524D01*
X30904761Y6785715D02*
X30952380Y6928572D01*
X30952380Y7166667D01*
X30904761Y7261905D01*
X30857142Y7309524D01*
X30761904Y7357143D01*
X30666666Y7357143D01*
X30571428Y7309524D01*
X30523809Y7261905D01*
X30476190Y7166667D01*
X30428571Y6976191D01*
X30380952Y6880953D01*
X30333333Y6833334D01*
X30238095Y6785715D01*
X30142857Y6785715D01*
X30047619Y6833334D01*
X30000000Y6880953D01*
X29952380Y6976191D01*
X29952380Y7214286D01*
X30000000Y7357143D01*
X30952380Y7785715D02*
X29952380Y7785715D01*
X29952380Y8023810D01*
X30000000Y8166667D01*
X30095238Y8261905D01*
X30190476Y8309524D01*
X30380952Y8357143D01*
X30523809Y8357143D01*
X30714285Y8309524D01*
X30809523Y8261905D01*
X30904761Y8166667D01*
X30952380Y8023810D01*
X30952380Y7785715D01*
X30666666Y8738096D02*
X30666666Y9214286D01*
X30952380Y8642858D02*
X29952380Y8976191D01*
X30952380Y9309524D01*
X33404761Y6809524D02*
X33452380Y6952381D01*
X33452380Y7190477D01*
X33404761Y7285715D01*
X33357142Y7333334D01*
X33261904Y7380953D01*
X33166666Y7380953D01*
X33071428Y7333334D01*
X33023809Y7285715D01*
X32976190Y7190477D01*
X32928571Y7000000D01*
X32880952Y6904762D01*
X32833333Y6857143D01*
X32738095Y6809524D01*
X32642857Y6809524D01*
X32547619Y6857143D01*
X32500000Y6904762D01*
X32452380Y7000000D01*
X32452380Y7238096D01*
X32500000Y7380953D01*
X33357142Y8380953D02*
X33404761Y8333334D01*
X33452380Y8190477D01*
X33452380Y8095239D01*
X33404761Y7952381D01*
X33309523Y7857143D01*
X33214285Y7809524D01*
X33023809Y7761905D01*
X32880952Y7761905D01*
X32690476Y7809524D01*
X32595238Y7857143D01*
X32500000Y7952381D01*
X32452380Y8095239D01*
X32452380Y8190477D01*
X32500000Y8333334D01*
X32547619Y8380953D01*
X33452380Y9285715D02*
X33452380Y8809524D01*
X32452380Y8809524D01*
X87178571Y51500000D02*
X87178571Y51785715D01*
X87250000Y51928572D01*
X87392857Y52071429D01*
X87678571Y52142858D01*
X88178571Y52142858D01*
X88464285Y52071429D01*
X88607142Y51928572D01*
X88678571Y51785715D01*
X88678571Y51500000D01*
X88607142Y51357143D01*
X88464285Y51214286D01*
X88178571Y51142858D01*
X87678571Y51142858D01*
X87392857Y51214286D01*
X87250000Y51357143D01*
X87178571Y51500000D01*
X87178571Y52785715D02*
X88392857Y52785715D01*
X88535714Y52857143D01*
X88607142Y52928572D01*
X88678571Y53071429D01*
X88678571Y53357143D01*
X88607142Y53500000D01*
X88535714Y53571429D01*
X88392857Y53642858D01*
X87178571Y53642858D01*
X87178571Y54142858D02*
X87178571Y55000000D01*
X88678571Y54571429D02*
X87178571Y54571429D01*
X88678571Y58214286D02*
X87178571Y58214286D01*
X88678571Y58928572D02*
X87178571Y58928572D01*
X88678571Y59785715D01*
X87178571Y59785715D01*
X5821428Y60971429D02*
X5821428Y60828572D01*
X5750000Y60685715D01*
X5678571Y60614286D01*
X5535714Y60542858D01*
X5250000Y60471429D01*
X4892857Y60471429D01*
X4607142Y60542858D01*
X4464285Y60614286D01*
X4392857Y60685715D01*
X4321428Y60828572D01*
X4321428Y60971429D01*
X4392857Y61114286D01*
X4464285Y61185715D01*
X4607142Y61257143D01*
X4892857Y61328572D01*
X5250000Y61328572D01*
X5535714Y61257143D01*
X5678571Y61185715D01*
X5750000Y61114286D01*
X5821428Y60971429D01*
X5678571Y56842858D02*
X5750000Y56771429D01*
X5821428Y56628572D01*
X5821428Y56271429D01*
X5750000Y56128572D01*
X5678571Y56057143D01*
X5535714Y55985715D01*
X5392857Y55985715D01*
X5178571Y56057143D01*
X4321428Y56914286D01*
X4321428Y55985715D01*
X5321428Y54700000D02*
X4321428Y54700000D01*
X5892857Y55057143D02*
X4821428Y55414286D01*
X4821428Y54485715D01*
%TO.C,XA1*%
X90680000Y26990000D02*
X47500000Y26990000D01*
X90680000Y9210000D02*
X47500000Y9210000D01*
X47500000Y26990000D02*
X47500000Y9210000D01*
X90680000Y26990000D02*
X90680000Y9210000D01*
X46050000Y14036000D02*
X47500000Y14036000D01*
X46050000Y22164000D02*
X46050000Y14036000D01*
X47500000Y22164000D02*
X46050000Y22164000D01*
D11*
%TO.C,C101*%
X78700000Y19500000D02*
X79700000Y19500000D01*
D12*
X92500000Y19700000D02*
X92500000Y14300000D01*
X92500000Y14300000D02*
X80500000Y14300000D01*
X80500000Y14300000D02*
X80500000Y19700000D01*
X80500000Y19400000D02*
X92500000Y19400000D01*
X92500000Y19700000D02*
X80500000Y19700000D01*
X79200000Y18000000D02*
X80500000Y18000000D01*
X79200000Y16000000D02*
X80500000Y16000000D01*
X80500000Y19100000D02*
X92500000Y19100000D01*
D13*
%TO.C,J1*%
X14380000Y56120000D02*
G75*
G03*
X14380000Y56120000I-1680000J0D01*
G01*
X14380000Y51040000D02*
G75*
G03*
X14380000Y51040000I-1680000J0D01*
G01*
X14380000Y45960000D02*
G75*
G03*
X14380000Y45960000I-1680000J0D01*
G01*
X8600000Y63800000D02*
X8600000Y43360000D01*
X10100000Y63800000D02*
X10100000Y43360000D01*
X15001000Y63800000D02*
X15001000Y43360000D01*
X17961000Y63800000D02*
X17961000Y43360000D01*
X8040000Y63800000D02*
X8040000Y43360000D01*
X17961000Y63800000D02*
X8040000Y63800000D01*
X17961000Y43360000D02*
X8040000Y43360000D01*
X13769000Y54845000D02*
X13723000Y54892000D01*
X11461000Y57154000D02*
X11426000Y57189000D01*
X13975000Y55050000D02*
X13939000Y55085000D01*
X11677000Y57347000D02*
X11631000Y57394000D01*
X13769000Y49765000D02*
X13723000Y49812000D01*
X11461000Y52074000D02*
X11426000Y52109000D01*
X13975000Y49970000D02*
X13939000Y50005000D01*
X11677000Y52267000D02*
X11631000Y52314000D01*
X13769000Y44685000D02*
X13723000Y44732000D01*
X11461000Y46994000D02*
X11426000Y47029000D01*
X13975000Y44890000D02*
X13939000Y44925000D01*
X11677000Y47187000D02*
X11631000Y47234000D01*
X8540000Y64040000D02*
X7800000Y64040000D01*
X7800000Y64040000D02*
X7800000Y63540000D01*
X11019747Y61171195D02*
G75*
G02*
X11165000Y61884000I1680253J28805D01*
G01*
X12016958Y62735426D02*
G75*
G02*
X13384000Y62735000I683042J-1535426D01*
G01*
X14235426Y61883042D02*
G75*
G02*
X14235000Y60516000I-1535426J-683042D01*
G01*
X13383042Y59664574D02*
G75*
G02*
X12016000Y59665000I-683042J1535426D01*
G01*
X11165244Y60516682D02*
G75*
G02*
X11020000Y61200000I1534756J683318D01*
G01*
D14*
%TO.C,R101*%
X57800000Y43600000D02*
X60200000Y43600000D01*
X57800000Y37300000D02*
X57800000Y43600000D01*
X60200000Y37300000D02*
X57800000Y37300000D01*
X60200000Y43600000D02*
X60200000Y37300000D01*
D15*
X59000000Y45251000D02*
X59000000Y43600000D01*
X59000000Y35649000D02*
X59000000Y37300000D01*
D10*
%TO.C,U1*%
X30310000Y30770000D02*
G75*
G03*
X30310000Y30770000I-10160000J0D01*
G01*
X6275000Y40295000D02*
G75*
G03*
X6275000Y40295000I-1270000J0D01*
G01*
X6275000Y36485000D02*
G75*
G03*
X6275000Y36485000I-1270000J0D01*
G01*
X6275000Y32675000D02*
G75*
G03*
X6275000Y32675000I-1270000J0D01*
G01*
X6275000Y21245000D02*
G75*
G03*
X6275000Y21245000I-1270000J0D01*
G01*
X6275000Y25055000D02*
G75*
G03*
X6275000Y25055000I-1270000J0D01*
G01*
X6275000Y28865000D02*
G75*
G03*
X6275000Y28865000I-1270000J0D01*
G01*
D13*
X2300000Y41800000D02*
X40400000Y41800000D01*
X40400000Y41800000D02*
X40400000Y19900000D01*
X2300000Y19800000D02*
X2300000Y41800000D01*
X2300000Y19700000D02*
X40400000Y19700000D01*
X40400000Y19700000D02*
X40400000Y19900000D01*
D15*
%TO.C,D2*%
X63984000Y41086000D02*
X66016000Y41086000D01*
X63984000Y36514000D02*
X63984000Y41086000D01*
X66016000Y36514000D02*
X63984000Y36514000D01*
X66016000Y41086000D02*
X66016000Y36514000D01*
X65000000Y41086000D02*
X65000000Y42610000D01*
X65000000Y34990000D02*
X65000000Y36514000D01*
X66016000Y37530000D02*
X63984000Y37530000D01*
X63984000Y37276000D02*
X66016000Y37276000D01*
D13*
%TO.C,TR1*%
X60830000Y57250000D02*
X57230000Y57250000D01*
X57191522Y57238478D02*
G75*
G03*
X59030000Y52800000I1838478J-1838478D01*
G01*
X60868478Y57238478D02*
G75*
G02*
X59030000Y52800000I-1838478J-1838478D01*
G01*
%TO.C,U101*%
X43000000Y61600000D02*
X43000000Y62500000D01*
X21000000Y61600000D02*
X21000000Y62500000D01*
X21000000Y62500000D02*
X43000000Y62500000D01*
X43000000Y61600000D02*
X43000000Y44700000D01*
X43000000Y44700000D02*
X21000000Y44700000D01*
X21000000Y44700000D02*
X21000000Y61700000D01*
%TO.C,K1*%
X80000000Y39500000D02*
X75000000Y39500000D01*
X80000000Y42500000D02*
X80000000Y39500000D01*
X75000000Y42500000D02*
X80000000Y42500000D01*
X75000000Y39500000D02*
X75000000Y42500000D01*
X80000000Y39500000D02*
X75000000Y42500000D01*
X77500000Y39500000D02*
X77500000Y35000000D01*
X77500000Y47000000D02*
X77500000Y42500000D01*
X74100000Y41000000D02*
X74100000Y37300000D01*
X81000000Y41000000D02*
X81000000Y37300000D01*
X81000000Y37300000D02*
X74100000Y37300000D01*
X82500000Y41000000D02*
X87000000Y43700000D01*
X81000000Y41000000D02*
X82500000Y41000000D01*
X77500000Y47000000D02*
X75200000Y47000000D01*
X74100000Y41000000D02*
X73200000Y41000000D01*
X75200000Y35000000D02*
X77500000Y35000000D01*
X85700000Y45300000D02*
X85700000Y43000000D01*
X85700000Y36700000D02*
X85700000Y39000000D01*
X89200000Y33300000D02*
X70000000Y33300000D01*
X89200000Y48700000D02*
X89200000Y33300000D01*
X70000000Y48700000D02*
X89200000Y48700000D01*
X70000000Y48700000D02*
X70000000Y42200000D01*
X70000000Y39800000D02*
X70000000Y33300000D01*
%TO.C,J3*%
X22950000Y15750000D02*
X22950000Y9800000D01*
X22950000Y9800000D02*
X35550000Y9800000D01*
X35550000Y9800000D02*
X35550000Y15750000D01*
X35550000Y15750000D02*
X22950000Y15750000D01*
X26250000Y15750000D02*
X26250000Y15000000D01*
X26250000Y15000000D02*
X32250000Y15000000D01*
X32250000Y15000000D02*
X32250000Y15750000D01*
X32250000Y15750000D02*
X26250000Y15750000D01*
X22950000Y15750000D02*
X22950000Y15000000D01*
X22950000Y15000000D02*
X24750000Y15000000D01*
X24750000Y15000000D02*
X24750000Y15750000D01*
X24750000Y15750000D02*
X22950000Y15750000D01*
X33750000Y15750000D02*
X33750000Y15000000D01*
X33750000Y15000000D02*
X35550000Y15000000D01*
X35550000Y15000000D02*
X35550000Y15750000D01*
X35550000Y15750000D02*
X33750000Y15750000D01*
X22950000Y13500000D02*
X23700000Y13500000D01*
X23700000Y13500000D02*
X23700000Y10550000D01*
X23700000Y10550000D02*
X29250000Y10550000D01*
X35550000Y13500000D02*
X34800000Y13500000D01*
X34800000Y13500000D02*
X34800000Y10550000D01*
X34800000Y10550000D02*
X29250000Y10550000D01*
X25150000Y16050000D02*
X22650000Y16050000D01*
X22650000Y16050000D02*
X22650000Y13550000D01*
%TO.C,J2*%
X83680000Y58280000D02*
G75*
G03*
X83680000Y58280000I-1680000J0D01*
G01*
X86100000Y50600000D02*
X86100000Y60880000D01*
X84600000Y50600000D02*
X84600000Y60880000D01*
X79699000Y50600000D02*
X79699000Y60880000D01*
X76739000Y50600000D02*
X76739000Y60880000D01*
X86660000Y50600000D02*
X86660000Y60880000D01*
X76739000Y50600000D02*
X86660000Y50600000D01*
X76739000Y60880000D02*
X86660000Y60880000D01*
X80931000Y59555000D02*
X80977000Y59508000D01*
X83239000Y57246000D02*
X83274000Y57211000D01*
X80725000Y59350000D02*
X80761000Y59315000D01*
X83023000Y57053000D02*
X83069000Y57006000D01*
X86160000Y50360000D02*
X86900000Y50360000D01*
X86900000Y50360000D02*
X86900000Y50860000D01*
X85000000Y55700000D02*
X86000000Y55200000D01*
X86000000Y55200000D02*
X86000000Y56200000D01*
X86000000Y56200000D02*
X85000000Y55700000D01*
X83680253Y53228805D02*
G75*
G02*
X83535000Y52516000I-1680253J-28805D01*
G01*
X82683042Y51664574D02*
G75*
G02*
X81316000Y51665000I-683042J1535426D01*
G01*
X80464574Y52516958D02*
G75*
G02*
X80465000Y53884000I1535426J683042D01*
G01*
X81316958Y54735426D02*
G75*
G02*
X82684000Y54735000I683042J-1535426D01*
G01*
X83534756Y53883318D02*
G75*
G02*
X83680000Y53200000I-1534756J-683318D01*
G01*
%TO.C,XA1*%
D10*
X45936380Y10257905D02*
X46936380Y10924572D01*
X45936380Y10924572D02*
X46936380Y10257905D01*
X46650666Y11257905D02*
X46650666Y11734096D01*
X46936380Y11162667D02*
X45936380Y11496000D01*
X46936380Y11829334D01*
X46936380Y12686477D02*
X46936380Y12115048D01*
X46936380Y12400762D02*
X45936380Y12400762D01*
X46079238Y12305524D01*
X46174476Y12210286D01*
X46222095Y12115048D01*
D16*
X79004761Y12973810D02*
X78766666Y12973810D01*
X78742857Y12735715D01*
X78766666Y12759524D01*
X78814285Y12783334D01*
X78933333Y12783334D01*
X78980952Y12759524D01*
X79004761Y12735715D01*
X79028571Y12688096D01*
X79028571Y12569048D01*
X79004761Y12521429D01*
X78980952Y12497620D01*
X78933333Y12473810D01*
X78814285Y12473810D01*
X78766666Y12497620D01*
X78742857Y12521429D01*
X79171428Y12973810D02*
X79338095Y12473810D01*
X79504761Y12973810D01*
X46591190Y17469048D02*
X46995952Y17469048D01*
X47043571Y17492858D01*
X47067380Y17516667D01*
X47091190Y17564286D01*
X47091190Y17659524D01*
X47067380Y17707143D01*
X47043571Y17730953D01*
X46995952Y17754762D01*
X46591190Y17754762D01*
X47067380Y17969048D02*
X47091190Y18040477D01*
X47091190Y18159524D01*
X47067380Y18207143D01*
X47043571Y18230953D01*
X46995952Y18254762D01*
X46948333Y18254762D01*
X46900714Y18230953D01*
X46876904Y18207143D01*
X46853095Y18159524D01*
X46829285Y18064286D01*
X46805476Y18016667D01*
X46781666Y17992858D01*
X46734047Y17969048D01*
X46686428Y17969048D01*
X46638809Y17992858D01*
X46615000Y18016667D01*
X46591190Y18064286D01*
X46591190Y18183334D01*
X46615000Y18254762D01*
X46829285Y18635715D02*
X46853095Y18707143D01*
X46876904Y18730953D01*
X46924523Y18754762D01*
X46995952Y18754762D01*
X47043571Y18730953D01*
X47067380Y18707143D01*
X47091190Y18659524D01*
X47091190Y18469048D01*
X46591190Y18469048D01*
X46591190Y18635715D01*
X46615000Y18683334D01*
X46638809Y18707143D01*
X46686428Y18730953D01*
X46734047Y18730953D01*
X46781666Y18707143D01*
X46805476Y18683334D01*
X46829285Y18635715D01*
X46829285Y18469048D01*
%TO.C,C101*%
D11*
X84021428Y20464286D02*
X83950000Y20392858D01*
X83735714Y20321429D01*
X83592857Y20321429D01*
X83378571Y20392858D01*
X83235714Y20535715D01*
X83164285Y20678572D01*
X83092857Y20964286D01*
X83092857Y21178572D01*
X83164285Y21464286D01*
X83235714Y21607143D01*
X83378571Y21750000D01*
X83592857Y21821429D01*
X83735714Y21821429D01*
X83950000Y21750000D01*
X84021428Y21678572D01*
X85450000Y20321429D02*
X84592857Y20321429D01*
X85021428Y20321429D02*
X85021428Y21821429D01*
X84878571Y21607143D01*
X84735714Y21464286D01*
X84592857Y21392858D01*
X86378571Y21821429D02*
X86521428Y21821429D01*
X86664285Y21750000D01*
X86735714Y21678572D01*
X86807142Y21535715D01*
X86878571Y21250000D01*
X86878571Y20892858D01*
X86807142Y20607143D01*
X86735714Y20464286D01*
X86664285Y20392858D01*
X86521428Y20321429D01*
X86378571Y20321429D01*
X86235714Y20392858D01*
X86164285Y20464286D01*
X86092857Y20607143D01*
X86021428Y20892858D01*
X86021428Y21250000D01*
X86092857Y21535715D01*
X86164285Y21678572D01*
X86235714Y21750000D01*
X86378571Y21821429D01*
X88307142Y20321429D02*
X87450000Y20321429D01*
X87878571Y20321429D02*
X87878571Y21821429D01*
X87735714Y21607143D01*
X87592857Y21464286D01*
X87450000Y21392858D01*
D10*
X84704761Y16242858D02*
X84657142Y16195239D01*
X84514285Y16147620D01*
X84419047Y16147620D01*
X84276190Y16195239D01*
X84180952Y16290477D01*
X84133333Y16385715D01*
X84085714Y16576191D01*
X84085714Y16719048D01*
X84133333Y16909524D01*
X84180952Y17004762D01*
X84276190Y17100000D01*
X84419047Y17147620D01*
X84514285Y17147620D01*
X84657142Y17100000D01*
X84704761Y17052381D01*
X85133333Y16147620D02*
X85133333Y17147620D01*
X85514285Y17147620D01*
X85609523Y17100000D01*
X85657142Y17052381D01*
X85704761Y16957143D01*
X85704761Y16814286D01*
X85657142Y16719048D01*
X85609523Y16671429D01*
X85514285Y16623810D01*
X85133333Y16623810D01*
X86561904Y16814286D02*
X86561904Y16147620D01*
X86323809Y17195239D02*
X86085714Y16480953D01*
X86704761Y16480953D01*
X86990476Y17147620D02*
X87657142Y17147620D01*
X87228571Y16147620D01*
X88038095Y16814286D02*
X88038095Y15814286D01*
X88514285Y16290477D02*
X88561904Y16195239D01*
X88657142Y16147620D01*
X88038095Y16290477D02*
X88085714Y16195239D01*
X88180952Y16147620D01*
X88371428Y16147620D01*
X88466666Y16195239D01*
X88514285Y16290477D01*
X88514285Y16814286D01*
X89419047Y16671429D02*
X89085714Y16671429D01*
X89085714Y16147620D02*
X89085714Y17147620D01*
X89561904Y17147620D01*
%TO.C,J1*%
X18412380Y53246667D02*
X19126666Y53246667D01*
X19269523Y53199048D01*
X19364761Y53103810D01*
X19412380Y52960953D01*
X19412380Y52865715D01*
X19412380Y54246667D02*
X19412380Y53675239D01*
X19412380Y53960953D02*
X18412380Y53960953D01*
X18555238Y53865715D01*
X18650476Y53770477D01*
X18698095Y53675239D01*
%TO.C,R101*%
X59452380Y39380953D02*
X58976190Y39047620D01*
X59452380Y38809524D02*
X58452380Y38809524D01*
X58452380Y39190477D01*
X58500000Y39285715D01*
X58547619Y39333334D01*
X58642857Y39380953D01*
X58785714Y39380953D01*
X58880952Y39333334D01*
X58928571Y39285715D01*
X58976190Y39190477D01*
X58976190Y38809524D01*
X59452380Y40333334D02*
X59452380Y39761905D01*
X59452380Y40047620D02*
X58452380Y40047620D01*
X58595238Y39952381D01*
X58690476Y39857143D01*
X58738095Y39761905D01*
X58452380Y40952381D02*
X58452380Y41047620D01*
X58500000Y41142858D01*
X58547619Y41190477D01*
X58642857Y41238096D01*
X58833333Y41285715D01*
X59071428Y41285715D01*
X59261904Y41238096D01*
X59357142Y41190477D01*
X59404761Y41142858D01*
X59452380Y41047620D01*
X59452380Y40952381D01*
X59404761Y40857143D01*
X59357142Y40809524D01*
X59261904Y40761905D01*
X59071428Y40714286D01*
X58833333Y40714286D01*
X58642857Y40761905D01*
X58547619Y40809524D01*
X58500000Y40857143D01*
X58452380Y40952381D01*
X59452380Y42238096D02*
X59452380Y41666667D01*
X59452380Y41952381D02*
X58452380Y41952381D01*
X58595238Y41857143D01*
X58690476Y41761905D01*
X58738095Y41666667D01*
X57152380Y39414286D02*
X56676190Y39080953D01*
X57152380Y38842858D02*
X56152380Y38842858D01*
X56152380Y39223810D01*
X56200000Y39319048D01*
X56247619Y39366667D01*
X56342857Y39414286D01*
X56485714Y39414286D01*
X56580952Y39366667D01*
X56628571Y39319048D01*
X56676190Y39223810D01*
X56676190Y38842858D01*
X57152380Y40366667D02*
X57152380Y39795239D01*
X57152380Y40080953D02*
X56152380Y40080953D01*
X56295238Y39985715D01*
X56390476Y39890477D01*
X56438095Y39795239D01*
X57057142Y40795239D02*
X57104761Y40842858D01*
X57152380Y40795239D01*
X57104761Y40747620D01*
X57057142Y40795239D01*
X57152380Y40795239D01*
X56247619Y41223810D02*
X56200000Y41271429D01*
X56152380Y41366667D01*
X56152380Y41604762D01*
X56200000Y41700000D01*
X56247619Y41747620D01*
X56342857Y41795239D01*
X56438095Y41795239D01*
X56580952Y41747620D01*
X57152380Y41176191D01*
X57152380Y41795239D01*
X57152380Y42223810D02*
X56152380Y42223810D01*
X56771428Y42319048D02*
X57152380Y42604762D01*
X56485714Y42604762D02*
X56866666Y42223810D01*
%TO.C,U1*%
X19388095Y23697620D02*
X19388095Y22888096D01*
X19435714Y22792858D01*
X19483333Y22745239D01*
X19578571Y22697620D01*
X19769047Y22697620D01*
X19864285Y22745239D01*
X19911904Y22792858D01*
X19959523Y22888096D01*
X19959523Y23697620D01*
X20959523Y22697620D02*
X20388095Y22697620D01*
X20673809Y22697620D02*
X20673809Y23697620D01*
X20578571Y23554762D01*
X20483333Y23459524D01*
X20388095Y23411905D01*
%TO.C,D2*%
D17*
X63149428Y37675143D02*
X61625428Y37675143D01*
X61625428Y38038000D01*
X61698000Y38255715D01*
X61843142Y38400858D01*
X61988285Y38473429D01*
X62278571Y38546000D01*
X62496285Y38546000D01*
X62786571Y38473429D01*
X62931714Y38400858D01*
X63076857Y38255715D01*
X63149428Y38038000D01*
X63149428Y37675143D01*
X61770571Y39126572D02*
X61698000Y39199143D01*
X61625428Y39344286D01*
X61625428Y39707143D01*
X61698000Y39852286D01*
X61770571Y39924858D01*
X61915714Y39997429D01*
X62060857Y39997429D01*
X62278571Y39924858D01*
X63149428Y39054000D01*
X63149428Y39997429D01*
D10*
X67952380Y33880953D02*
X66952380Y33880953D01*
X66952380Y34119048D01*
X67000000Y34261905D01*
X67095238Y34357143D01*
X67190476Y34404762D01*
X67380952Y34452381D01*
X67523809Y34452381D01*
X67714285Y34404762D01*
X67809523Y34357143D01*
X67904761Y34261905D01*
X67952380Y34119048D01*
X67952380Y33880953D01*
X67952380Y34880953D02*
X67285714Y34880953D01*
X66952380Y34880953D02*
X67000000Y34833334D01*
X67047619Y34880953D01*
X67000000Y34928572D01*
X66952380Y34880953D01*
X67047619Y34880953D01*
X67952380Y35500000D02*
X67904761Y35404762D01*
X67857142Y35357143D01*
X67761904Y35309524D01*
X67476190Y35309524D01*
X67380952Y35357143D01*
X67333333Y35404762D01*
X67285714Y35500000D01*
X67285714Y35642858D01*
X67333333Y35738096D01*
X67380952Y35785715D01*
X67476190Y35833334D01*
X67761904Y35833334D01*
X67857142Y35785715D01*
X67904761Y35738096D01*
X67952380Y35642858D01*
X67952380Y35500000D01*
X67952380Y36690477D02*
X66952380Y36690477D01*
X67904761Y36690477D02*
X67952380Y36595239D01*
X67952380Y36404762D01*
X67904761Y36309524D01*
X67857142Y36261905D01*
X67761904Y36214286D01*
X67476190Y36214286D01*
X67380952Y36261905D01*
X67333333Y36309524D01*
X67285714Y36404762D01*
X67285714Y36595239D01*
X67333333Y36690477D01*
X67904761Y37547620D02*
X67952380Y37452381D01*
X67952380Y37261905D01*
X67904761Y37166667D01*
X67809523Y37119048D01*
X67428571Y37119048D01*
X67333333Y37166667D01*
X67285714Y37261905D01*
X67285714Y37452381D01*
X67333333Y37547620D01*
X67428571Y37595239D01*
X67523809Y37595239D01*
X67619047Y37119048D01*
X68047619Y37785715D02*
X68047619Y38547620D01*
X67952380Y39309524D02*
X67952380Y38738096D01*
X67952380Y39023810D02*
X66952380Y39023810D01*
X67095238Y38928572D01*
X67190476Y38833334D01*
X67238095Y38738096D01*
X67952380Y39738096D02*
X66952380Y39738096D01*
X67952380Y40309524D01*
X66952380Y40309524D01*
X67285714Y41214286D02*
X67952380Y41214286D01*
X66904761Y40976191D02*
X67619047Y40738096D01*
X67619047Y41357143D01*
X67952380Y42261905D02*
X67952380Y41690477D01*
X67952380Y41976191D02*
X66952380Y41976191D01*
X67095238Y41880953D01*
X67190476Y41785715D01*
X67238095Y41690477D01*
X67285714Y43119048D02*
X67952380Y43119048D01*
X66904761Y42880953D02*
X67619047Y42642858D01*
X67619047Y43261905D01*
X67380952Y43785715D02*
X67333333Y43690477D01*
X67285714Y43642858D01*
X67190476Y43595239D01*
X67142857Y43595239D01*
X67047619Y43642858D01*
X67000000Y43690477D01*
X66952380Y43785715D01*
X66952380Y43976191D01*
X67000000Y44071429D01*
X67047619Y44119048D01*
X67142857Y44166667D01*
X67190476Y44166667D01*
X67285714Y44119048D01*
X67333333Y44071429D01*
X67380952Y43976191D01*
X67380952Y43785715D01*
X67428571Y43690477D01*
X67476190Y43642858D01*
X67571428Y43595239D01*
X67761904Y43595239D01*
X67857142Y43642858D01*
X67904761Y43690477D01*
X67952380Y43785715D01*
X67952380Y43976191D01*
X67904761Y44071429D01*
X67857142Y44119048D01*
X67761904Y44166667D01*
X67571428Y44166667D01*
X67476190Y44119048D01*
X67428571Y44071429D01*
X67380952Y43976191D01*
%TO.C,TR1*%
X56057142Y51252381D02*
X56104761Y51300000D01*
X56200000Y51347620D01*
X56438095Y51347620D01*
X56533333Y51300000D01*
X56580952Y51252381D01*
X56628571Y51157143D01*
X56628571Y51061905D01*
X56580952Y50919048D01*
X56009523Y50347620D01*
X56628571Y50347620D01*
X57057142Y50347620D02*
X57057142Y51347620D01*
X57628571Y50347620D01*
X57628571Y51347620D01*
X58057142Y51252381D02*
X58104761Y51300000D01*
X58200000Y51347620D01*
X58438095Y51347620D01*
X58533333Y51300000D01*
X58580952Y51252381D01*
X58628571Y51157143D01*
X58628571Y51061905D01*
X58580952Y50919048D01*
X58009523Y50347620D01*
X58628571Y50347620D01*
X59009523Y51252381D02*
X59057142Y51300000D01*
X59152380Y51347620D01*
X59390476Y51347620D01*
X59485714Y51300000D01*
X59533333Y51252381D01*
X59580952Y51157143D01*
X59580952Y51061905D01*
X59533333Y50919048D01*
X58961904Y50347620D01*
X59580952Y50347620D01*
X59961904Y51252381D02*
X60009523Y51300000D01*
X60104761Y51347620D01*
X60342857Y51347620D01*
X60438095Y51300000D01*
X60485714Y51252381D01*
X60533333Y51157143D01*
X60533333Y51061905D01*
X60485714Y50919048D01*
X59914285Y50347620D01*
X60533333Y50347620D01*
X60914285Y51252381D02*
X60961904Y51300000D01*
X61057142Y51347620D01*
X61295238Y51347620D01*
X61390476Y51300000D01*
X61438095Y51252381D01*
X61485714Y51157143D01*
X61485714Y51061905D01*
X61438095Y50919048D01*
X60866666Y50347620D01*
X61485714Y50347620D01*
X61866666Y50633334D02*
X62342857Y50633334D01*
X61771428Y50347620D02*
X62104761Y51347620D01*
X62438095Y50347620D01*
%TO.C,U101*%
X30285714Y53147620D02*
X30285714Y52338096D01*
X30333333Y52242858D01*
X30380952Y52195239D01*
X30476190Y52147620D01*
X30666666Y52147620D01*
X30761904Y52195239D01*
X30809523Y52242858D01*
X30857142Y52338096D01*
X30857142Y53147620D01*
X31857142Y52147620D02*
X31285714Y52147620D01*
X31571428Y52147620D02*
X31571428Y53147620D01*
X31476190Y53004762D01*
X31380952Y52909524D01*
X31285714Y52861905D01*
X32476190Y53147620D02*
X32571428Y53147620D01*
X32666666Y53100000D01*
X32714285Y53052381D01*
X32761904Y52957143D01*
X32809523Y52766667D01*
X32809523Y52528572D01*
X32761904Y52338096D01*
X32714285Y52242858D01*
X32666666Y52195239D01*
X32571428Y52147620D01*
X32476190Y52147620D01*
X32380952Y52195239D01*
X32333333Y52242858D01*
X32285714Y52338096D01*
X32238095Y52528572D01*
X32238095Y52766667D01*
X32285714Y52957143D01*
X32333333Y53052381D01*
X32380952Y53100000D01*
X32476190Y53147620D01*
X33761904Y52147620D02*
X33190476Y52147620D01*
X33476190Y52147620D02*
X33476190Y53147620D01*
X33380952Y53004762D01*
X33285714Y52909524D01*
X33190476Y52861905D01*
X29261904Y54647620D02*
X29261904Y55647620D01*
X29595238Y54933334D01*
X29928571Y55647620D01*
X29928571Y54647620D01*
X30404761Y54647620D02*
X30404761Y55647620D01*
X30785714Y55647620D01*
X30880952Y55600000D01*
X30928571Y55552381D01*
X30976190Y55457143D01*
X30976190Y55314286D01*
X30928571Y55219048D01*
X30880952Y55171429D01*
X30785714Y55123810D01*
X30404761Y55123810D01*
X31928571Y54647620D02*
X31357142Y54647620D01*
X31642857Y54647620D02*
X31642857Y55647620D01*
X31547619Y55504762D01*
X31452380Y55409524D01*
X31357142Y55361905D01*
X32833333Y55647620D02*
X32357142Y55647620D01*
X32309523Y55171429D01*
X32357142Y55219048D01*
X32452380Y55266667D01*
X32690476Y55266667D01*
X32785714Y55219048D01*
X32833333Y55171429D01*
X32880952Y55076191D01*
X32880952Y54838096D01*
X32833333Y54742858D01*
X32785714Y54695239D01*
X32690476Y54647620D01*
X32452380Y54647620D01*
X32357142Y54695239D01*
X32309523Y54742858D01*
X33452380Y55219048D02*
X33357142Y55266667D01*
X33309523Y55314286D01*
X33261904Y55409524D01*
X33261904Y55457143D01*
X33309523Y55552381D01*
X33357142Y55600000D01*
X33452380Y55647620D01*
X33642857Y55647620D01*
X33738095Y55600000D01*
X33785714Y55552381D01*
X33833333Y55457143D01*
X33833333Y55409524D01*
X33785714Y55314286D01*
X33738095Y55266667D01*
X33642857Y55219048D01*
X33452380Y55219048D01*
X33357142Y55171429D01*
X33309523Y55123810D01*
X33261904Y55028572D01*
X33261904Y54838096D01*
X33309523Y54742858D01*
X33357142Y54695239D01*
X33452380Y54647620D01*
X33642857Y54647620D01*
X33738095Y54695239D01*
X33785714Y54742858D01*
X33833333Y54838096D01*
X33833333Y55028572D01*
X33785714Y55123810D01*
X33738095Y55171429D01*
X33642857Y55219048D01*
X34690476Y55314286D02*
X34690476Y54647620D01*
X34452380Y55695239D02*
X34214285Y54980953D01*
X34833333Y54980953D01*
X36190476Y47028572D02*
X36952380Y47028572D01*
X36571428Y46647620D02*
X36571428Y47409524D01*
X37619047Y47647620D02*
X37809523Y47647620D01*
X37904761Y47600000D01*
X38000000Y47504762D01*
X38047619Y47314286D01*
X38047619Y46980953D01*
X38000000Y46790477D01*
X37904761Y46695239D01*
X37809523Y46647620D01*
X37619047Y46647620D01*
X37523809Y46695239D01*
X37428571Y46790477D01*
X37380952Y46980953D01*
X37380952Y47314286D01*
X37428571Y47504762D01*
X37523809Y47600000D01*
X37619047Y47647620D01*
X38476190Y47647620D02*
X38476190Y46838096D01*
X38523809Y46742858D01*
X38571428Y46695239D01*
X38666666Y46647620D01*
X38857142Y46647620D01*
X38952380Y46695239D01*
X39000000Y46742858D01*
X39047619Y46838096D01*
X39047619Y47647620D01*
X39380952Y47647620D02*
X39952380Y47647620D01*
X39666666Y46647620D02*
X39666666Y47647620D01*
X36190476Y60028572D02*
X36952380Y60028572D01*
X37619047Y60647620D02*
X37809523Y60647620D01*
X37904761Y60600000D01*
X38000000Y60504762D01*
X38047619Y60314286D01*
X38047619Y59980953D01*
X38000000Y59790477D01*
X37904761Y59695239D01*
X37809523Y59647620D01*
X37619047Y59647620D01*
X37523809Y59695239D01*
X37428571Y59790477D01*
X37380952Y59980953D01*
X37380952Y60314286D01*
X37428571Y60504762D01*
X37523809Y60600000D01*
X37619047Y60647620D01*
X38476190Y60647620D02*
X38476190Y59838096D01*
X38523809Y59742858D01*
X38571428Y59695239D01*
X38666666Y59647620D01*
X38857142Y59647620D01*
X38952380Y59695239D01*
X39000000Y59742858D01*
X39047619Y59838096D01*
X39047619Y60647620D01*
X39380952Y60647620D02*
X39952380Y60647620D01*
X39666666Y59647620D02*
X39666666Y60647620D01*
X24357142Y47028572D02*
X25119047Y47028572D01*
X24738095Y46647620D02*
X24738095Y47409524D01*
X25595238Y46647620D02*
X25595238Y47647620D01*
X26071428Y46647620D02*
X26071428Y47647620D01*
X26642857Y46647620D01*
X26642857Y47647620D01*
X23857142Y60028572D02*
X24619047Y60028572D01*
X25095238Y59647620D02*
X25095238Y60647620D01*
X25571428Y59647620D02*
X25571428Y60647620D01*
X26142857Y59647620D01*
X26142857Y60647620D01*
%TO.C,K1*%
X78861904Y31347620D02*
X78861904Y32347620D01*
X79433333Y31347620D02*
X79004761Y31919048D01*
X79433333Y32347620D02*
X78861904Y31776191D01*
X80385714Y31347620D02*
X79814285Y31347620D01*
X80100000Y31347620D02*
X80100000Y32347620D01*
X80004761Y32204762D01*
X79909523Y32109524D01*
X79814285Y32061905D01*
%TO.C,J3*%
X28916666Y17347620D02*
X28916666Y16633334D01*
X28869047Y16490477D01*
X28773809Y16395239D01*
X28630952Y16347620D01*
X28535714Y16347620D01*
X29297619Y17347620D02*
X29916666Y17347620D01*
X29583333Y16966667D01*
X29726190Y16966667D01*
X29821428Y16919048D01*
X29869047Y16871429D01*
X29916666Y16776191D01*
X29916666Y16538096D01*
X29869047Y16442858D01*
X29821428Y16395239D01*
X29726190Y16347620D01*
X29440476Y16347620D01*
X29345238Y16395239D01*
X29297619Y16442858D01*
%TO.C,J2*%
X75192380Y55406667D02*
X75906666Y55406667D01*
X76049523Y55359048D01*
X76144761Y55263810D01*
X76192380Y55120953D01*
X76192380Y55025715D01*
X75287619Y55835239D02*
X75240000Y55882858D01*
X75192380Y55978096D01*
X75192380Y56216191D01*
X75240000Y56311429D01*
X75287619Y56359048D01*
X75382857Y56406667D01*
X75478095Y56406667D01*
X75620952Y56359048D01*
X76192380Y55787620D01*
X76192380Y56406667D01*
%TD*%
M02*
