M48
; DRILL file {KiCad (5.1.8)-1} date 04/03/23 09:18:16
; FORMAT={-:-/ absolute / metric / decimal}
; #@! TF.CreationDate,2023-04-03T09:18:16+02:00
; #@! TF.GenerationSoftware,Kicad,Pcbnew,(5.1.8)-1
FMAT,2
METRIC
T1C0.700
T2C0.900
T3C1.000
T4C1.100
T5C1.300
T6C3.000
%
G90
G05
T1
X56.8Y55.4
X59.03Y53.4
X61.3Y55.4
X65.0Y42.61
X65.0Y34.99
X79.225Y18.0
X79.225Y16.0
X59.0Y45.4
X59.0Y35.4
T2
X37.8Y34.88
X37.8Y32.34
X37.8Y29.8
X37.8Y27.26
T3
X22.75Y60.2
X22.75Y47.0
X41.25Y60.2
X41.25Y47.0
X51.31Y25.72
X51.31Y10.48
X53.85Y25.72
X53.85Y10.48
X56.39Y25.72
X56.39Y10.48
X58.93Y25.72
X58.93Y10.48
X61.47Y25.72
X61.47Y10.48
X64.01Y25.72
X64.01Y10.48
X66.55Y25.72
X66.55Y10.48
X69.09Y25.72
X69.09Y10.48
X71.63Y25.72
X71.63Y10.48
X74.17Y25.72
X74.17Y10.48
X76.71Y25.72
X76.71Y10.48
X79.25Y25.72
X79.25Y10.48
X81.79Y25.72
X81.79Y10.48
X84.33Y25.72
X84.33Y10.48
X86.87Y25.72
X86.87Y10.48
X25.5Y13.3
X28.0Y13.3
X30.5Y13.3
X33.0Y13.3
T4
X71.5Y41.0
X73.5Y47.0
X73.5Y35.0
X85.7Y47.0
X85.7Y35.0
X82.0Y58.28
X82.0Y53.2
T5
X12.7Y61.2
X12.7Y56.12
X12.7Y51.04
X12.7Y45.96
T6
X5.0Y65.0
X95.0Y65.0
X5.0Y5.0
X95.0Y5.0
T0
M30
