%TF.GenerationSoftware,KiCad,Pcbnew,(5.1.9)-1*%
%TF.CreationDate,2023-04-07T23:32:55+02:00*%
%TF.ProjectId,CommandeJF,436f6d6d-616e-4646-954a-462e6b696361,rev?*%
%TF.SameCoordinates,PX6422c40PY68e7780*%
%TF.FileFunction,Copper,L2,Bot*%
%TF.FilePolarity,Positive*%
%FSLAX46Y46*%
G04 Gerber Fmt 4.6, Leading zero omitted, Abs format (unit mm)*
G04 Created by KiCad (PCBNEW (5.1.9)-1) date 2023-04-07 23:32:55*
%MOMM*%
%LPD*%
G01*
G04 APERTURE LIST*
%TA.AperFunction,ComponentPad*%
%ADD10O,1.800000X2.500000*%
%TD*%
%TA.AperFunction,ComponentPad*%
%ADD11R,1.800000X2.500000*%
%TD*%
%TA.AperFunction,ComponentPad*%
%ADD12R,1.700000X2.800000*%
%TD*%
%TA.AperFunction,ComponentPad*%
%ADD13O,1.700000X2.800000*%
%TD*%
%TA.AperFunction,ComponentPad*%
%ADD14C,3.000000*%
%TD*%
%TA.AperFunction,ComponentPad*%
%ADD15R,3.000000X3.000000*%
%TD*%
%TA.AperFunction,ComponentPad*%
%ADD16C,2.500000*%
%TD*%
%TA.AperFunction,ComponentPad*%
%ADD17O,3.000000X2.000000*%
%TD*%
%TA.AperFunction,ComponentPad*%
%ADD18O,2.000000X3.000000*%
%TD*%
%TA.AperFunction,ComponentPad*%
%ADD19R,2.000000X3.000000*%
%TD*%
%TA.AperFunction,Conductor*%
%ADD20C,2.000000*%
%TD*%
%TA.AperFunction,Conductor*%
%ADD21C,1.000000*%
%TD*%
%TA.AperFunction,Conductor*%
%ADD22C,1.500000*%
%TD*%
%TA.AperFunction,Conductor*%
%ADD23C,0.254000*%
%TD*%
%TA.AperFunction,Conductor*%
%ADD24C,0.200000*%
%TD*%
G04 APERTURE END LIST*
D10*
%TO.P,TR1,1*%
%TO.N,GND*%
X52400000Y56400000D03*
%TO.P,TR1,3*%
%TO.N,Net-(D2-Pad2)*%
X56900000Y56400000D03*
D11*
%TO.P,TR1,2*%
%TO.N,Net-(R101-Pad1)*%
X54670000Y58400000D03*
%TD*%
D12*
%TO.P,XA1,D1*%
%TO.N,N/C*%
X87570000Y27020000D03*
D13*
%TO.P,XA1,D0*%
X85030000Y27020000D03*
%TO.P,XA1,RST1*%
X82490000Y27020000D03*
%TO.P,XA1,GND1*%
%TO.N,GND*%
X79950000Y27020000D03*
%TO.P,XA1,D2*%
%TO.N,N/C*%
X77410000Y27020000D03*
%TO.P,XA1,D3*%
X74870000Y27020000D03*
%TO.P,XA1,D4*%
X72330000Y27020000D03*
%TO.P,XA1,D5*%
X69790000Y27020000D03*
%TO.P,XA1,D6*%
X67250000Y27020000D03*
%TO.P,XA1,D7*%
X64710000Y27020000D03*
%TO.P,XA1,D8*%
X62170000Y27020000D03*
%TO.P,XA1,D9*%
X59630000Y27020000D03*
%TO.P,XA1,D10*%
X57090000Y27020000D03*
%TO.P,XA1,D11*%
%TO.N,SIG*%
X54550000Y27020000D03*
%TO.P,XA1,D12*%
%TO.N,N/C*%
X52010000Y27020000D03*
%TO.P,XA1,D13*%
X52010000Y11780000D03*
%TO.P,XA1,3V3*%
X54550000Y11780000D03*
%TO.P,XA1,AREF*%
X57090000Y11780000D03*
%TO.P,XA1,A0*%
X59630000Y11780000D03*
%TO.P,XA1,A1*%
X62170000Y11780000D03*
%TO.P,XA1,A2*%
X64710000Y11780000D03*
%TO.P,XA1,A3*%
X67250000Y11780000D03*
%TO.P,XA1,A4*%
%TO.N,SDA*%
X69790000Y11780000D03*
%TO.P,XA1,A5*%
%TO.N,SCL*%
X72330000Y11780000D03*
%TO.P,XA1,A6*%
%TO.N,N/C*%
X74870000Y11780000D03*
%TO.P,XA1,A7*%
X77410000Y11780000D03*
%TO.P,XA1,5V*%
%TO.N,+5V*%
X79950000Y11780000D03*
%TO.P,XA1,RST2*%
%TO.N,N/C*%
X82490000Y11780000D03*
%TO.P,XA1,GND2*%
X85030000Y11780000D03*
%TO.P,XA1,VIN*%
%TO.N,+12V*%
X87570000Y11780000D03*
%TD*%
D14*
%TO.P,J1,4*%
%TO.N,+24V*%
X13400000Y48360000D03*
%TO.P,J1,3*%
%TO.N,Net-(J1-Pad2)*%
X13400000Y53440000D03*
%TO.P,J1,2*%
X13400000Y58520000D03*
D15*
%TO.P,J1,1*%
%TO.N,GND1*%
X13400000Y63600000D03*
%TD*%
D16*
%TO.P,R101,1*%
%TO.N,Net-(R101-Pad1)*%
X54600000Y46100000D03*
%TO.P,R101,2*%
%TO.N,SIG*%
X54600000Y36100000D03*
%TD*%
D17*
%TO.P,U1,1*%
%TO.N,SCL*%
X38500000Y28560000D03*
%TO.P,U1,2*%
%TO.N,SDA*%
X38500000Y31100000D03*
%TO.P,U1,3*%
%TO.N,+5V*%
X38500000Y33640000D03*
%TO.P,U1,4*%
%TO.N,GND*%
X38500000Y36180000D03*
%TD*%
D16*
%TO.P,D2,1*%
%TO.N,+12V*%
X65700000Y40890000D03*
%TO.P,D2,2*%
%TO.N,Net-(D2-Pad2)*%
X65700000Y48510000D03*
%TD*%
D14*
%TO.P,U101,4*%
%TO.N,+12V*%
X41950000Y48300000D03*
%TO.P,U101,3*%
%TO.N,GND*%
X41950000Y61500000D03*
%TO.P,U101,2*%
%TO.N,+24V*%
X23450000Y48300000D03*
%TO.P,U101,1*%
%TO.N,GND1*%
X23450000Y61500000D03*
%TD*%
%TO.P,K1,11*%
%TO.N,+24V*%
X72200000Y42300000D03*
%TO.P,K1,A2*%
%TO.N,Net-(D2-Pad2)*%
X74200000Y48300000D03*
%TO.P,K1,12*%
%TO.N,N/C*%
X86400000Y48300000D03*
%TO.P,K1,14*%
%TO.N,Net-(J2-Pad1)*%
X86400000Y36300000D03*
%TO.P,K1,A1*%
%TO.N,+12V*%
X74200000Y36300000D03*
%TD*%
D18*
%TO.P,J3,4*%
%TO.N,SDA*%
X33700000Y14600000D03*
%TO.P,J3,3*%
%TO.N,SCL*%
X31200000Y14600000D03*
%TO.P,J3,2*%
%TO.N,+5V*%
X28700000Y14600000D03*
D19*
%TO.P,J3,1*%
%TO.N,GND*%
X26200000Y14600000D03*
%TD*%
D14*
%TO.P,J2,2*%
%TO.N,Net-(J2-Pad1)*%
X82700000Y59580000D03*
D15*
%TO.P,J2,1*%
X82700000Y54500000D03*
%TD*%
D20*
%TO.N,+24V*%
X23390000Y48360000D02*
X23450000Y48300000D01*
X13400000Y48360000D02*
X23390000Y48360000D01*
X78100000Y42300000D02*
X72200000Y42300000D01*
X78100000Y66600000D02*
X78100000Y42300000D01*
X77700000Y67000000D02*
X78100000Y66600000D01*
X29100000Y48200000D02*
X30200000Y49300000D01*
X23550000Y48200000D02*
X29100000Y48200000D01*
X23450000Y48300000D02*
X23550000Y48200000D01*
X30200000Y49300000D02*
X30200000Y57100000D01*
X30200000Y67000000D02*
X77700000Y67000000D01*
X30200000Y57100000D02*
X30200000Y67000000D01*
D21*
%TO.N,+5V*%
X28800000Y14500000D02*
X28700000Y14600000D01*
X28700000Y14600000D02*
X28700000Y33000000D01*
X29340000Y33640000D02*
X38500000Y33640000D01*
X28700000Y33000000D02*
X29340000Y33640000D01*
X79950000Y11780000D02*
X79950000Y6950000D01*
X79950000Y6950000D02*
X79800000Y6800000D01*
X79800000Y6800000D02*
X28700000Y6800000D01*
X28700000Y6800000D02*
X28700000Y14600000D01*
D20*
%TO.N,Net-(J2-Pad1)*%
X82700000Y54500000D02*
X82700000Y36400000D01*
X86300000Y36400000D02*
X86400000Y36300000D01*
X82700000Y36400000D02*
X86300000Y36400000D01*
X82700000Y54500000D02*
X82700000Y59580000D01*
D21*
%TO.N,SDA*%
X69890000Y19010000D02*
X69800000Y19100000D01*
X33900000Y14800000D02*
X33700000Y14600000D01*
X33700000Y18900000D02*
X33900000Y19100000D01*
X33700000Y14600000D02*
X33700000Y18900000D01*
X38500000Y31100000D02*
X43100000Y31100000D01*
X43100000Y19200000D02*
X43200000Y19100000D01*
X43100000Y31100000D02*
X43100000Y19200000D01*
X43200000Y19100000D02*
X33900000Y19100000D01*
X69800000Y19100000D02*
X43200000Y19100000D01*
X69890000Y11880000D02*
X69790000Y11780000D01*
X69890000Y19010000D02*
X69890000Y11880000D01*
%TO.N,SCL*%
X30900000Y14300000D02*
X31200000Y14600000D01*
X31200000Y14600000D02*
X31200000Y28000000D01*
X31760000Y28560000D02*
X38500000Y28560000D01*
X31200000Y28000000D02*
X31760000Y28560000D01*
X72300000Y11750000D02*
X72330000Y11780000D01*
X72330000Y11780000D02*
X72330000Y8830000D01*
X72330000Y8830000D02*
X72200000Y8700000D01*
X72200000Y8700000D02*
X31000000Y8700000D01*
X31000000Y14400000D02*
X31200000Y14600000D01*
X31000000Y8700000D02*
X31000000Y14400000D01*
%TO.N,SIG*%
X54600000Y27070000D02*
X54550000Y27020000D01*
X54600000Y36100000D02*
X54600000Y27070000D01*
%TO.N,Net-(D2-Pad2)*%
X74210000Y48310000D02*
X74200000Y48300000D01*
X74100000Y48400000D02*
X74200000Y48300000D01*
X74200000Y56200000D02*
X74000000Y56400000D01*
X74200000Y48300000D02*
X74200000Y56200000D01*
X65700000Y56200000D02*
X65900000Y56400000D01*
X65700000Y48510000D02*
X65700000Y56200000D01*
X65900000Y56400000D02*
X74000000Y56400000D01*
X56900000Y56400000D02*
X65900000Y56400000D01*
D20*
%TO.N,GND1*%
X13400000Y63600000D02*
X17000000Y63600000D01*
X19100000Y61500000D02*
X23450000Y61500000D01*
X17000000Y63600000D02*
X19100000Y61500000D01*
D22*
%TO.N,+12V*%
X74190000Y36290000D02*
X74200000Y36300000D01*
X65600000Y40790000D02*
X65700000Y40890000D01*
X74200000Y32700000D02*
X74600000Y32300000D01*
X74200000Y36300000D02*
X74200000Y32700000D01*
X41950000Y41050000D02*
X41950000Y48300000D01*
X42100000Y40900000D02*
X41950000Y41050000D01*
X65690000Y40900000D02*
X42100000Y40900000D01*
X65700000Y40890000D02*
X65690000Y40900000D01*
X87570000Y11780000D02*
X92920000Y11780000D01*
X92920000Y11780000D02*
X93300000Y12160000D01*
X93300000Y12160000D02*
X93300000Y32200000D01*
X74700000Y32200000D02*
X74600000Y32300000D01*
X93300000Y32200000D02*
X74700000Y32200000D01*
X74700000Y32200000D02*
X65800000Y32200000D01*
X65700000Y32300000D02*
X65700000Y40890000D01*
X65800000Y32200000D02*
X65700000Y32300000D01*
D21*
%TO.N,Net-(R101-Pad1)*%
X54670000Y46170000D02*
X54600000Y46100000D01*
X54670000Y58400000D02*
X54670000Y46170000D01*
D20*
%TO.N,Net-(J1-Pad2)*%
X13400000Y58520000D02*
X13400000Y53440000D01*
%TD*%
D23*
%TO.N,GND*%
X98848001Y1152000D02*
X1152000Y1152000D01*
X1152000Y5258737D01*
X2373000Y5258737D01*
X2373000Y4741263D01*
X2473954Y4233732D01*
X2671983Y3755649D01*
X2959476Y3325385D01*
X3325385Y2959476D01*
X3755649Y2671983D01*
X4233732Y2473954D01*
X4741263Y2373000D01*
X5258737Y2373000D01*
X5766268Y2473954D01*
X6244351Y2671983D01*
X6674615Y2959476D01*
X7040524Y3325385D01*
X7328017Y3755649D01*
X7526046Y4233732D01*
X7627000Y4741263D01*
X7627000Y5258737D01*
X7526046Y5766268D01*
X7328017Y6244351D01*
X7040524Y6674615D01*
X6674615Y7040524D01*
X6244351Y7328017D01*
X5766268Y7526046D01*
X5258737Y7627000D01*
X4741263Y7627000D01*
X4233732Y7526046D01*
X3755649Y7328017D01*
X3325385Y7040524D01*
X2959476Y6674615D01*
X2671983Y6244351D01*
X2473954Y5766268D01*
X2373000Y5258737D01*
X1152000Y5258737D01*
X1152000Y13100000D01*
X24561928Y13100000D01*
X24574188Y12975518D01*
X24610498Y12855820D01*
X24669463Y12745506D01*
X24748815Y12648815D01*
X24845506Y12569463D01*
X24955820Y12510498D01*
X25075518Y12474188D01*
X25200000Y12461928D01*
X25914250Y12465000D01*
X26073000Y12623750D01*
X26073000Y14473000D01*
X24723750Y14473000D01*
X24565000Y14314250D01*
X24561928Y13100000D01*
X1152000Y13100000D01*
X1152000Y16100000D01*
X24561928Y16100000D01*
X24565000Y14885750D01*
X24723750Y14727000D01*
X26073000Y14727000D01*
X26073000Y16576250D01*
X25914250Y16735000D01*
X25200000Y16738072D01*
X25075518Y16725812D01*
X24955820Y16689502D01*
X24845506Y16630537D01*
X24748815Y16551185D01*
X24669463Y16454494D01*
X24610498Y16344180D01*
X24574188Y16224482D01*
X24561928Y16100000D01*
X1152000Y16100000D01*
X1152000Y36560434D01*
X36409876Y36560434D01*
X36529223Y36307000D01*
X38373000Y36307000D01*
X38373000Y37815000D01*
X38627000Y37815000D01*
X38627000Y36307000D01*
X40470777Y36307000D01*
X40590124Y36560434D01*
X40559144Y36688355D01*
X40430010Y36982761D01*
X40245922Y37246317D01*
X40013954Y37468895D01*
X39743020Y37641942D01*
X39443532Y37758807D01*
X39127000Y37815000D01*
X38627000Y37815000D01*
X38373000Y37815000D01*
X37873000Y37815000D01*
X37556468Y37758807D01*
X37256980Y37641942D01*
X36986046Y37468895D01*
X36754078Y37246317D01*
X36569990Y36982761D01*
X36440856Y36688355D01*
X36409876Y36560434D01*
X1152000Y36560434D01*
X1152000Y65100000D01*
X10767547Y65100000D01*
X10767547Y62100000D01*
X10789307Y61879069D01*
X10853750Y61666629D01*
X10958400Y61470843D01*
X11099235Y61299235D01*
X11270843Y61158400D01*
X11466629Y61053750D01*
X11679069Y60989307D01*
X11900000Y60967547D01*
X12444219Y60967547D01*
X12155649Y60848017D01*
X11725385Y60560524D01*
X11359476Y60194615D01*
X11071983Y59764351D01*
X10873954Y59286268D01*
X10773000Y58778737D01*
X10773000Y58261263D01*
X10873954Y57753732D01*
X11071983Y57275649D01*
X11273000Y56974805D01*
X11273001Y54985195D01*
X11071983Y54684351D01*
X10873954Y54206268D01*
X10773000Y53698737D01*
X10773000Y53181263D01*
X10873954Y52673732D01*
X11071983Y52195649D01*
X11359476Y51765385D01*
X11725385Y51399476D01*
X12155649Y51111983D01*
X12633732Y50913954D01*
X12703884Y50900000D01*
X12633732Y50886046D01*
X12155649Y50688017D01*
X11725385Y50400524D01*
X11359476Y50034615D01*
X11071983Y49604351D01*
X10873954Y49126268D01*
X10773000Y48618737D01*
X10773000Y48101263D01*
X10873954Y47593732D01*
X11071983Y47115649D01*
X11359476Y46685385D01*
X11725385Y46319476D01*
X12155649Y46031983D01*
X12633732Y45833954D01*
X13141263Y45733000D01*
X13658737Y45733000D01*
X14166268Y45833954D01*
X14644351Y46031983D01*
X14945194Y46233000D01*
X21815009Y46233000D01*
X22205649Y45971983D01*
X22683732Y45773954D01*
X23191263Y45673000D01*
X23708737Y45673000D01*
X24216268Y45773954D01*
X24694351Y45971983D01*
X24845534Y46073000D01*
X28995515Y46073000D01*
X29100000Y46062709D01*
X29204485Y46073000D01*
X29204487Y46073000D01*
X29516965Y46103776D01*
X29917906Y46225401D01*
X30287415Y46422907D01*
X30611293Y46688707D01*
X30677905Y46769874D01*
X31630126Y47722095D01*
X31711293Y47788707D01*
X31977093Y48112585D01*
X32174599Y48482094D01*
X32296224Y48883035D01*
X32327000Y49195513D01*
X32327000Y49195515D01*
X32337291Y49300000D01*
X32327000Y49404485D01*
X32327000Y56273000D01*
X50865000Y56273000D01*
X50865000Y55923000D01*
X50919271Y55625977D01*
X51030446Y55345249D01*
X51194252Y55091604D01*
X51404394Y54874790D01*
X51652796Y54703138D01*
X51929913Y54583245D01*
X52035260Y54558964D01*
X52273000Y54679622D01*
X52273000Y56273000D01*
X50865000Y56273000D01*
X32327000Y56273000D01*
X32327000Y56877000D01*
X50865000Y56877000D01*
X50865000Y56527000D01*
X52273000Y56527000D01*
X52273000Y58120378D01*
X52035260Y58241036D01*
X51929913Y58216755D01*
X51652796Y58096862D01*
X51404394Y57925210D01*
X51194252Y57708396D01*
X51030446Y57454751D01*
X50919271Y57174023D01*
X50865000Y56877000D01*
X32327000Y56877000D01*
X32327000Y60008347D01*
X40637952Y60008347D01*
X40793962Y59692786D01*
X41168745Y59501980D01*
X41573551Y59387956D01*
X41992824Y59355098D01*
X42410451Y59404666D01*
X42810383Y59534757D01*
X43106038Y59692786D01*
X43262048Y60008347D01*
X41950000Y61320395D01*
X40637952Y60008347D01*
X32327000Y60008347D01*
X32327000Y61457176D01*
X39805098Y61457176D01*
X39854666Y61039549D01*
X39984757Y60639617D01*
X40142786Y60343962D01*
X40458347Y60187952D01*
X41770395Y61500000D01*
X42129605Y61500000D01*
X43441653Y60187952D01*
X43757214Y60343962D01*
X43948020Y60718745D01*
X44062044Y61123551D01*
X44094902Y61542824D01*
X44045334Y61960451D01*
X43915243Y62360383D01*
X43757214Y62656038D01*
X43441653Y62812048D01*
X42129605Y61500000D01*
X41770395Y61500000D01*
X40458347Y62812048D01*
X40142786Y62656038D01*
X39951980Y62281255D01*
X39837956Y61876449D01*
X39805098Y61457176D01*
X32327000Y61457176D01*
X32327000Y62991653D01*
X40637952Y62991653D01*
X41950000Y61679605D01*
X43262048Y62991653D01*
X43106038Y63307214D01*
X42731255Y63498020D01*
X42326449Y63612044D01*
X41907176Y63644902D01*
X41489549Y63595334D01*
X41089617Y63465243D01*
X40793962Y63307214D01*
X40637952Y62991653D01*
X32327000Y62991653D01*
X32327000Y64873000D01*
X75973000Y64873000D01*
X75973001Y50242138D01*
X75874615Y50340524D01*
X75827000Y50372339D01*
X75827000Y56120075D01*
X75834872Y56200000D01*
X75803458Y56518947D01*
X75801015Y56527000D01*
X75710425Y56825638D01*
X75559346Y57108286D01*
X75356029Y57356029D01*
X75293945Y57406980D01*
X75206980Y57493945D01*
X75156029Y57556029D01*
X74908286Y57759346D01*
X74625638Y57910425D01*
X74318948Y58003458D01*
X74079925Y58027000D01*
X74079914Y58027000D01*
X74000000Y58034871D01*
X73920086Y58027000D01*
X65979925Y58027000D01*
X65900000Y58034872D01*
X65820075Y58027000D01*
X58474207Y58027000D01*
X58340240Y58190240D01*
X58031589Y58443543D01*
X57679451Y58631764D01*
X57297360Y58747670D01*
X56900000Y58786807D01*
X56702453Y58767350D01*
X56702453Y59650000D01*
X56680693Y59870931D01*
X56616250Y60083371D01*
X56511600Y60279157D01*
X56370765Y60450765D01*
X56199157Y60591600D01*
X56003371Y60696250D01*
X55790931Y60760693D01*
X55570000Y60782453D01*
X53770000Y60782453D01*
X53549069Y60760693D01*
X53336629Y60696250D01*
X53140843Y60591600D01*
X52969235Y60450765D01*
X52828400Y60279157D01*
X52723750Y60083371D01*
X52659307Y59870931D01*
X52637547Y59650000D01*
X52637547Y58176483D01*
X52527000Y58120378D01*
X52527000Y56527000D01*
X52547000Y56527000D01*
X52547000Y56273000D01*
X52527000Y56273000D01*
X52527000Y54679622D01*
X52764740Y54558964D01*
X52870087Y54583245D01*
X53043000Y54658055D01*
X53043001Y47904586D01*
X52753664Y47615249D01*
X52493530Y47225932D01*
X52314347Y46793345D01*
X52223000Y46334114D01*
X52223000Y45865886D01*
X52314347Y45406655D01*
X52493530Y44974068D01*
X52753664Y44584751D01*
X53084751Y44253664D01*
X53474068Y43993530D01*
X53906655Y43814347D01*
X54365886Y43723000D01*
X54834114Y43723000D01*
X55293345Y43814347D01*
X55725932Y43993530D01*
X56115249Y44253664D01*
X56446336Y44584751D01*
X56706470Y44974068D01*
X56885653Y45406655D01*
X56977000Y45865886D01*
X56977000Y46334114D01*
X56885653Y46793345D01*
X56706470Y47225932D01*
X56446336Y47615249D01*
X56297000Y47764585D01*
X56297000Y54114710D01*
X56502640Y54052330D01*
X56900000Y54013193D01*
X57297361Y54052330D01*
X57679452Y54168236D01*
X58031589Y54356457D01*
X58340240Y54609760D01*
X58474207Y54773000D01*
X64073001Y54773000D01*
X64073000Y50244585D01*
X63853664Y50025249D01*
X63593530Y49635932D01*
X63414347Y49203345D01*
X63323000Y48744114D01*
X63323000Y48275886D01*
X63414347Y47816655D01*
X63593530Y47384068D01*
X63853664Y46994751D01*
X64184751Y46663664D01*
X64574068Y46403530D01*
X65006655Y46224347D01*
X65465886Y46133000D01*
X65934114Y46133000D01*
X66393345Y46224347D01*
X66825932Y46403530D01*
X67215249Y46663664D01*
X67546336Y46994751D01*
X67806470Y47384068D01*
X67985653Y47816655D01*
X68077000Y48275886D01*
X68077000Y48744114D01*
X67985653Y49203345D01*
X67806470Y49635932D01*
X67546336Y50025249D01*
X67327000Y50244585D01*
X67327000Y54773000D01*
X72573001Y54773000D01*
X72573000Y50372339D01*
X72525385Y50340524D01*
X72159476Y49974615D01*
X71871983Y49544351D01*
X71673954Y49066268D01*
X71573000Y48558737D01*
X71573000Y48041263D01*
X71673954Y47533732D01*
X71871983Y47055649D01*
X72159476Y46625385D01*
X72525385Y46259476D01*
X72955649Y45971983D01*
X73433732Y45773954D01*
X73941263Y45673000D01*
X74458737Y45673000D01*
X74966268Y45773954D01*
X75444351Y45971983D01*
X75874615Y46259476D01*
X75973001Y46357862D01*
X75973001Y44427000D01*
X73745194Y44427000D01*
X73444351Y44628017D01*
X72966268Y44826046D01*
X72458737Y44927000D01*
X71941263Y44927000D01*
X71433732Y44826046D01*
X70955649Y44628017D01*
X70525385Y44340524D01*
X70159476Y43974615D01*
X69871983Y43544351D01*
X69673954Y43066268D01*
X69573000Y42558737D01*
X69573000Y42041263D01*
X69673954Y41533732D01*
X69871983Y41055649D01*
X70159476Y40625385D01*
X70525385Y40259476D01*
X70955649Y39971983D01*
X71433732Y39773954D01*
X71941263Y39673000D01*
X72458737Y39673000D01*
X72966268Y39773954D01*
X73444351Y39971983D01*
X73745194Y40173000D01*
X77995513Y40173000D01*
X78100000Y40162709D01*
X78204487Y40173000D01*
X78257569Y40178228D01*
X78516965Y40203776D01*
X78917906Y40325401D01*
X79287415Y40522907D01*
X79611293Y40788707D01*
X79877093Y41112585D01*
X80074599Y41482094D01*
X80196224Y41883035D01*
X80227000Y42195513D01*
X80237291Y42300000D01*
X80227000Y42404487D01*
X80227000Y52429588D01*
X80258400Y52370843D01*
X80399235Y52199235D01*
X80570843Y52058400D01*
X80573000Y52057247D01*
X80573001Y36504498D01*
X80562709Y36400000D01*
X80603776Y35983035D01*
X80725401Y35582094D01*
X80922907Y35212585D01*
X81188707Y34888707D01*
X81512585Y34622907D01*
X81882094Y34425401D01*
X82283035Y34303776D01*
X82595513Y34273000D01*
X82700000Y34262709D01*
X82804487Y34273000D01*
X84711861Y34273000D01*
X84725385Y34259476D01*
X84998480Y34077000D01*
X76077000Y34077000D01*
X76077000Y34461861D01*
X76240524Y34625385D01*
X76528017Y35055649D01*
X76726046Y35533732D01*
X76827000Y36041263D01*
X76827000Y36558737D01*
X76726046Y37066268D01*
X76528017Y37544351D01*
X76240524Y37974615D01*
X75874615Y38340524D01*
X75444351Y38628017D01*
X74966268Y38826046D01*
X74458737Y38927000D01*
X73941263Y38927000D01*
X73433732Y38826046D01*
X72955649Y38628017D01*
X72525385Y38340524D01*
X72159476Y37974615D01*
X71871983Y37544351D01*
X71673954Y37066268D01*
X71573000Y36558737D01*
X71573000Y36041263D01*
X71673954Y35533732D01*
X71871983Y35055649D01*
X72159476Y34625385D01*
X72323001Y34461860D01*
X72323001Y34077000D01*
X67577000Y34077000D01*
X67577000Y39420643D01*
X67806470Y39764068D01*
X67985653Y40196655D01*
X68077000Y40655886D01*
X68077000Y41124114D01*
X67985653Y41583345D01*
X67806470Y42015932D01*
X67546336Y42405249D01*
X67215249Y42736336D01*
X66825932Y42996470D01*
X66393345Y43175653D01*
X65934114Y43267000D01*
X65465886Y43267000D01*
X65006655Y43175653D01*
X64574068Y42996470D01*
X64245609Y42777000D01*
X43827000Y42777000D01*
X43827000Y46461861D01*
X43990524Y46625385D01*
X44278017Y47055649D01*
X44476046Y47533732D01*
X44577000Y48041263D01*
X44577000Y48558737D01*
X44476046Y49066268D01*
X44278017Y49544351D01*
X43990524Y49974615D01*
X43624615Y50340524D01*
X43194351Y50628017D01*
X42716268Y50826046D01*
X42208737Y50927000D01*
X41691263Y50927000D01*
X41183732Y50826046D01*
X40705649Y50628017D01*
X40275385Y50340524D01*
X39909476Y49974615D01*
X39621983Y49544351D01*
X39423954Y49066268D01*
X39323000Y48558737D01*
X39323000Y48041263D01*
X39423954Y47533732D01*
X39621983Y47055649D01*
X39909476Y46625385D01*
X40073001Y46461860D01*
X40073000Y41142202D01*
X40063919Y41050000D01*
X40073000Y40957798D01*
X40073000Y40957791D01*
X40100159Y40682045D01*
X40207487Y40328229D01*
X40381780Y40002150D01*
X40616339Y39716339D01*
X40687966Y39657556D01*
X40707556Y39637966D01*
X40766339Y39566339D01*
X41052149Y39331780D01*
X41378228Y39157487D01*
X41732044Y39050159D01*
X42007790Y39023000D01*
X42007797Y39023000D01*
X42099999Y39013919D01*
X42192201Y39023000D01*
X63823001Y39023000D01*
X63823000Y32392202D01*
X63813919Y32300000D01*
X63823000Y32207798D01*
X63823000Y32207791D01*
X63834433Y32091715D01*
X63850159Y31932044D01*
X63876876Y31843971D01*
X63957487Y31578229D01*
X64131780Y31252150D01*
X64366339Y30966339D01*
X64421263Y30921263D01*
X64466339Y30866339D01*
X64752149Y30631780D01*
X65078228Y30457487D01*
X65432044Y30350159D01*
X65707790Y30323000D01*
X65707797Y30323000D01*
X65799999Y30313919D01*
X65892201Y30323000D01*
X74607797Y30323000D01*
X74699999Y30313919D01*
X74792201Y30323000D01*
X91423001Y30323000D01*
X91423000Y13657000D01*
X89038492Y13657000D01*
X88974714Y13734714D01*
X88673676Y13981768D01*
X88330226Y14165347D01*
X87957560Y14278394D01*
X87570000Y14316565D01*
X87182441Y14278394D01*
X86809775Y14165347D01*
X86466325Y13981768D01*
X86300001Y13845270D01*
X86133676Y13981768D01*
X85790226Y14165347D01*
X85417560Y14278394D01*
X85030000Y14316565D01*
X84642441Y14278394D01*
X84269775Y14165347D01*
X83926325Y13981768D01*
X83760001Y13845270D01*
X83593676Y13981768D01*
X83250226Y14165347D01*
X82877560Y14278394D01*
X82490000Y14316565D01*
X82102441Y14278394D01*
X81729775Y14165347D01*
X81386325Y13981768D01*
X81220001Y13845270D01*
X81053676Y13981768D01*
X80710226Y14165347D01*
X80337560Y14278394D01*
X79950000Y14316565D01*
X79562441Y14278394D01*
X79189775Y14165347D01*
X78846325Y13981768D01*
X78680001Y13845270D01*
X78513676Y13981768D01*
X78170226Y14165347D01*
X77797560Y14278394D01*
X77410000Y14316565D01*
X77022441Y14278394D01*
X76649775Y14165347D01*
X76306325Y13981768D01*
X76140001Y13845270D01*
X75973676Y13981768D01*
X75630226Y14165347D01*
X75257560Y14278394D01*
X74870000Y14316565D01*
X74482441Y14278394D01*
X74109775Y14165347D01*
X73766325Y13981768D01*
X73600001Y13845270D01*
X73433676Y13981768D01*
X73090226Y14165347D01*
X72717560Y14278394D01*
X72330000Y14316565D01*
X71942441Y14278394D01*
X71569775Y14165347D01*
X71517000Y14137138D01*
X71517000Y18930086D01*
X71524871Y19010001D01*
X71517000Y19089915D01*
X71517000Y19089925D01*
X71493458Y19328948D01*
X71400425Y19635638D01*
X71249346Y19918286D01*
X71046029Y20166029D01*
X70996597Y20206596D01*
X70956029Y20256029D01*
X70708286Y20459346D01*
X70425638Y20610425D01*
X70118948Y20703458D01*
X69879925Y20727000D01*
X69879914Y20727000D01*
X69800000Y20734871D01*
X69720086Y20727000D01*
X44727000Y20727000D01*
X44727000Y27667116D01*
X50033000Y27667116D01*
X50033000Y26372885D01*
X50061606Y26082441D01*
X50174653Y25709775D01*
X50358232Y25366324D01*
X50605286Y25065286D01*
X50906324Y24818232D01*
X51249774Y24634653D01*
X51622440Y24521606D01*
X52010000Y24483435D01*
X52397559Y24521606D01*
X52770225Y24634653D01*
X53113676Y24818232D01*
X53280000Y24954730D01*
X53446324Y24818232D01*
X53789774Y24634653D01*
X54162440Y24521606D01*
X54550000Y24483435D01*
X54937559Y24521606D01*
X55310225Y24634653D01*
X55653676Y24818232D01*
X55820000Y24954730D01*
X55986324Y24818232D01*
X56329774Y24634653D01*
X56702440Y24521606D01*
X57090000Y24483435D01*
X57477559Y24521606D01*
X57850225Y24634653D01*
X58193676Y24818232D01*
X58360000Y24954730D01*
X58526324Y24818232D01*
X58869774Y24634653D01*
X59242440Y24521606D01*
X59630000Y24483435D01*
X60017559Y24521606D01*
X60390225Y24634653D01*
X60733676Y24818232D01*
X60900000Y24954730D01*
X61066324Y24818232D01*
X61409774Y24634653D01*
X61782440Y24521606D01*
X62170000Y24483435D01*
X62557559Y24521606D01*
X62930225Y24634653D01*
X63273676Y24818232D01*
X63440000Y24954730D01*
X63606324Y24818232D01*
X63949774Y24634653D01*
X64322440Y24521606D01*
X64710000Y24483435D01*
X65097559Y24521606D01*
X65470225Y24634653D01*
X65813676Y24818232D01*
X65980000Y24954730D01*
X66146324Y24818232D01*
X66489774Y24634653D01*
X66862440Y24521606D01*
X67250000Y24483435D01*
X67637559Y24521606D01*
X68010225Y24634653D01*
X68353676Y24818232D01*
X68520000Y24954730D01*
X68686324Y24818232D01*
X69029774Y24634653D01*
X69402440Y24521606D01*
X69790000Y24483435D01*
X70177559Y24521606D01*
X70550225Y24634653D01*
X70893676Y24818232D01*
X71060000Y24954730D01*
X71226324Y24818232D01*
X71569774Y24634653D01*
X71942440Y24521606D01*
X72330000Y24483435D01*
X72717559Y24521606D01*
X73090225Y24634653D01*
X73433676Y24818232D01*
X73600000Y24954730D01*
X73766324Y24818232D01*
X74109774Y24634653D01*
X74482440Y24521606D01*
X74870000Y24483435D01*
X75257559Y24521606D01*
X75630225Y24634653D01*
X75973676Y24818232D01*
X76140000Y24954730D01*
X76306324Y24818232D01*
X76649774Y24634653D01*
X77022440Y24521606D01*
X77410000Y24483435D01*
X77797559Y24521606D01*
X78170225Y24634653D01*
X78513676Y24818232D01*
X78814714Y25065286D01*
X79016816Y25311549D01*
X79230574Y25164709D01*
X79499047Y25049437D01*
X79593110Y25028524D01*
X79823000Y25149845D01*
X79823000Y26893000D01*
X79803000Y26893000D01*
X79803000Y27147000D01*
X79823000Y27147000D01*
X79823000Y28890155D01*
X80077000Y28890155D01*
X80077000Y27147000D01*
X80097000Y27147000D01*
X80097000Y26893000D01*
X80077000Y26893000D01*
X80077000Y25149845D01*
X80306890Y25028524D01*
X80400953Y25049437D01*
X80669426Y25164709D01*
X80883184Y25311549D01*
X81085286Y25065286D01*
X81386324Y24818232D01*
X81729774Y24634653D01*
X82102440Y24521606D01*
X82490000Y24483435D01*
X82877559Y24521606D01*
X83250225Y24634653D01*
X83593676Y24818232D01*
X83760000Y24954730D01*
X83926324Y24818232D01*
X84269774Y24634653D01*
X84642440Y24521606D01*
X85030000Y24483435D01*
X85417559Y24521606D01*
X85790225Y24634653D01*
X86004555Y24749215D01*
X86090843Y24678400D01*
X86286629Y24573750D01*
X86499069Y24509307D01*
X86720000Y24487547D01*
X88420000Y24487547D01*
X88640931Y24509307D01*
X88853371Y24573750D01*
X89049157Y24678400D01*
X89220765Y24819235D01*
X89361600Y24990843D01*
X89466250Y25186629D01*
X89530693Y25399069D01*
X89552453Y25620000D01*
X89552453Y28420000D01*
X89530693Y28640931D01*
X89466250Y28853371D01*
X89361600Y29049157D01*
X89220765Y29220765D01*
X89049157Y29361600D01*
X88853371Y29466250D01*
X88640931Y29530693D01*
X88420000Y29552453D01*
X86720000Y29552453D01*
X86499069Y29530693D01*
X86286629Y29466250D01*
X86090843Y29361600D01*
X86004555Y29290785D01*
X85790226Y29405347D01*
X85417560Y29518394D01*
X85030000Y29556565D01*
X84642441Y29518394D01*
X84269775Y29405347D01*
X83926325Y29221768D01*
X83760001Y29085270D01*
X83593676Y29221768D01*
X83250226Y29405347D01*
X82877560Y29518394D01*
X82490000Y29556565D01*
X82102441Y29518394D01*
X81729775Y29405347D01*
X81386325Y29221768D01*
X81085287Y28974714D01*
X80883185Y28728451D01*
X80669426Y28875291D01*
X80400953Y28990563D01*
X80306890Y29011476D01*
X80077000Y28890155D01*
X79823000Y28890155D01*
X79593110Y29011476D01*
X79499047Y28990563D01*
X79230574Y28875291D01*
X79016816Y28728451D01*
X78814714Y28974714D01*
X78513676Y29221768D01*
X78170226Y29405347D01*
X77797560Y29518394D01*
X77410000Y29556565D01*
X77022441Y29518394D01*
X76649775Y29405347D01*
X76306325Y29221768D01*
X76140001Y29085270D01*
X75973676Y29221768D01*
X75630226Y29405347D01*
X75257560Y29518394D01*
X74870000Y29556565D01*
X74482441Y29518394D01*
X74109775Y29405347D01*
X73766325Y29221768D01*
X73600001Y29085270D01*
X73433676Y29221768D01*
X73090226Y29405347D01*
X72717560Y29518394D01*
X72330000Y29556565D01*
X71942441Y29518394D01*
X71569775Y29405347D01*
X71226325Y29221768D01*
X71060001Y29085270D01*
X70893676Y29221768D01*
X70550226Y29405347D01*
X70177560Y29518394D01*
X69790000Y29556565D01*
X69402441Y29518394D01*
X69029775Y29405347D01*
X68686325Y29221768D01*
X68520001Y29085270D01*
X68353676Y29221768D01*
X68010226Y29405347D01*
X67637560Y29518394D01*
X67250000Y29556565D01*
X66862441Y29518394D01*
X66489775Y29405347D01*
X66146325Y29221768D01*
X65980001Y29085270D01*
X65813676Y29221768D01*
X65470226Y29405347D01*
X65097560Y29518394D01*
X64710000Y29556565D01*
X64322441Y29518394D01*
X63949775Y29405347D01*
X63606325Y29221768D01*
X63440001Y29085270D01*
X63273676Y29221768D01*
X62930226Y29405347D01*
X62557560Y29518394D01*
X62170000Y29556565D01*
X61782441Y29518394D01*
X61409775Y29405347D01*
X61066325Y29221768D01*
X60900001Y29085270D01*
X60733676Y29221768D01*
X60390226Y29405347D01*
X60017560Y29518394D01*
X59630000Y29556565D01*
X59242441Y29518394D01*
X58869775Y29405347D01*
X58526325Y29221768D01*
X58360001Y29085270D01*
X58193676Y29221768D01*
X57850226Y29405347D01*
X57477560Y29518394D01*
X57090000Y29556565D01*
X56702441Y29518394D01*
X56329775Y29405347D01*
X56227000Y29350412D01*
X56227000Y34365415D01*
X56446336Y34584751D01*
X56706470Y34974068D01*
X56885653Y35406655D01*
X56977000Y35865886D01*
X56977000Y36334114D01*
X56885653Y36793345D01*
X56706470Y37225932D01*
X56446336Y37615249D01*
X56115249Y37946336D01*
X55725932Y38206470D01*
X55293345Y38385653D01*
X54834114Y38477000D01*
X54365886Y38477000D01*
X53906655Y38385653D01*
X53474068Y38206470D01*
X53084751Y37946336D01*
X52753664Y37615249D01*
X52493530Y37225932D01*
X52314347Y36793345D01*
X52223000Y36334114D01*
X52223000Y35865886D01*
X52314347Y35406655D01*
X52493530Y34974068D01*
X52753664Y34584751D01*
X52973000Y34365415D01*
X52973001Y29296961D01*
X52770226Y29405347D01*
X52397560Y29518394D01*
X52010000Y29556565D01*
X51622441Y29518394D01*
X51249775Y29405347D01*
X50906325Y29221768D01*
X50605287Y28974714D01*
X50358233Y28673676D01*
X50174653Y28330226D01*
X50061606Y27957560D01*
X50033000Y27667116D01*
X44727000Y27667116D01*
X44727000Y31020075D01*
X44734872Y31100000D01*
X44703458Y31418948D01*
X44610425Y31725638D01*
X44459346Y32008286D01*
X44256029Y32256029D01*
X44008286Y32459346D01*
X43725638Y32610425D01*
X43418948Y32703458D01*
X43179925Y32727000D01*
X43100000Y32734872D01*
X43020075Y32727000D01*
X40923770Y32727000D01*
X40974599Y32822094D01*
X41096224Y33223035D01*
X41137291Y33640000D01*
X41096224Y34056965D01*
X40974599Y34457906D01*
X40777093Y34827415D01*
X40511293Y35151293D01*
X40359312Y35276021D01*
X40430010Y35377239D01*
X40559144Y35671645D01*
X40590124Y35799566D01*
X40470777Y36053000D01*
X38627000Y36053000D01*
X38627000Y36033000D01*
X38373000Y36033000D01*
X38373000Y36053000D01*
X36529223Y36053000D01*
X36409876Y35799566D01*
X36440856Y35671645D01*
X36569990Y35377239D01*
X36640688Y35276021D01*
X36629696Y35267000D01*
X29419925Y35267000D01*
X29340000Y35274872D01*
X29260075Y35267000D01*
X29021052Y35243458D01*
X28714362Y35150425D01*
X28431714Y34999346D01*
X28183971Y34796029D01*
X28133017Y34733941D01*
X27606051Y34206976D01*
X27543972Y34156029D01*
X27493026Y34093951D01*
X27493022Y34093947D01*
X27340654Y33908285D01*
X27290443Y33814347D01*
X27189576Y33625638D01*
X27096543Y33318948D01*
X27087487Y33227000D01*
X27065129Y33000000D01*
X27073001Y32920076D01*
X27073000Y16737526D01*
X26485750Y16735000D01*
X26327000Y16576250D01*
X26327000Y14727000D01*
X26347000Y14727000D01*
X26347000Y14473000D01*
X26327000Y14473000D01*
X26327000Y12623750D01*
X26485750Y12465000D01*
X27073001Y12462474D01*
X27073000Y6879925D01*
X27065128Y6800000D01*
X27096542Y6481052D01*
X27189575Y6174362D01*
X27340654Y5891714D01*
X27443605Y5766268D01*
X27543971Y5643971D01*
X27791714Y5440654D01*
X28074362Y5289575D01*
X28381052Y5196542D01*
X28700000Y5165128D01*
X28779925Y5173000D01*
X79720086Y5173000D01*
X79800000Y5165129D01*
X79879914Y5173000D01*
X79879925Y5173000D01*
X80118948Y5196542D01*
X80323978Y5258737D01*
X93073000Y5258737D01*
X93073000Y4741263D01*
X93173954Y4233732D01*
X93371983Y3755649D01*
X93659476Y3325385D01*
X94025385Y2959476D01*
X94455649Y2671983D01*
X94933732Y2473954D01*
X95441263Y2373000D01*
X95958737Y2373000D01*
X96466268Y2473954D01*
X96944351Y2671983D01*
X97374615Y2959476D01*
X97740524Y3325385D01*
X98028017Y3755649D01*
X98226046Y4233732D01*
X98327000Y4741263D01*
X98327000Y5258737D01*
X98226046Y5766268D01*
X98028017Y6244351D01*
X97740524Y6674615D01*
X97374615Y7040524D01*
X96944351Y7328017D01*
X96466268Y7526046D01*
X95958737Y7627000D01*
X95441263Y7627000D01*
X94933732Y7526046D01*
X94455649Y7328017D01*
X94025385Y7040524D01*
X93659476Y6674615D01*
X93371983Y6244351D01*
X93173954Y5766268D01*
X93073000Y5258737D01*
X80323978Y5258737D01*
X80425638Y5289575D01*
X80708286Y5440654D01*
X80956029Y5643971D01*
X81006980Y5706055D01*
X81043945Y5743020D01*
X81106029Y5793971D01*
X81309346Y6041714D01*
X81460425Y6324362D01*
X81553458Y6631052D01*
X81577000Y6870075D01*
X81577000Y6870085D01*
X81584871Y6949999D01*
X81577000Y7029914D01*
X81577000Y9476313D01*
X81729774Y9394653D01*
X82102440Y9281606D01*
X82490000Y9243435D01*
X82877559Y9281606D01*
X83250225Y9394653D01*
X83593676Y9578232D01*
X83760000Y9714730D01*
X83926324Y9578232D01*
X84269774Y9394653D01*
X84642440Y9281606D01*
X85030000Y9243435D01*
X85417559Y9281606D01*
X85790225Y9394653D01*
X86133676Y9578232D01*
X86300000Y9714730D01*
X86466324Y9578232D01*
X86809774Y9394653D01*
X87182440Y9281606D01*
X87570000Y9243435D01*
X87957559Y9281606D01*
X88330225Y9394653D01*
X88673676Y9578232D01*
X88974714Y9825286D01*
X89038492Y9903000D01*
X92827798Y9903000D01*
X92920000Y9893919D01*
X93012202Y9903000D01*
X93012210Y9903000D01*
X93287956Y9930159D01*
X93641772Y10037487D01*
X93967851Y10211780D01*
X94253661Y10446339D01*
X94312444Y10517966D01*
X94562035Y10767557D01*
X94633661Y10826339D01*
X94868220Y11112149D01*
X95042513Y11438228D01*
X95149841Y11792044D01*
X95177000Y12067790D01*
X95177000Y12067797D01*
X95186081Y12159999D01*
X95177000Y12252201D01*
X95177000Y32107790D01*
X95186082Y32200000D01*
X95149841Y32567956D01*
X95042513Y32921772D01*
X94868220Y33247851D01*
X94633661Y33533661D01*
X94347851Y33768220D01*
X94021772Y33942513D01*
X93667956Y34049841D01*
X93392210Y34077000D01*
X93300000Y34086082D01*
X93207790Y34077000D01*
X87801520Y34077000D01*
X88074615Y34259476D01*
X88440524Y34625385D01*
X88728017Y35055649D01*
X88926046Y35533732D01*
X89027000Y36041263D01*
X89027000Y36558737D01*
X88926046Y37066268D01*
X88728017Y37544351D01*
X88440524Y37974615D01*
X88074615Y38340524D01*
X87644351Y38628017D01*
X87166268Y38826046D01*
X86658737Y38927000D01*
X86141263Y38927000D01*
X85633732Y38826046D01*
X85155649Y38628017D01*
X85004466Y38527000D01*
X84827000Y38527000D01*
X84827000Y46191579D01*
X85155649Y45971983D01*
X85633732Y45773954D01*
X86141263Y45673000D01*
X86658737Y45673000D01*
X87166268Y45773954D01*
X87644351Y45971983D01*
X88074615Y46259476D01*
X88440524Y46625385D01*
X88728017Y47055649D01*
X88926046Y47533732D01*
X89027000Y48041263D01*
X89027000Y48558737D01*
X88926046Y49066268D01*
X88728017Y49544351D01*
X88440524Y49974615D01*
X88074615Y50340524D01*
X87644351Y50628017D01*
X87166268Y50826046D01*
X86658737Y50927000D01*
X86141263Y50927000D01*
X85633732Y50826046D01*
X85155649Y50628017D01*
X84827000Y50408421D01*
X84827000Y52057247D01*
X84829157Y52058400D01*
X85000765Y52199235D01*
X85141600Y52370843D01*
X85246250Y52566629D01*
X85310693Y52779069D01*
X85332453Y53000000D01*
X85332453Y56000000D01*
X85310693Y56220931D01*
X85246250Y56433371D01*
X85141600Y56629157D01*
X85000765Y56800765D01*
X84829157Y56941600D01*
X84827000Y56942753D01*
X84827000Y58034806D01*
X85028017Y58335649D01*
X85226046Y58813732D01*
X85327000Y59321263D01*
X85327000Y59838737D01*
X85226046Y60346268D01*
X85028017Y60824351D01*
X84740524Y61254615D01*
X84374615Y61620524D01*
X83944351Y61908017D01*
X83466268Y62106046D01*
X82958737Y62207000D01*
X82441263Y62207000D01*
X81933732Y62106046D01*
X81455649Y61908017D01*
X81025385Y61620524D01*
X80659476Y61254615D01*
X80371983Y60824351D01*
X80227000Y60474332D01*
X80227000Y66495523D01*
X80237290Y66600001D01*
X80227000Y66704478D01*
X80227000Y66704487D01*
X80196224Y67016965D01*
X80074599Y67417906D01*
X79877093Y67787415D01*
X79611293Y68111293D01*
X79530126Y68177905D01*
X79277905Y68430126D01*
X79211293Y68511293D01*
X78887415Y68777093D01*
X78517906Y68974599D01*
X78116965Y69096224D01*
X77804487Y69127000D01*
X77804485Y69127000D01*
X77700000Y69137291D01*
X77595515Y69127000D01*
X30304487Y69127000D01*
X30200000Y69137291D01*
X30095513Y69127000D01*
X29783035Y69096224D01*
X29382094Y68974599D01*
X29012585Y68777093D01*
X28688707Y68511293D01*
X28422907Y68187415D01*
X28225401Y67817906D01*
X28103776Y67416965D01*
X28062709Y67000000D01*
X28073001Y66895503D01*
X28073000Y56995514D01*
X28073001Y56995504D01*
X28073000Y50327000D01*
X25138139Y50327000D01*
X25124615Y50340524D01*
X24694351Y50628017D01*
X24216268Y50826046D01*
X23708737Y50927000D01*
X23191263Y50927000D01*
X22683732Y50826046D01*
X22205649Y50628017D01*
X21994602Y50487000D01*
X14945194Y50487000D01*
X14644351Y50688017D01*
X14166268Y50886046D01*
X14096116Y50900000D01*
X14166268Y50913954D01*
X14644351Y51111983D01*
X15074615Y51399476D01*
X15440524Y51765385D01*
X15728017Y52195649D01*
X15926046Y52673732D01*
X16027000Y53181263D01*
X16027000Y53698737D01*
X15926046Y54206268D01*
X15728017Y54684351D01*
X15527000Y54985194D01*
X15527000Y56974806D01*
X15728017Y57275649D01*
X15926046Y57753732D01*
X16027000Y58261263D01*
X16027000Y58778737D01*
X15926046Y59286268D01*
X15728017Y59764351D01*
X15440524Y60194615D01*
X15074615Y60560524D01*
X14644351Y60848017D01*
X14355781Y60967547D01*
X14900000Y60967547D01*
X15120931Y60989307D01*
X15333371Y61053750D01*
X15529157Y61158400D01*
X15700765Y61299235D01*
X15841600Y61470843D01*
X15842753Y61473000D01*
X16118969Y61473000D01*
X17522099Y60069869D01*
X17588707Y59988707D01*
X17912585Y59722907D01*
X18282094Y59525401D01*
X18683035Y59403776D01*
X18995513Y59373000D01*
X18995522Y59373000D01*
X19099999Y59362710D01*
X19204476Y59373000D01*
X21904806Y59373000D01*
X22205649Y59171983D01*
X22683732Y58973954D01*
X23191263Y58873000D01*
X23708737Y58873000D01*
X24216268Y58973954D01*
X24694351Y59171983D01*
X25124615Y59459476D01*
X25490524Y59825385D01*
X25778017Y60255649D01*
X25976046Y60733732D01*
X26077000Y61241263D01*
X26077000Y61758737D01*
X25976046Y62266268D01*
X25778017Y62744351D01*
X25490524Y63174615D01*
X25124615Y63540524D01*
X24694351Y63828017D01*
X24216268Y64026046D01*
X23708737Y64127000D01*
X23191263Y64127000D01*
X22683732Y64026046D01*
X22205649Y63828017D01*
X21904806Y63627000D01*
X19981032Y63627000D01*
X18577905Y65030126D01*
X18511293Y65111293D01*
X18187415Y65377093D01*
X17817906Y65574599D01*
X17416965Y65696224D01*
X17104487Y65727000D01*
X17104485Y65727000D01*
X17000000Y65737291D01*
X16895515Y65727000D01*
X15842753Y65727000D01*
X15841600Y65729157D01*
X15700765Y65900765D01*
X15529157Y66041600D01*
X15333371Y66146250D01*
X15120931Y66210693D01*
X14900000Y66232453D01*
X11900000Y66232453D01*
X11679069Y66210693D01*
X11466629Y66146250D01*
X11270843Y66041600D01*
X11099235Y65900765D01*
X10958400Y65729157D01*
X10853750Y65533371D01*
X10789307Y65320931D01*
X10767547Y65100000D01*
X1152000Y65100000D01*
X1152000Y70258737D01*
X2373000Y70258737D01*
X2373000Y69741263D01*
X2473954Y69233732D01*
X2671983Y68755649D01*
X2959476Y68325385D01*
X3325385Y67959476D01*
X3755649Y67671983D01*
X4233732Y67473954D01*
X4741263Y67373000D01*
X5258737Y67373000D01*
X5766268Y67473954D01*
X6244351Y67671983D01*
X6674615Y67959476D01*
X7040524Y68325385D01*
X7328017Y68755649D01*
X7526046Y69233732D01*
X7627000Y69741263D01*
X7627000Y70258737D01*
X92373000Y70258737D01*
X92373000Y69741263D01*
X92473954Y69233732D01*
X92671983Y68755649D01*
X92959476Y68325385D01*
X93325385Y67959476D01*
X93755649Y67671983D01*
X94233732Y67473954D01*
X94741263Y67373000D01*
X95258737Y67373000D01*
X95766268Y67473954D01*
X96244351Y67671983D01*
X96674615Y67959476D01*
X97040524Y68325385D01*
X97328017Y68755649D01*
X97526046Y69233732D01*
X97627000Y69741263D01*
X97627000Y70258737D01*
X97526046Y70766268D01*
X97328017Y71244351D01*
X97040524Y71674615D01*
X96674615Y72040524D01*
X96244351Y72328017D01*
X95766268Y72526046D01*
X95258737Y72627000D01*
X94741263Y72627000D01*
X94233732Y72526046D01*
X93755649Y72328017D01*
X93325385Y72040524D01*
X92959476Y71674615D01*
X92671983Y71244351D01*
X92473954Y70766268D01*
X92373000Y70258737D01*
X7627000Y70258737D01*
X7526046Y70766268D01*
X7328017Y71244351D01*
X7040524Y71674615D01*
X6674615Y72040524D01*
X6244351Y72328017D01*
X5766268Y72526046D01*
X5258737Y72627000D01*
X4741263Y72627000D01*
X4233732Y72526046D01*
X3755649Y72328017D01*
X3325385Y72040524D01*
X2959476Y71674615D01*
X2671983Y71244351D01*
X2473954Y70766268D01*
X2373000Y70258737D01*
X1152000Y70258737D01*
X1152000Y73848000D01*
X98848000Y73848000D01*
X98848001Y1152000D01*
%TA.AperFunction,Conductor*%
D24*
G36*
X98848001Y1152000D02*
G01*
X1152000Y1152000D01*
X1152000Y5258737D01*
X2373000Y5258737D01*
X2373000Y4741263D01*
X2473954Y4233732D01*
X2671983Y3755649D01*
X2959476Y3325385D01*
X3325385Y2959476D01*
X3755649Y2671983D01*
X4233732Y2473954D01*
X4741263Y2373000D01*
X5258737Y2373000D01*
X5766268Y2473954D01*
X6244351Y2671983D01*
X6674615Y2959476D01*
X7040524Y3325385D01*
X7328017Y3755649D01*
X7526046Y4233732D01*
X7627000Y4741263D01*
X7627000Y5258737D01*
X7526046Y5766268D01*
X7328017Y6244351D01*
X7040524Y6674615D01*
X6674615Y7040524D01*
X6244351Y7328017D01*
X5766268Y7526046D01*
X5258737Y7627000D01*
X4741263Y7627000D01*
X4233732Y7526046D01*
X3755649Y7328017D01*
X3325385Y7040524D01*
X2959476Y6674615D01*
X2671983Y6244351D01*
X2473954Y5766268D01*
X2373000Y5258737D01*
X1152000Y5258737D01*
X1152000Y13100000D01*
X24561928Y13100000D01*
X24574188Y12975518D01*
X24610498Y12855820D01*
X24669463Y12745506D01*
X24748815Y12648815D01*
X24845506Y12569463D01*
X24955820Y12510498D01*
X25075518Y12474188D01*
X25200000Y12461928D01*
X25914250Y12465000D01*
X26073000Y12623750D01*
X26073000Y14473000D01*
X24723750Y14473000D01*
X24565000Y14314250D01*
X24561928Y13100000D01*
X1152000Y13100000D01*
X1152000Y16100000D01*
X24561928Y16100000D01*
X24565000Y14885750D01*
X24723750Y14727000D01*
X26073000Y14727000D01*
X26073000Y16576250D01*
X25914250Y16735000D01*
X25200000Y16738072D01*
X25075518Y16725812D01*
X24955820Y16689502D01*
X24845506Y16630537D01*
X24748815Y16551185D01*
X24669463Y16454494D01*
X24610498Y16344180D01*
X24574188Y16224482D01*
X24561928Y16100000D01*
X1152000Y16100000D01*
X1152000Y36560434D01*
X36409876Y36560434D01*
X36529223Y36307000D01*
X38373000Y36307000D01*
X38373000Y37815000D01*
X38627000Y37815000D01*
X38627000Y36307000D01*
X40470777Y36307000D01*
X40590124Y36560434D01*
X40559144Y36688355D01*
X40430010Y36982761D01*
X40245922Y37246317D01*
X40013954Y37468895D01*
X39743020Y37641942D01*
X39443532Y37758807D01*
X39127000Y37815000D01*
X38627000Y37815000D01*
X38373000Y37815000D01*
X37873000Y37815000D01*
X37556468Y37758807D01*
X37256980Y37641942D01*
X36986046Y37468895D01*
X36754078Y37246317D01*
X36569990Y36982761D01*
X36440856Y36688355D01*
X36409876Y36560434D01*
X1152000Y36560434D01*
X1152000Y65100000D01*
X10767547Y65100000D01*
X10767547Y62100000D01*
X10789307Y61879069D01*
X10853750Y61666629D01*
X10958400Y61470843D01*
X11099235Y61299235D01*
X11270843Y61158400D01*
X11466629Y61053750D01*
X11679069Y60989307D01*
X11900000Y60967547D01*
X12444219Y60967547D01*
X12155649Y60848017D01*
X11725385Y60560524D01*
X11359476Y60194615D01*
X11071983Y59764351D01*
X10873954Y59286268D01*
X10773000Y58778737D01*
X10773000Y58261263D01*
X10873954Y57753732D01*
X11071983Y57275649D01*
X11273000Y56974805D01*
X11273001Y54985195D01*
X11071983Y54684351D01*
X10873954Y54206268D01*
X10773000Y53698737D01*
X10773000Y53181263D01*
X10873954Y52673732D01*
X11071983Y52195649D01*
X11359476Y51765385D01*
X11725385Y51399476D01*
X12155649Y51111983D01*
X12633732Y50913954D01*
X12703884Y50900000D01*
X12633732Y50886046D01*
X12155649Y50688017D01*
X11725385Y50400524D01*
X11359476Y50034615D01*
X11071983Y49604351D01*
X10873954Y49126268D01*
X10773000Y48618737D01*
X10773000Y48101263D01*
X10873954Y47593732D01*
X11071983Y47115649D01*
X11359476Y46685385D01*
X11725385Y46319476D01*
X12155649Y46031983D01*
X12633732Y45833954D01*
X13141263Y45733000D01*
X13658737Y45733000D01*
X14166268Y45833954D01*
X14644351Y46031983D01*
X14945194Y46233000D01*
X21815009Y46233000D01*
X22205649Y45971983D01*
X22683732Y45773954D01*
X23191263Y45673000D01*
X23708737Y45673000D01*
X24216268Y45773954D01*
X24694351Y45971983D01*
X24845534Y46073000D01*
X28995515Y46073000D01*
X29100000Y46062709D01*
X29204485Y46073000D01*
X29204487Y46073000D01*
X29516965Y46103776D01*
X29917906Y46225401D01*
X30287415Y46422907D01*
X30611293Y46688707D01*
X30677905Y46769874D01*
X31630126Y47722095D01*
X31711293Y47788707D01*
X31977093Y48112585D01*
X32174599Y48482094D01*
X32296224Y48883035D01*
X32327000Y49195513D01*
X32327000Y49195515D01*
X32337291Y49300000D01*
X32327000Y49404485D01*
X32327000Y56273000D01*
X50865000Y56273000D01*
X50865000Y55923000D01*
X50919271Y55625977D01*
X51030446Y55345249D01*
X51194252Y55091604D01*
X51404394Y54874790D01*
X51652796Y54703138D01*
X51929913Y54583245D01*
X52035260Y54558964D01*
X52273000Y54679622D01*
X52273000Y56273000D01*
X50865000Y56273000D01*
X32327000Y56273000D01*
X32327000Y56877000D01*
X50865000Y56877000D01*
X50865000Y56527000D01*
X52273000Y56527000D01*
X52273000Y58120378D01*
X52035260Y58241036D01*
X51929913Y58216755D01*
X51652796Y58096862D01*
X51404394Y57925210D01*
X51194252Y57708396D01*
X51030446Y57454751D01*
X50919271Y57174023D01*
X50865000Y56877000D01*
X32327000Y56877000D01*
X32327000Y60008347D01*
X40637952Y60008347D01*
X40793962Y59692786D01*
X41168745Y59501980D01*
X41573551Y59387956D01*
X41992824Y59355098D01*
X42410451Y59404666D01*
X42810383Y59534757D01*
X43106038Y59692786D01*
X43262048Y60008347D01*
X41950000Y61320395D01*
X40637952Y60008347D01*
X32327000Y60008347D01*
X32327000Y61457176D01*
X39805098Y61457176D01*
X39854666Y61039549D01*
X39984757Y60639617D01*
X40142786Y60343962D01*
X40458347Y60187952D01*
X41770395Y61500000D01*
X42129605Y61500000D01*
X43441653Y60187952D01*
X43757214Y60343962D01*
X43948020Y60718745D01*
X44062044Y61123551D01*
X44094902Y61542824D01*
X44045334Y61960451D01*
X43915243Y62360383D01*
X43757214Y62656038D01*
X43441653Y62812048D01*
X42129605Y61500000D01*
X41770395Y61500000D01*
X40458347Y62812048D01*
X40142786Y62656038D01*
X39951980Y62281255D01*
X39837956Y61876449D01*
X39805098Y61457176D01*
X32327000Y61457176D01*
X32327000Y62991653D01*
X40637952Y62991653D01*
X41950000Y61679605D01*
X43262048Y62991653D01*
X43106038Y63307214D01*
X42731255Y63498020D01*
X42326449Y63612044D01*
X41907176Y63644902D01*
X41489549Y63595334D01*
X41089617Y63465243D01*
X40793962Y63307214D01*
X40637952Y62991653D01*
X32327000Y62991653D01*
X32327000Y64873000D01*
X75973000Y64873000D01*
X75973001Y50242138D01*
X75874615Y50340524D01*
X75827000Y50372339D01*
X75827000Y56120075D01*
X75834872Y56200000D01*
X75803458Y56518947D01*
X75801015Y56527000D01*
X75710425Y56825638D01*
X75559346Y57108286D01*
X75356029Y57356029D01*
X75293945Y57406980D01*
X75206980Y57493945D01*
X75156029Y57556029D01*
X74908286Y57759346D01*
X74625638Y57910425D01*
X74318948Y58003458D01*
X74079925Y58027000D01*
X74079914Y58027000D01*
X74000000Y58034871D01*
X73920086Y58027000D01*
X65979925Y58027000D01*
X65900000Y58034872D01*
X65820075Y58027000D01*
X58474207Y58027000D01*
X58340240Y58190240D01*
X58031589Y58443543D01*
X57679451Y58631764D01*
X57297360Y58747670D01*
X56900000Y58786807D01*
X56702453Y58767350D01*
X56702453Y59650000D01*
X56680693Y59870931D01*
X56616250Y60083371D01*
X56511600Y60279157D01*
X56370765Y60450765D01*
X56199157Y60591600D01*
X56003371Y60696250D01*
X55790931Y60760693D01*
X55570000Y60782453D01*
X53770000Y60782453D01*
X53549069Y60760693D01*
X53336629Y60696250D01*
X53140843Y60591600D01*
X52969235Y60450765D01*
X52828400Y60279157D01*
X52723750Y60083371D01*
X52659307Y59870931D01*
X52637547Y59650000D01*
X52637547Y58176483D01*
X52527000Y58120378D01*
X52527000Y56527000D01*
X52547000Y56527000D01*
X52547000Y56273000D01*
X52527000Y56273000D01*
X52527000Y54679622D01*
X52764740Y54558964D01*
X52870087Y54583245D01*
X53043000Y54658055D01*
X53043001Y47904586D01*
X52753664Y47615249D01*
X52493530Y47225932D01*
X52314347Y46793345D01*
X52223000Y46334114D01*
X52223000Y45865886D01*
X52314347Y45406655D01*
X52493530Y44974068D01*
X52753664Y44584751D01*
X53084751Y44253664D01*
X53474068Y43993530D01*
X53906655Y43814347D01*
X54365886Y43723000D01*
X54834114Y43723000D01*
X55293345Y43814347D01*
X55725932Y43993530D01*
X56115249Y44253664D01*
X56446336Y44584751D01*
X56706470Y44974068D01*
X56885653Y45406655D01*
X56977000Y45865886D01*
X56977000Y46334114D01*
X56885653Y46793345D01*
X56706470Y47225932D01*
X56446336Y47615249D01*
X56297000Y47764585D01*
X56297000Y54114710D01*
X56502640Y54052330D01*
X56900000Y54013193D01*
X57297361Y54052330D01*
X57679452Y54168236D01*
X58031589Y54356457D01*
X58340240Y54609760D01*
X58474207Y54773000D01*
X64073001Y54773000D01*
X64073000Y50244585D01*
X63853664Y50025249D01*
X63593530Y49635932D01*
X63414347Y49203345D01*
X63323000Y48744114D01*
X63323000Y48275886D01*
X63414347Y47816655D01*
X63593530Y47384068D01*
X63853664Y46994751D01*
X64184751Y46663664D01*
X64574068Y46403530D01*
X65006655Y46224347D01*
X65465886Y46133000D01*
X65934114Y46133000D01*
X66393345Y46224347D01*
X66825932Y46403530D01*
X67215249Y46663664D01*
X67546336Y46994751D01*
X67806470Y47384068D01*
X67985653Y47816655D01*
X68077000Y48275886D01*
X68077000Y48744114D01*
X67985653Y49203345D01*
X67806470Y49635932D01*
X67546336Y50025249D01*
X67327000Y50244585D01*
X67327000Y54773000D01*
X72573001Y54773000D01*
X72573000Y50372339D01*
X72525385Y50340524D01*
X72159476Y49974615D01*
X71871983Y49544351D01*
X71673954Y49066268D01*
X71573000Y48558737D01*
X71573000Y48041263D01*
X71673954Y47533732D01*
X71871983Y47055649D01*
X72159476Y46625385D01*
X72525385Y46259476D01*
X72955649Y45971983D01*
X73433732Y45773954D01*
X73941263Y45673000D01*
X74458737Y45673000D01*
X74966268Y45773954D01*
X75444351Y45971983D01*
X75874615Y46259476D01*
X75973001Y46357862D01*
X75973001Y44427000D01*
X73745194Y44427000D01*
X73444351Y44628017D01*
X72966268Y44826046D01*
X72458737Y44927000D01*
X71941263Y44927000D01*
X71433732Y44826046D01*
X70955649Y44628017D01*
X70525385Y44340524D01*
X70159476Y43974615D01*
X69871983Y43544351D01*
X69673954Y43066268D01*
X69573000Y42558737D01*
X69573000Y42041263D01*
X69673954Y41533732D01*
X69871983Y41055649D01*
X70159476Y40625385D01*
X70525385Y40259476D01*
X70955649Y39971983D01*
X71433732Y39773954D01*
X71941263Y39673000D01*
X72458737Y39673000D01*
X72966268Y39773954D01*
X73444351Y39971983D01*
X73745194Y40173000D01*
X77995513Y40173000D01*
X78100000Y40162709D01*
X78204487Y40173000D01*
X78257569Y40178228D01*
X78516965Y40203776D01*
X78917906Y40325401D01*
X79287415Y40522907D01*
X79611293Y40788707D01*
X79877093Y41112585D01*
X80074599Y41482094D01*
X80196224Y41883035D01*
X80227000Y42195513D01*
X80237291Y42300000D01*
X80227000Y42404487D01*
X80227000Y52429588D01*
X80258400Y52370843D01*
X80399235Y52199235D01*
X80570843Y52058400D01*
X80573000Y52057247D01*
X80573001Y36504498D01*
X80562709Y36400000D01*
X80603776Y35983035D01*
X80725401Y35582094D01*
X80922907Y35212585D01*
X81188707Y34888707D01*
X81512585Y34622907D01*
X81882094Y34425401D01*
X82283035Y34303776D01*
X82595513Y34273000D01*
X82700000Y34262709D01*
X82804487Y34273000D01*
X84711861Y34273000D01*
X84725385Y34259476D01*
X84998480Y34077000D01*
X76077000Y34077000D01*
X76077000Y34461861D01*
X76240524Y34625385D01*
X76528017Y35055649D01*
X76726046Y35533732D01*
X76827000Y36041263D01*
X76827000Y36558737D01*
X76726046Y37066268D01*
X76528017Y37544351D01*
X76240524Y37974615D01*
X75874615Y38340524D01*
X75444351Y38628017D01*
X74966268Y38826046D01*
X74458737Y38927000D01*
X73941263Y38927000D01*
X73433732Y38826046D01*
X72955649Y38628017D01*
X72525385Y38340524D01*
X72159476Y37974615D01*
X71871983Y37544351D01*
X71673954Y37066268D01*
X71573000Y36558737D01*
X71573000Y36041263D01*
X71673954Y35533732D01*
X71871983Y35055649D01*
X72159476Y34625385D01*
X72323001Y34461860D01*
X72323001Y34077000D01*
X67577000Y34077000D01*
X67577000Y39420643D01*
X67806470Y39764068D01*
X67985653Y40196655D01*
X68077000Y40655886D01*
X68077000Y41124114D01*
X67985653Y41583345D01*
X67806470Y42015932D01*
X67546336Y42405249D01*
X67215249Y42736336D01*
X66825932Y42996470D01*
X66393345Y43175653D01*
X65934114Y43267000D01*
X65465886Y43267000D01*
X65006655Y43175653D01*
X64574068Y42996470D01*
X64245609Y42777000D01*
X43827000Y42777000D01*
X43827000Y46461861D01*
X43990524Y46625385D01*
X44278017Y47055649D01*
X44476046Y47533732D01*
X44577000Y48041263D01*
X44577000Y48558737D01*
X44476046Y49066268D01*
X44278017Y49544351D01*
X43990524Y49974615D01*
X43624615Y50340524D01*
X43194351Y50628017D01*
X42716268Y50826046D01*
X42208737Y50927000D01*
X41691263Y50927000D01*
X41183732Y50826046D01*
X40705649Y50628017D01*
X40275385Y50340524D01*
X39909476Y49974615D01*
X39621983Y49544351D01*
X39423954Y49066268D01*
X39323000Y48558737D01*
X39323000Y48041263D01*
X39423954Y47533732D01*
X39621983Y47055649D01*
X39909476Y46625385D01*
X40073001Y46461860D01*
X40073000Y41142202D01*
X40063919Y41050000D01*
X40073000Y40957798D01*
X40073000Y40957791D01*
X40100159Y40682045D01*
X40207487Y40328229D01*
X40381780Y40002150D01*
X40616339Y39716339D01*
X40687966Y39657556D01*
X40707556Y39637966D01*
X40766339Y39566339D01*
X41052149Y39331780D01*
X41378228Y39157487D01*
X41732044Y39050159D01*
X42007790Y39023000D01*
X42007797Y39023000D01*
X42099999Y39013919D01*
X42192201Y39023000D01*
X63823001Y39023000D01*
X63823000Y32392202D01*
X63813919Y32300000D01*
X63823000Y32207798D01*
X63823000Y32207791D01*
X63834433Y32091715D01*
X63850159Y31932044D01*
X63876876Y31843971D01*
X63957487Y31578229D01*
X64131780Y31252150D01*
X64366339Y30966339D01*
X64421263Y30921263D01*
X64466339Y30866339D01*
X64752149Y30631780D01*
X65078228Y30457487D01*
X65432044Y30350159D01*
X65707790Y30323000D01*
X65707797Y30323000D01*
X65799999Y30313919D01*
X65892201Y30323000D01*
X74607797Y30323000D01*
X74699999Y30313919D01*
X74792201Y30323000D01*
X91423001Y30323000D01*
X91423000Y13657000D01*
X89038492Y13657000D01*
X88974714Y13734714D01*
X88673676Y13981768D01*
X88330226Y14165347D01*
X87957560Y14278394D01*
X87570000Y14316565D01*
X87182441Y14278394D01*
X86809775Y14165347D01*
X86466325Y13981768D01*
X86300001Y13845270D01*
X86133676Y13981768D01*
X85790226Y14165347D01*
X85417560Y14278394D01*
X85030000Y14316565D01*
X84642441Y14278394D01*
X84269775Y14165347D01*
X83926325Y13981768D01*
X83760001Y13845270D01*
X83593676Y13981768D01*
X83250226Y14165347D01*
X82877560Y14278394D01*
X82490000Y14316565D01*
X82102441Y14278394D01*
X81729775Y14165347D01*
X81386325Y13981768D01*
X81220001Y13845270D01*
X81053676Y13981768D01*
X80710226Y14165347D01*
X80337560Y14278394D01*
X79950000Y14316565D01*
X79562441Y14278394D01*
X79189775Y14165347D01*
X78846325Y13981768D01*
X78680001Y13845270D01*
X78513676Y13981768D01*
X78170226Y14165347D01*
X77797560Y14278394D01*
X77410000Y14316565D01*
X77022441Y14278394D01*
X76649775Y14165347D01*
X76306325Y13981768D01*
X76140001Y13845270D01*
X75973676Y13981768D01*
X75630226Y14165347D01*
X75257560Y14278394D01*
X74870000Y14316565D01*
X74482441Y14278394D01*
X74109775Y14165347D01*
X73766325Y13981768D01*
X73600001Y13845270D01*
X73433676Y13981768D01*
X73090226Y14165347D01*
X72717560Y14278394D01*
X72330000Y14316565D01*
X71942441Y14278394D01*
X71569775Y14165347D01*
X71517000Y14137138D01*
X71517000Y18930086D01*
X71524871Y19010001D01*
X71517000Y19089915D01*
X71517000Y19089925D01*
X71493458Y19328948D01*
X71400425Y19635638D01*
X71249346Y19918286D01*
X71046029Y20166029D01*
X70996597Y20206596D01*
X70956029Y20256029D01*
X70708286Y20459346D01*
X70425638Y20610425D01*
X70118948Y20703458D01*
X69879925Y20727000D01*
X69879914Y20727000D01*
X69800000Y20734871D01*
X69720086Y20727000D01*
X44727000Y20727000D01*
X44727000Y27667116D01*
X50033000Y27667116D01*
X50033000Y26372885D01*
X50061606Y26082441D01*
X50174653Y25709775D01*
X50358232Y25366324D01*
X50605286Y25065286D01*
X50906324Y24818232D01*
X51249774Y24634653D01*
X51622440Y24521606D01*
X52010000Y24483435D01*
X52397559Y24521606D01*
X52770225Y24634653D01*
X53113676Y24818232D01*
X53280000Y24954730D01*
X53446324Y24818232D01*
X53789774Y24634653D01*
X54162440Y24521606D01*
X54550000Y24483435D01*
X54937559Y24521606D01*
X55310225Y24634653D01*
X55653676Y24818232D01*
X55820000Y24954730D01*
X55986324Y24818232D01*
X56329774Y24634653D01*
X56702440Y24521606D01*
X57090000Y24483435D01*
X57477559Y24521606D01*
X57850225Y24634653D01*
X58193676Y24818232D01*
X58360000Y24954730D01*
X58526324Y24818232D01*
X58869774Y24634653D01*
X59242440Y24521606D01*
X59630000Y24483435D01*
X60017559Y24521606D01*
X60390225Y24634653D01*
X60733676Y24818232D01*
X60900000Y24954730D01*
X61066324Y24818232D01*
X61409774Y24634653D01*
X61782440Y24521606D01*
X62170000Y24483435D01*
X62557559Y24521606D01*
X62930225Y24634653D01*
X63273676Y24818232D01*
X63440000Y24954730D01*
X63606324Y24818232D01*
X63949774Y24634653D01*
X64322440Y24521606D01*
X64710000Y24483435D01*
X65097559Y24521606D01*
X65470225Y24634653D01*
X65813676Y24818232D01*
X65980000Y24954730D01*
X66146324Y24818232D01*
X66489774Y24634653D01*
X66862440Y24521606D01*
X67250000Y24483435D01*
X67637559Y24521606D01*
X68010225Y24634653D01*
X68353676Y24818232D01*
X68520000Y24954730D01*
X68686324Y24818232D01*
X69029774Y24634653D01*
X69402440Y24521606D01*
X69790000Y24483435D01*
X70177559Y24521606D01*
X70550225Y24634653D01*
X70893676Y24818232D01*
X71060000Y24954730D01*
X71226324Y24818232D01*
X71569774Y24634653D01*
X71942440Y24521606D01*
X72330000Y24483435D01*
X72717559Y24521606D01*
X73090225Y24634653D01*
X73433676Y24818232D01*
X73600000Y24954730D01*
X73766324Y24818232D01*
X74109774Y24634653D01*
X74482440Y24521606D01*
X74870000Y24483435D01*
X75257559Y24521606D01*
X75630225Y24634653D01*
X75973676Y24818232D01*
X76140000Y24954730D01*
X76306324Y24818232D01*
X76649774Y24634653D01*
X77022440Y24521606D01*
X77410000Y24483435D01*
X77797559Y24521606D01*
X78170225Y24634653D01*
X78513676Y24818232D01*
X78814714Y25065286D01*
X79016816Y25311549D01*
X79230574Y25164709D01*
X79499047Y25049437D01*
X79593110Y25028524D01*
X79823000Y25149845D01*
X79823000Y26893000D01*
X79803000Y26893000D01*
X79803000Y27147000D01*
X79823000Y27147000D01*
X79823000Y28890155D01*
X80077000Y28890155D01*
X80077000Y27147000D01*
X80097000Y27147000D01*
X80097000Y26893000D01*
X80077000Y26893000D01*
X80077000Y25149845D01*
X80306890Y25028524D01*
X80400953Y25049437D01*
X80669426Y25164709D01*
X80883184Y25311549D01*
X81085286Y25065286D01*
X81386324Y24818232D01*
X81729774Y24634653D01*
X82102440Y24521606D01*
X82490000Y24483435D01*
X82877559Y24521606D01*
X83250225Y24634653D01*
X83593676Y24818232D01*
X83760000Y24954730D01*
X83926324Y24818232D01*
X84269774Y24634653D01*
X84642440Y24521606D01*
X85030000Y24483435D01*
X85417559Y24521606D01*
X85790225Y24634653D01*
X86004555Y24749215D01*
X86090843Y24678400D01*
X86286629Y24573750D01*
X86499069Y24509307D01*
X86720000Y24487547D01*
X88420000Y24487547D01*
X88640931Y24509307D01*
X88853371Y24573750D01*
X89049157Y24678400D01*
X89220765Y24819235D01*
X89361600Y24990843D01*
X89466250Y25186629D01*
X89530693Y25399069D01*
X89552453Y25620000D01*
X89552453Y28420000D01*
X89530693Y28640931D01*
X89466250Y28853371D01*
X89361600Y29049157D01*
X89220765Y29220765D01*
X89049157Y29361600D01*
X88853371Y29466250D01*
X88640931Y29530693D01*
X88420000Y29552453D01*
X86720000Y29552453D01*
X86499069Y29530693D01*
X86286629Y29466250D01*
X86090843Y29361600D01*
X86004555Y29290785D01*
X85790226Y29405347D01*
X85417560Y29518394D01*
X85030000Y29556565D01*
X84642441Y29518394D01*
X84269775Y29405347D01*
X83926325Y29221768D01*
X83760001Y29085270D01*
X83593676Y29221768D01*
X83250226Y29405347D01*
X82877560Y29518394D01*
X82490000Y29556565D01*
X82102441Y29518394D01*
X81729775Y29405347D01*
X81386325Y29221768D01*
X81085287Y28974714D01*
X80883185Y28728451D01*
X80669426Y28875291D01*
X80400953Y28990563D01*
X80306890Y29011476D01*
X80077000Y28890155D01*
X79823000Y28890155D01*
X79593110Y29011476D01*
X79499047Y28990563D01*
X79230574Y28875291D01*
X79016816Y28728451D01*
X78814714Y28974714D01*
X78513676Y29221768D01*
X78170226Y29405347D01*
X77797560Y29518394D01*
X77410000Y29556565D01*
X77022441Y29518394D01*
X76649775Y29405347D01*
X76306325Y29221768D01*
X76140001Y29085270D01*
X75973676Y29221768D01*
X75630226Y29405347D01*
X75257560Y29518394D01*
X74870000Y29556565D01*
X74482441Y29518394D01*
X74109775Y29405347D01*
X73766325Y29221768D01*
X73600001Y29085270D01*
X73433676Y29221768D01*
X73090226Y29405347D01*
X72717560Y29518394D01*
X72330000Y29556565D01*
X71942441Y29518394D01*
X71569775Y29405347D01*
X71226325Y29221768D01*
X71060001Y29085270D01*
X70893676Y29221768D01*
X70550226Y29405347D01*
X70177560Y29518394D01*
X69790000Y29556565D01*
X69402441Y29518394D01*
X69029775Y29405347D01*
X68686325Y29221768D01*
X68520001Y29085270D01*
X68353676Y29221768D01*
X68010226Y29405347D01*
X67637560Y29518394D01*
X67250000Y29556565D01*
X66862441Y29518394D01*
X66489775Y29405347D01*
X66146325Y29221768D01*
X65980001Y29085270D01*
X65813676Y29221768D01*
X65470226Y29405347D01*
X65097560Y29518394D01*
X64710000Y29556565D01*
X64322441Y29518394D01*
X63949775Y29405347D01*
X63606325Y29221768D01*
X63440001Y29085270D01*
X63273676Y29221768D01*
X62930226Y29405347D01*
X62557560Y29518394D01*
X62170000Y29556565D01*
X61782441Y29518394D01*
X61409775Y29405347D01*
X61066325Y29221768D01*
X60900001Y29085270D01*
X60733676Y29221768D01*
X60390226Y29405347D01*
X60017560Y29518394D01*
X59630000Y29556565D01*
X59242441Y29518394D01*
X58869775Y29405347D01*
X58526325Y29221768D01*
X58360001Y29085270D01*
X58193676Y29221768D01*
X57850226Y29405347D01*
X57477560Y29518394D01*
X57090000Y29556565D01*
X56702441Y29518394D01*
X56329775Y29405347D01*
X56227000Y29350412D01*
X56227000Y34365415D01*
X56446336Y34584751D01*
X56706470Y34974068D01*
X56885653Y35406655D01*
X56977000Y35865886D01*
X56977000Y36334114D01*
X56885653Y36793345D01*
X56706470Y37225932D01*
X56446336Y37615249D01*
X56115249Y37946336D01*
X55725932Y38206470D01*
X55293345Y38385653D01*
X54834114Y38477000D01*
X54365886Y38477000D01*
X53906655Y38385653D01*
X53474068Y38206470D01*
X53084751Y37946336D01*
X52753664Y37615249D01*
X52493530Y37225932D01*
X52314347Y36793345D01*
X52223000Y36334114D01*
X52223000Y35865886D01*
X52314347Y35406655D01*
X52493530Y34974068D01*
X52753664Y34584751D01*
X52973000Y34365415D01*
X52973001Y29296961D01*
X52770226Y29405347D01*
X52397560Y29518394D01*
X52010000Y29556565D01*
X51622441Y29518394D01*
X51249775Y29405347D01*
X50906325Y29221768D01*
X50605287Y28974714D01*
X50358233Y28673676D01*
X50174653Y28330226D01*
X50061606Y27957560D01*
X50033000Y27667116D01*
X44727000Y27667116D01*
X44727000Y31020075D01*
X44734872Y31100000D01*
X44703458Y31418948D01*
X44610425Y31725638D01*
X44459346Y32008286D01*
X44256029Y32256029D01*
X44008286Y32459346D01*
X43725638Y32610425D01*
X43418948Y32703458D01*
X43179925Y32727000D01*
X43100000Y32734872D01*
X43020075Y32727000D01*
X40923770Y32727000D01*
X40974599Y32822094D01*
X41096224Y33223035D01*
X41137291Y33640000D01*
X41096224Y34056965D01*
X40974599Y34457906D01*
X40777093Y34827415D01*
X40511293Y35151293D01*
X40359312Y35276021D01*
X40430010Y35377239D01*
X40559144Y35671645D01*
X40590124Y35799566D01*
X40470777Y36053000D01*
X38627000Y36053000D01*
X38627000Y36033000D01*
X38373000Y36033000D01*
X38373000Y36053000D01*
X36529223Y36053000D01*
X36409876Y35799566D01*
X36440856Y35671645D01*
X36569990Y35377239D01*
X36640688Y35276021D01*
X36629696Y35267000D01*
X29419925Y35267000D01*
X29340000Y35274872D01*
X29260075Y35267000D01*
X29021052Y35243458D01*
X28714362Y35150425D01*
X28431714Y34999346D01*
X28183971Y34796029D01*
X28133017Y34733941D01*
X27606051Y34206976D01*
X27543972Y34156029D01*
X27493026Y34093951D01*
X27493022Y34093947D01*
X27340654Y33908285D01*
X27290443Y33814347D01*
X27189576Y33625638D01*
X27096543Y33318948D01*
X27087487Y33227000D01*
X27065129Y33000000D01*
X27073001Y32920076D01*
X27073000Y16737526D01*
X26485750Y16735000D01*
X26327000Y16576250D01*
X26327000Y14727000D01*
X26347000Y14727000D01*
X26347000Y14473000D01*
X26327000Y14473000D01*
X26327000Y12623750D01*
X26485750Y12465000D01*
X27073001Y12462474D01*
X27073000Y6879925D01*
X27065128Y6800000D01*
X27096542Y6481052D01*
X27189575Y6174362D01*
X27340654Y5891714D01*
X27443605Y5766268D01*
X27543971Y5643971D01*
X27791714Y5440654D01*
X28074362Y5289575D01*
X28381052Y5196542D01*
X28700000Y5165128D01*
X28779925Y5173000D01*
X79720086Y5173000D01*
X79800000Y5165129D01*
X79879914Y5173000D01*
X79879925Y5173000D01*
X80118948Y5196542D01*
X80323978Y5258737D01*
X93073000Y5258737D01*
X93073000Y4741263D01*
X93173954Y4233732D01*
X93371983Y3755649D01*
X93659476Y3325385D01*
X94025385Y2959476D01*
X94455649Y2671983D01*
X94933732Y2473954D01*
X95441263Y2373000D01*
X95958737Y2373000D01*
X96466268Y2473954D01*
X96944351Y2671983D01*
X97374615Y2959476D01*
X97740524Y3325385D01*
X98028017Y3755649D01*
X98226046Y4233732D01*
X98327000Y4741263D01*
X98327000Y5258737D01*
X98226046Y5766268D01*
X98028017Y6244351D01*
X97740524Y6674615D01*
X97374615Y7040524D01*
X96944351Y7328017D01*
X96466268Y7526046D01*
X95958737Y7627000D01*
X95441263Y7627000D01*
X94933732Y7526046D01*
X94455649Y7328017D01*
X94025385Y7040524D01*
X93659476Y6674615D01*
X93371983Y6244351D01*
X93173954Y5766268D01*
X93073000Y5258737D01*
X80323978Y5258737D01*
X80425638Y5289575D01*
X80708286Y5440654D01*
X80956029Y5643971D01*
X81006980Y5706055D01*
X81043945Y5743020D01*
X81106029Y5793971D01*
X81309346Y6041714D01*
X81460425Y6324362D01*
X81553458Y6631052D01*
X81577000Y6870075D01*
X81577000Y6870085D01*
X81584871Y6949999D01*
X81577000Y7029914D01*
X81577000Y9476313D01*
X81729774Y9394653D01*
X82102440Y9281606D01*
X82490000Y9243435D01*
X82877559Y9281606D01*
X83250225Y9394653D01*
X83593676Y9578232D01*
X83760000Y9714730D01*
X83926324Y9578232D01*
X84269774Y9394653D01*
X84642440Y9281606D01*
X85030000Y9243435D01*
X85417559Y9281606D01*
X85790225Y9394653D01*
X86133676Y9578232D01*
X86300000Y9714730D01*
X86466324Y9578232D01*
X86809774Y9394653D01*
X87182440Y9281606D01*
X87570000Y9243435D01*
X87957559Y9281606D01*
X88330225Y9394653D01*
X88673676Y9578232D01*
X88974714Y9825286D01*
X89038492Y9903000D01*
X92827798Y9903000D01*
X92920000Y9893919D01*
X93012202Y9903000D01*
X93012210Y9903000D01*
X93287956Y9930159D01*
X93641772Y10037487D01*
X93967851Y10211780D01*
X94253661Y10446339D01*
X94312444Y10517966D01*
X94562035Y10767557D01*
X94633661Y10826339D01*
X94868220Y11112149D01*
X95042513Y11438228D01*
X95149841Y11792044D01*
X95177000Y12067790D01*
X95177000Y12067797D01*
X95186081Y12159999D01*
X95177000Y12252201D01*
X95177000Y32107790D01*
X95186082Y32200000D01*
X95149841Y32567956D01*
X95042513Y32921772D01*
X94868220Y33247851D01*
X94633661Y33533661D01*
X94347851Y33768220D01*
X94021772Y33942513D01*
X93667956Y34049841D01*
X93392210Y34077000D01*
X93300000Y34086082D01*
X93207790Y34077000D01*
X87801520Y34077000D01*
X88074615Y34259476D01*
X88440524Y34625385D01*
X88728017Y35055649D01*
X88926046Y35533732D01*
X89027000Y36041263D01*
X89027000Y36558737D01*
X88926046Y37066268D01*
X88728017Y37544351D01*
X88440524Y37974615D01*
X88074615Y38340524D01*
X87644351Y38628017D01*
X87166268Y38826046D01*
X86658737Y38927000D01*
X86141263Y38927000D01*
X85633732Y38826046D01*
X85155649Y38628017D01*
X85004466Y38527000D01*
X84827000Y38527000D01*
X84827000Y46191579D01*
X85155649Y45971983D01*
X85633732Y45773954D01*
X86141263Y45673000D01*
X86658737Y45673000D01*
X87166268Y45773954D01*
X87644351Y45971983D01*
X88074615Y46259476D01*
X88440524Y46625385D01*
X88728017Y47055649D01*
X88926046Y47533732D01*
X89027000Y48041263D01*
X89027000Y48558737D01*
X88926046Y49066268D01*
X88728017Y49544351D01*
X88440524Y49974615D01*
X88074615Y50340524D01*
X87644351Y50628017D01*
X87166268Y50826046D01*
X86658737Y50927000D01*
X86141263Y50927000D01*
X85633732Y50826046D01*
X85155649Y50628017D01*
X84827000Y50408421D01*
X84827000Y52057247D01*
X84829157Y52058400D01*
X85000765Y52199235D01*
X85141600Y52370843D01*
X85246250Y52566629D01*
X85310693Y52779069D01*
X85332453Y53000000D01*
X85332453Y56000000D01*
X85310693Y56220931D01*
X85246250Y56433371D01*
X85141600Y56629157D01*
X85000765Y56800765D01*
X84829157Y56941600D01*
X84827000Y56942753D01*
X84827000Y58034806D01*
X85028017Y58335649D01*
X85226046Y58813732D01*
X85327000Y59321263D01*
X85327000Y59838737D01*
X85226046Y60346268D01*
X85028017Y60824351D01*
X84740524Y61254615D01*
X84374615Y61620524D01*
X83944351Y61908017D01*
X83466268Y62106046D01*
X82958737Y62207000D01*
X82441263Y62207000D01*
X81933732Y62106046D01*
X81455649Y61908017D01*
X81025385Y61620524D01*
X80659476Y61254615D01*
X80371983Y60824351D01*
X80227000Y60474332D01*
X80227000Y66495523D01*
X80237290Y66600001D01*
X80227000Y66704478D01*
X80227000Y66704487D01*
X80196224Y67016965D01*
X80074599Y67417906D01*
X79877093Y67787415D01*
X79611293Y68111293D01*
X79530126Y68177905D01*
X79277905Y68430126D01*
X79211293Y68511293D01*
X78887415Y68777093D01*
X78517906Y68974599D01*
X78116965Y69096224D01*
X77804487Y69127000D01*
X77804485Y69127000D01*
X77700000Y69137291D01*
X77595515Y69127000D01*
X30304487Y69127000D01*
X30200000Y69137291D01*
X30095513Y69127000D01*
X29783035Y69096224D01*
X29382094Y68974599D01*
X29012585Y68777093D01*
X28688707Y68511293D01*
X28422907Y68187415D01*
X28225401Y67817906D01*
X28103776Y67416965D01*
X28062709Y67000000D01*
X28073001Y66895503D01*
X28073000Y56995514D01*
X28073001Y56995504D01*
X28073000Y50327000D01*
X25138139Y50327000D01*
X25124615Y50340524D01*
X24694351Y50628017D01*
X24216268Y50826046D01*
X23708737Y50927000D01*
X23191263Y50927000D01*
X22683732Y50826046D01*
X22205649Y50628017D01*
X21994602Y50487000D01*
X14945194Y50487000D01*
X14644351Y50688017D01*
X14166268Y50886046D01*
X14096116Y50900000D01*
X14166268Y50913954D01*
X14644351Y51111983D01*
X15074615Y51399476D01*
X15440524Y51765385D01*
X15728017Y52195649D01*
X15926046Y52673732D01*
X16027000Y53181263D01*
X16027000Y53698737D01*
X15926046Y54206268D01*
X15728017Y54684351D01*
X15527000Y54985194D01*
X15527000Y56974806D01*
X15728017Y57275649D01*
X15926046Y57753732D01*
X16027000Y58261263D01*
X16027000Y58778737D01*
X15926046Y59286268D01*
X15728017Y59764351D01*
X15440524Y60194615D01*
X15074615Y60560524D01*
X14644351Y60848017D01*
X14355781Y60967547D01*
X14900000Y60967547D01*
X15120931Y60989307D01*
X15333371Y61053750D01*
X15529157Y61158400D01*
X15700765Y61299235D01*
X15841600Y61470843D01*
X15842753Y61473000D01*
X16118969Y61473000D01*
X17522099Y60069869D01*
X17588707Y59988707D01*
X17912585Y59722907D01*
X18282094Y59525401D01*
X18683035Y59403776D01*
X18995513Y59373000D01*
X18995522Y59373000D01*
X19099999Y59362710D01*
X19204476Y59373000D01*
X21904806Y59373000D01*
X22205649Y59171983D01*
X22683732Y58973954D01*
X23191263Y58873000D01*
X23708737Y58873000D01*
X24216268Y58973954D01*
X24694351Y59171983D01*
X25124615Y59459476D01*
X25490524Y59825385D01*
X25778017Y60255649D01*
X25976046Y60733732D01*
X26077000Y61241263D01*
X26077000Y61758737D01*
X25976046Y62266268D01*
X25778017Y62744351D01*
X25490524Y63174615D01*
X25124615Y63540524D01*
X24694351Y63828017D01*
X24216268Y64026046D01*
X23708737Y64127000D01*
X23191263Y64127000D01*
X22683732Y64026046D01*
X22205649Y63828017D01*
X21904806Y63627000D01*
X19981032Y63627000D01*
X18577905Y65030126D01*
X18511293Y65111293D01*
X18187415Y65377093D01*
X17817906Y65574599D01*
X17416965Y65696224D01*
X17104487Y65727000D01*
X17104485Y65727000D01*
X17000000Y65737291D01*
X16895515Y65727000D01*
X15842753Y65727000D01*
X15841600Y65729157D01*
X15700765Y65900765D01*
X15529157Y66041600D01*
X15333371Y66146250D01*
X15120931Y66210693D01*
X14900000Y66232453D01*
X11900000Y66232453D01*
X11679069Y66210693D01*
X11466629Y66146250D01*
X11270843Y66041600D01*
X11099235Y65900765D01*
X10958400Y65729157D01*
X10853750Y65533371D01*
X10789307Y65320931D01*
X10767547Y65100000D01*
X1152000Y65100000D01*
X1152000Y70258737D01*
X2373000Y70258737D01*
X2373000Y69741263D01*
X2473954Y69233732D01*
X2671983Y68755649D01*
X2959476Y68325385D01*
X3325385Y67959476D01*
X3755649Y67671983D01*
X4233732Y67473954D01*
X4741263Y67373000D01*
X5258737Y67373000D01*
X5766268Y67473954D01*
X6244351Y67671983D01*
X6674615Y67959476D01*
X7040524Y68325385D01*
X7328017Y68755649D01*
X7526046Y69233732D01*
X7627000Y69741263D01*
X7627000Y70258737D01*
X92373000Y70258737D01*
X92373000Y69741263D01*
X92473954Y69233732D01*
X92671983Y68755649D01*
X92959476Y68325385D01*
X93325385Y67959476D01*
X93755649Y67671983D01*
X94233732Y67473954D01*
X94741263Y67373000D01*
X95258737Y67373000D01*
X95766268Y67473954D01*
X96244351Y67671983D01*
X96674615Y67959476D01*
X97040524Y68325385D01*
X97328017Y68755649D01*
X97526046Y69233732D01*
X97627000Y69741263D01*
X97627000Y70258737D01*
X97526046Y70766268D01*
X97328017Y71244351D01*
X97040524Y71674615D01*
X96674615Y72040524D01*
X96244351Y72328017D01*
X95766268Y72526046D01*
X95258737Y72627000D01*
X94741263Y72627000D01*
X94233732Y72526046D01*
X93755649Y72328017D01*
X93325385Y72040524D01*
X92959476Y71674615D01*
X92671983Y71244351D01*
X92473954Y70766268D01*
X92373000Y70258737D01*
X7627000Y70258737D01*
X7526046Y70766268D01*
X7328017Y71244351D01*
X7040524Y71674615D01*
X6674615Y72040524D01*
X6244351Y72328017D01*
X5766268Y72526046D01*
X5258737Y72627000D01*
X4741263Y72627000D01*
X4233732Y72526046D01*
X3755649Y72328017D01*
X3325385Y72040524D01*
X2959476Y71674615D01*
X2671983Y71244351D01*
X2473954Y70766268D01*
X2373000Y70258737D01*
X1152000Y70258737D01*
X1152000Y73848000D01*
X98848000Y73848000D01*
X98848001Y1152000D01*
G37*
%TD.AperFunction*%
%TD*%
M02*
